<?xml version="1.0" encoding="utf-8" standalone="no"?>
<!DOCTYPE svg PUBLIC "-//W3C//DTD SVG 1.1//EN"
  "http://www.w3.org/Graphics/SVG/1.1/DTD/svg11.dtd">
<svg xmlns:xlink="http://www.w3.org/1999/xlink" width="621.529063pt" height="384.34375pt" viewBox="0 0 621.529063 384.34375" xmlns="http://www.w3.org/2000/svg" version="1.1">
 <metadata>
  <rdf:RDF xmlns:dc="http://purl.org/dc/elements/1.1/" xmlns:cc="http://creativecommons.org/ns#" xmlns:rdf="http://www.w3.org/1999/02/22-rdf-syntax-ns#">
   <cc:Work>
    <dc:type rdf:resource="http://purl.org/dc/dcmitype/StillImage"/>
    <dc:date>2026-05-13T06:50:49.575301</dc:date>
    <dc:format>image/svg+xml</dc:format>
    <dc:creator>
     <cc:Agent>
      <dc:title>Matplotlib v3.10.8, https://matplotlib.org/</dc:title>
     </cc:Agent>
    </dc:creator>
   </cc:Work>
  </rdf:RDF>
 </metadata>
 <defs>
  <style type="text/css">*{stroke-linejoin: round; stroke-linecap: butt}</style>
 </defs>
 <g id="figure_1">
  <g id="patch_1">
   <path d="M 0 384.34375 
L 621.529063 384.34375 
L 621.529063 0 
L 0 0 
z
" style="fill: #ffffff"/>
  </g>
  <g id="axes_1">
   <g id="patch_2">
    <path d="M 44.089063 320.04 
L 614.329063 320.04 
L 614.329063 42.84 
L 44.089063 42.84 
z
" style="fill: #ffffff"/>
   </g>
   <g id="matplotlib.axis_1">
    <g id="xtick_1">
     <g id="line2d_1">
      <path d="M 104.569063 320.04 
L 104.569063 42.84 
" clip-path="url(#pe63dbf1533)" style="fill: none; stroke-dasharray: 2.96,1.28; stroke-dashoffset: 0; stroke: #e0e0e0; stroke-width: 0.8"/>
     </g>
     <g id="line2d_2">
      <defs>
       <path id="m0983aca0b6" d="M 0 0 
L 0 3.5 
" style="stroke: #000000; stroke-width: 0.8"/>
      </defs>
      <g>
       <use xlink:href="#m0983aca0b6" x="104.569063" y="320.04" style="stroke: #000000; stroke-width: 0.8"/>
      </g>
     </g>
     <g id="text_1">
      <!-- Jan 01 -->
      <g transform="translate(96.359553 351.806746) rotate(-45) scale(0.09 -0.09)">
       <defs>
        <path id="DejaVuSans-4a" d="M 628 4666 
L 1259 4666 
L 1259 325 
Q 1259 -519 939 -900 
Q 619 -1281 -91 -1281 
L -331 -1281 
L -331 -750 
L -134 -750 
Q 284 -750 456 -515 
Q 628 -281 628 325 
L 628 4666 
z
" transform="scale(0.015625)"/>
        <path id="DejaVuSans-61" d="M 2194 1759 
Q 1497 1759 1228 1600 
Q 959 1441 959 1056 
Q 959 750 1161 570 
Q 1363 391 1709 391 
Q 2188 391 2477 730 
Q 2766 1069 2766 1631 
L 2766 1759 
L 2194 1759 
z
M 3341 1997 
L 3341 0 
L 2766 0 
L 2766 531 
Q 2569 213 2275 61 
Q 1981 -91 1556 -91 
Q 1019 -91 701 211 
Q 384 513 384 1019 
Q 384 1609 779 1909 
Q 1175 2209 1959 2209 
L 2766 2209 
L 2766 2266 
Q 2766 2663 2505 2880 
Q 2244 3097 1772 3097 
Q 1472 3097 1187 3025 
Q 903 2953 641 2809 
L 641 3341 
Q 956 3463 1253 3523 
Q 1550 3584 1831 3584 
Q 2591 3584 2966 3190 
Q 3341 2797 3341 1997 
z
" transform="scale(0.015625)"/>
        <path id="DejaVuSans-6e" d="M 3513 2113 
L 3513 0 
L 2938 0 
L 2938 2094 
Q 2938 2591 2744 2837 
Q 2550 3084 2163 3084 
Q 1697 3084 1428 2787 
Q 1159 2491 1159 1978 
L 1159 0 
L 581 0 
L 581 3500 
L 1159 3500 
L 1159 2956 
Q 1366 3272 1645 3428 
Q 1925 3584 2291 3584 
Q 2894 3584 3203 3211 
Q 3513 2838 3513 2113 
z
" transform="scale(0.015625)"/>
        <path id="DejaVuSans-20" transform="scale(0.015625)"/>
        <path id="DejaVuSans-30" d="M 2034 4250 
Q 1547 4250 1301 3770 
Q 1056 3291 1056 2328 
Q 1056 1369 1301 889 
Q 1547 409 2034 409 
Q 2525 409 2770 889 
Q 3016 1369 3016 2328 
Q 3016 3291 2770 3770 
Q 2525 4250 2034 4250 
z
M 2034 4750 
Q 2819 4750 3233 4129 
Q 3647 3509 3647 2328 
Q 3647 1150 3233 529 
Q 2819 -91 2034 -91 
Q 1250 -91 836 529 
Q 422 1150 422 2328 
Q 422 3509 836 4129 
Q 1250 4750 2034 4750 
z
" transform="scale(0.015625)"/>
        <path id="DejaVuSans-31" d="M 794 531 
L 1825 531 
L 1825 4091 
L 703 3866 
L 703 4441 
L 1819 4666 
L 2450 4666 
L 2450 531 
L 3481 531 
L 3481 0 
L 794 0 
L 794 531 
z
" transform="scale(0.015625)"/>
       </defs>
       <use xlink:href="#DejaVuSans-4a"/>
       <use xlink:href="#DejaVuSans-61" transform="translate(29.492188 0)"/>
       <use xlink:href="#DejaVuSans-6e" transform="translate(90.771484 0)"/>
       <use xlink:href="#DejaVuSans-20" transform="translate(154.150391 0)"/>
       <use xlink:href="#DejaVuSans-30" transform="translate(185.9375 0)"/>
       <use xlink:href="#DejaVuSans-31" transform="translate(249.560547 0)"/>
      </g>
     </g>
    </g>
    <g id="xtick_2">
     <g id="line2d_3">
      <path d="M 179.449063 320.04 
L 179.449063 42.84 
" clip-path="url(#pe63dbf1533)" style="fill: none; stroke-dasharray: 2.96,1.28; stroke-dashoffset: 0; stroke: #e0e0e0; stroke-width: 0.8"/>
     </g>
     <g id="line2d_4">
      <g>
       <use xlink:href="#m0983aca0b6" x="179.449063" y="320.04" style="stroke: #000000; stroke-width: 0.8"/>
      </g>
     </g>
     <g id="text_2">
      <!-- Jan 03 -->
      <g transform="translate(171.239553 351.806746) rotate(-45) scale(0.09 -0.09)">
       <defs>
        <path id="DejaVuSans-33" d="M 2597 2516 
Q 3050 2419 3304 2112 
Q 3559 1806 3559 1356 
Q 3559 666 3084 287 
Q 2609 -91 1734 -91 
Q 1441 -91 1130 -33 
Q 819 25 488 141 
L 488 750 
Q 750 597 1062 519 
Q 1375 441 1716 441 
Q 2309 441 2620 675 
Q 2931 909 2931 1356 
Q 2931 1769 2642 2001 
Q 2353 2234 1838 2234 
L 1294 2234 
L 1294 2753 
L 1863 2753 
Q 2328 2753 2575 2939 
Q 2822 3125 2822 3475 
Q 2822 3834 2567 4026 
Q 2313 4219 1838 4219 
Q 1578 4219 1281 4162 
Q 984 4106 628 3988 
L 628 4550 
Q 988 4650 1302 4700 
Q 1616 4750 1894 4750 
Q 2613 4750 3031 4423 
Q 3450 4097 3450 3541 
Q 3450 3153 3228 2886 
Q 3006 2619 2597 2516 
z
" transform="scale(0.015625)"/>
       </defs>
       <use xlink:href="#DejaVuSans-4a"/>
       <use xlink:href="#DejaVuSans-61" transform="translate(29.492188 0)"/>
       <use xlink:href="#DejaVuSans-6e" transform="translate(90.771484 0)"/>
       <use xlink:href="#DejaVuSans-20" transform="translate(154.150391 0)"/>
       <use xlink:href="#DejaVuSans-30" transform="translate(185.9375 0)"/>
       <use xlink:href="#DejaVuSans-33" transform="translate(249.560547 0)"/>
      </g>
     </g>
    </g>
    <g id="xtick_3">
     <g id="line2d_5">
      <path d="M 254.329063 320.04 
L 254.329063 42.84 
" clip-path="url(#pe63dbf1533)" style="fill: none; stroke-dasharray: 2.96,1.28; stroke-dashoffset: 0; stroke: #e0e0e0; stroke-width: 0.8"/>
     </g>
     <g id="line2d_6">
      <g>
       <use xlink:href="#m0983aca0b6" x="254.329063" y="320.04" style="stroke: #000000; stroke-width: 0.8"/>
      </g>
     </g>
     <g id="text_3">
      <!-- Jan 05 -->
      <g transform="translate(246.119553 351.806746) rotate(-45) scale(0.09 -0.09)">
       <defs>
        <path id="DejaVuSans-35" d="M 691 4666 
L 3169 4666 
L 3169 4134 
L 1269 4134 
L 1269 2991 
Q 1406 3038 1543 3061 
Q 1681 3084 1819 3084 
Q 2600 3084 3056 2656 
Q 3513 2228 3513 1497 
Q 3513 744 3044 326 
Q 2575 -91 1722 -91 
Q 1428 -91 1123 -41 
Q 819 9 494 109 
L 494 744 
Q 775 591 1075 516 
Q 1375 441 1709 441 
Q 2250 441 2565 725 
Q 2881 1009 2881 1497 
Q 2881 1984 2565 2268 
Q 2250 2553 1709 2553 
Q 1456 2553 1204 2497 
Q 953 2441 691 2322 
L 691 4666 
z
" transform="scale(0.015625)"/>
       </defs>
       <use xlink:href="#DejaVuSans-4a"/>
       <use xlink:href="#DejaVuSans-61" transform="translate(29.492188 0)"/>
       <use xlink:href="#DejaVuSans-6e" transform="translate(90.771484 0)"/>
       <use xlink:href="#DejaVuSans-20" transform="translate(154.150391 0)"/>
       <use xlink:href="#DejaVuSans-30" transform="translate(185.9375 0)"/>
       <use xlink:href="#DejaVuSans-35" transform="translate(249.560547 0)"/>
      </g>
     </g>
    </g>
    <g id="xtick_4">
     <g id="line2d_7">
      <path d="M 329.209063 320.04 
L 329.209063 42.84 
" clip-path="url(#pe63dbf1533)" style="fill: none; stroke-dasharray: 2.96,1.28; stroke-dashoffset: 0; stroke: #e0e0e0; stroke-width: 0.8"/>
     </g>
     <g id="line2d_8">
      <g>
       <use xlink:href="#m0983aca0b6" x="329.209063" y="320.04" style="stroke: #000000; stroke-width: 0.8"/>
      </g>
     </g>
     <g id="text_4">
      <!-- Jan 07 -->
      <g transform="translate(320.999553 351.806746) rotate(-45) scale(0.09 -0.09)">
       <defs>
        <path id="DejaVuSans-37" d="M 525 4666 
L 3525 4666 
L 3525 4397 
L 1831 0 
L 1172 0 
L 2766 4134 
L 525 4134 
L 525 4666 
z
" transform="scale(0.015625)"/>
       </defs>
       <use xlink:href="#DejaVuSans-4a"/>
       <use xlink:href="#DejaVuSans-61" transform="translate(29.492188 0)"/>
       <use xlink:href="#DejaVuSans-6e" transform="translate(90.771484 0)"/>
       <use xlink:href="#DejaVuSans-20" transform="translate(154.150391 0)"/>
       <use xlink:href="#DejaVuSans-30" transform="translate(185.9375 0)"/>
       <use xlink:href="#DejaVuSans-37" transform="translate(249.560547 0)"/>
      </g>
     </g>
    </g>
    <g id="xtick_5">
     <g id="line2d_9">
      <path d="M 404.089063 320.04 
L 404.089063 42.84 
" clip-path="url(#pe63dbf1533)" style="fill: none; stroke-dasharray: 2.96,1.28; stroke-dashoffset: 0; stroke: #e0e0e0; stroke-width: 0.8"/>
     </g>
     <g id="line2d_10">
      <g>
       <use xlink:href="#m0983aca0b6" x="404.089063" y="320.04" style="stroke: #000000; stroke-width: 0.8"/>
      </g>
     </g>
     <g id="text_5">
      <!-- Jan 09 -->
      <g transform="translate(395.879553 351.806746) rotate(-45) scale(0.09 -0.09)">
       <defs>
        <path id="DejaVuSans-39" d="M 703 97 
L 703 672 
Q 941 559 1184 500 
Q 1428 441 1663 441 
Q 2288 441 2617 861 
Q 2947 1281 2994 2138 
Q 2813 1869 2534 1725 
Q 2256 1581 1919 1581 
Q 1219 1581 811 2004 
Q 403 2428 403 3163 
Q 403 3881 828 4315 
Q 1253 4750 1959 4750 
Q 2769 4750 3195 4129 
Q 3622 3509 3622 2328 
Q 3622 1225 3098 567 
Q 2575 -91 1691 -91 
Q 1453 -91 1209 -44 
Q 966 3 703 97 
z
M 1959 2075 
Q 2384 2075 2632 2365 
Q 2881 2656 2881 3163 
Q 2881 3666 2632 3958 
Q 2384 4250 1959 4250 
Q 1534 4250 1286 3958 
Q 1038 3666 1038 3163 
Q 1038 2656 1286 2365 
Q 1534 2075 1959 2075 
z
" transform="scale(0.015625)"/>
       </defs>
       <use xlink:href="#DejaVuSans-4a"/>
       <use xlink:href="#DejaVuSans-61" transform="translate(29.492188 0)"/>
       <use xlink:href="#DejaVuSans-6e" transform="translate(90.771484 0)"/>
       <use xlink:href="#DejaVuSans-20" transform="translate(154.150391 0)"/>
       <use xlink:href="#DejaVuSans-30" transform="translate(185.9375 0)"/>
       <use xlink:href="#DejaVuSans-39" transform="translate(249.560547 0)"/>
      </g>
     </g>
    </g>
    <g id="xtick_6">
     <g id="line2d_11">
      <path d="M 478.969063 320.04 
L 478.969063 42.84 
" clip-path="url(#pe63dbf1533)" style="fill: none; stroke-dasharray: 2.96,1.28; stroke-dashoffset: 0; stroke: #e0e0e0; stroke-width: 0.8"/>
     </g>
     <g id="line2d_12">
      <g>
       <use xlink:href="#m0983aca0b6" x="478.969063" y="320.04" style="stroke: #000000; stroke-width: 0.8"/>
      </g>
     </g>
     <g id="text_6">
      <!-- Jan 11 -->
      <g transform="translate(470.759553 351.806746) rotate(-45) scale(0.09 -0.09)">
       <use xlink:href="#DejaVuSans-4a"/>
       <use xlink:href="#DejaVuSans-61" transform="translate(29.492188 0)"/>
       <use xlink:href="#DejaVuSans-6e" transform="translate(90.771484 0)"/>
       <use xlink:href="#DejaVuSans-20" transform="translate(154.150391 0)"/>
       <use xlink:href="#DejaVuSans-31" transform="translate(185.9375 0)"/>
       <use xlink:href="#DejaVuSans-31" transform="translate(249.560547 0)"/>
      </g>
     </g>
    </g>
    <g id="xtick_7">
     <g id="line2d_13">
      <path d="M 553.849063 320.04 
L 553.849063 42.84 
" clip-path="url(#pe63dbf1533)" style="fill: none; stroke-dasharray: 2.96,1.28; stroke-dashoffset: 0; stroke: #e0e0e0; stroke-width: 0.8"/>
     </g>
     <g id="line2d_14">
      <g>
       <use xlink:href="#m0983aca0b6" x="553.849063" y="320.04" style="stroke: #000000; stroke-width: 0.8"/>
      </g>
     </g>
     <g id="text_7">
      <!-- Jan 13 -->
      <g transform="translate(545.639553 351.806746) rotate(-45) scale(0.09 -0.09)">
       <use xlink:href="#DejaVuSans-4a"/>
       <use xlink:href="#DejaVuSans-61" transform="translate(29.492188 0)"/>
       <use xlink:href="#DejaVuSans-6e" transform="translate(90.771484 0)"/>
       <use xlink:href="#DejaVuSans-20" transform="translate(154.150391 0)"/>
       <use xlink:href="#DejaVuSans-31" transform="translate(185.9375 0)"/>
       <use xlink:href="#DejaVuSans-33" transform="translate(249.560547 0)"/>
      </g>
     </g>
    </g>
   </g>
   <g id="matplotlib.axis_2">
    <g id="ytick_1">
     <g id="line2d_15">
      <path d="M 44.089063 288.63403 
L 614.329063 288.63403 
" clip-path="url(#pe63dbf1533)" style="fill: none; stroke-dasharray: 2.96,1.28; stroke-dashoffset: 0; stroke: #e0e0e0; stroke-width: 0.8"/>
     </g>
     <g id="line2d_16">
      <defs>
       <path id="me508de4e73" d="M 0 0 
L -3.5 0 
" style="stroke: #000000; stroke-width: 0.8"/>
      </defs>
      <g>
       <use xlink:href="#me508de4e73" x="44.089063" y="288.63403" style="stroke: #000000; stroke-width: 0.8"/>
      </g>
     </g>
     <g id="text_8">
      <!-- 80 -->
      <g transform="translate(25.636563 292.053327) scale(0.09 -0.09)">
       <defs>
        <path id="DejaVuSans-38" d="M 2034 2216 
Q 1584 2216 1326 1975 
Q 1069 1734 1069 1313 
Q 1069 891 1326 650 
Q 1584 409 2034 409 
Q 2484 409 2743 651 
Q 3003 894 3003 1313 
Q 3003 1734 2745 1975 
Q 2488 2216 2034 2216 
z
M 1403 2484 
Q 997 2584 770 2862 
Q 544 3141 544 3541 
Q 544 4100 942 4425 
Q 1341 4750 2034 4750 
Q 2731 4750 3128 4425 
Q 3525 4100 3525 3541 
Q 3525 3141 3298 2862 
Q 3072 2584 2669 2484 
Q 3125 2378 3379 2068 
Q 3634 1759 3634 1313 
Q 3634 634 3220 271 
Q 2806 -91 2034 -91 
Q 1263 -91 848 271 
Q 434 634 434 1313 
Q 434 1759 690 2068 
Q 947 2378 1403 2484 
z
M 1172 3481 
Q 1172 3119 1398 2916 
Q 1625 2713 2034 2713 
Q 2441 2713 2670 2916 
Q 2900 3119 2900 3481 
Q 2900 3844 2670 4047 
Q 2441 4250 2034 4250 
Q 1625 4250 1398 4047 
Q 1172 3844 1172 3481 
z
" transform="scale(0.015625)"/>
       </defs>
       <use xlink:href="#DejaVuSans-38"/>
       <use xlink:href="#DejaVuSans-30" transform="translate(63.623047 0)"/>
      </g>
     </g>
    </g>
    <g id="ytick_2">
     <g id="line2d_17">
      <path d="M 44.089063 251.02209 
L 614.329063 251.02209 
" clip-path="url(#pe63dbf1533)" style="fill: none; stroke-dasharray: 2.96,1.28; stroke-dashoffset: 0; stroke: #e0e0e0; stroke-width: 0.8"/>
     </g>
     <g id="line2d_18">
      <g>
       <use xlink:href="#me508de4e73" x="44.089063" y="251.02209" style="stroke: #000000; stroke-width: 0.8"/>
      </g>
     </g>
     <g id="text_9">
      <!-- 85 -->
      <g transform="translate(25.636563 254.441386) scale(0.09 -0.09)">
       <use xlink:href="#DejaVuSans-38"/>
       <use xlink:href="#DejaVuSans-35" transform="translate(63.623047 0)"/>
      </g>
     </g>
    </g>
    <g id="ytick_3">
     <g id="line2d_19">
      <path d="M 44.089063 213.410149 
L 614.329063 213.410149 
" clip-path="url(#pe63dbf1533)" style="fill: none; stroke-dasharray: 2.96,1.28; stroke-dashoffset: 0; stroke: #e0e0e0; stroke-width: 0.8"/>
     </g>
     <g id="line2d_20">
      <g>
       <use xlink:href="#me508de4e73" x="44.089063" y="213.410149" style="stroke: #000000; stroke-width: 0.8"/>
      </g>
     </g>
     <g id="text_10">
      <!-- 90 -->
      <g transform="translate(25.636563 216.829446) scale(0.09 -0.09)">
       <use xlink:href="#DejaVuSans-39"/>
       <use xlink:href="#DejaVuSans-30" transform="translate(63.623047 0)"/>
      </g>
     </g>
    </g>
    <g id="ytick_4">
     <g id="line2d_21">
      <path d="M 44.089063 175.798209 
L 614.329063 175.798209 
" clip-path="url(#pe63dbf1533)" style="fill: none; stroke-dasharray: 2.96,1.28; stroke-dashoffset: 0; stroke: #e0e0e0; stroke-width: 0.8"/>
     </g>
     <g id="line2d_22">
      <g>
       <use xlink:href="#me508de4e73" x="44.089063" y="175.798209" style="stroke: #000000; stroke-width: 0.8"/>
      </g>
     </g>
     <g id="text_11">
      <!-- 95 -->
      <g transform="translate(25.636563 179.217506) scale(0.09 -0.09)">
       <use xlink:href="#DejaVuSans-39"/>
       <use xlink:href="#DejaVuSans-35" transform="translate(63.623047 0)"/>
      </g>
     </g>
    </g>
    <g id="ytick_5">
     <g id="line2d_23">
      <path d="M 44.089063 138.186269 
L 614.329063 138.186269 
" clip-path="url(#pe63dbf1533)" style="fill: none; stroke-dasharray: 2.96,1.28; stroke-dashoffset: 0; stroke: #e0e0e0; stroke-width: 0.8"/>
     </g>
     <g id="line2d_24">
      <g>
       <use xlink:href="#me508de4e73" x="44.089063" y="138.186269" style="stroke: #000000; stroke-width: 0.8"/>
      </g>
     </g>
     <g id="text_12">
      <!-- 100 -->
      <g transform="translate(19.910313 141.605566) scale(0.09 -0.09)">
       <use xlink:href="#DejaVuSans-31"/>
       <use xlink:href="#DejaVuSans-30" transform="translate(63.623047 0)"/>
       <use xlink:href="#DejaVuSans-30" transform="translate(127.246094 0)"/>
      </g>
     </g>
    </g>
    <g id="ytick_6">
     <g id="line2d_25">
      <path d="M 44.089063 100.574328 
L 614.329063 100.574328 
" clip-path="url(#pe63dbf1533)" style="fill: none; stroke-dasharray: 2.96,1.28; stroke-dashoffset: 0; stroke: #e0e0e0; stroke-width: 0.8"/>
     </g>
     <g id="line2d_26">
      <g>
       <use xlink:href="#me508de4e73" x="44.089063" y="100.574328" style="stroke: #000000; stroke-width: 0.8"/>
      </g>
     </g>
     <g id="text_13">
      <!-- 105 -->
      <g transform="translate(19.910313 103.993625) scale(0.09 -0.09)">
       <use xlink:href="#DejaVuSans-31"/>
       <use xlink:href="#DejaVuSans-30" transform="translate(63.623047 0)"/>
       <use xlink:href="#DejaVuSans-35" transform="translate(127.246094 0)"/>
      </g>
     </g>
    </g>
    <g id="ytick_7">
     <g id="line2d_27">
      <path d="M 44.089063 62.962388 
L 614.329063 62.962388 
" clip-path="url(#pe63dbf1533)" style="fill: none; stroke-dasharray: 2.96,1.28; stroke-dashoffset: 0; stroke: #e0e0e0; stroke-width: 0.8"/>
     </g>
     <g id="line2d_28">
      <g>
       <use xlink:href="#me508de4e73" x="44.089063" y="62.962388" style="stroke: #000000; stroke-width: 0.8"/>
      </g>
     </g>
     <g id="text_14">
      <!-- 110 -->
      <g transform="translate(19.910313 66.381685) scale(0.09 -0.09)">
       <use xlink:href="#DejaVuSans-31"/>
       <use xlink:href="#DejaVuSans-31" transform="translate(63.623047 0)"/>
       <use xlink:href="#DejaVuSans-30" transform="translate(127.246094 0)"/>
      </g>
     </g>
    </g>
    <g id="text_15">
     <!-- Price -->
     <g transform="translate(14.038594 192.417891) rotate(-90) scale(0.09 -0.09)">
      <defs>
       <path id="DejaVuSans-50" d="M 1259 4147 
L 1259 2394 
L 2053 2394 
Q 2494 2394 2734 2622 
Q 2975 2850 2975 3272 
Q 2975 3691 2734 3919 
Q 2494 4147 2053 4147 
L 1259 4147 
z
M 628 4666 
L 2053 4666 
Q 2838 4666 3239 4311 
Q 3641 3956 3641 3272 
Q 3641 2581 3239 2228 
Q 2838 1875 2053 1875 
L 1259 1875 
L 1259 0 
L 628 0 
L 628 4666 
z
" transform="scale(0.015625)"/>
       <path id="DejaVuSans-72" d="M 2631 2963 
Q 2534 3019 2420 3045 
Q 2306 3072 2169 3072 
Q 1681 3072 1420 2755 
Q 1159 2438 1159 1844 
L 1159 0 
L 581 0 
L 581 3500 
L 1159 3500 
L 1159 2956 
Q 1341 3275 1631 3429 
Q 1922 3584 2338 3584 
Q 2397 3584 2469 3576 
Q 2541 3569 2628 3553 
L 2631 2963 
z
" transform="scale(0.015625)"/>
       <path id="DejaVuSans-69" d="M 603 3500 
L 1178 3500 
L 1178 0 
L 603 0 
L 603 3500 
z
M 603 4863 
L 1178 4863 
L 1178 4134 
L 603 4134 
L 603 4863 
z
" transform="scale(0.015625)"/>
       <path id="DejaVuSans-63" d="M 3122 3366 
L 3122 2828 
Q 2878 2963 2633 3030 
Q 2388 3097 2138 3097 
Q 1578 3097 1268 2742 
Q 959 2388 959 1747 
Q 959 1106 1268 751 
Q 1578 397 2138 397 
Q 2388 397 2633 464 
Q 2878 531 3122 666 
L 3122 134 
Q 2881 22 2623 -34 
Q 2366 -91 2075 -91 
Q 1284 -91 818 406 
Q 353 903 353 1747 
Q 353 2603 823 3093 
Q 1294 3584 2113 3584 
Q 2378 3584 2631 3529 
Q 2884 3475 3122 3366 
z
" transform="scale(0.015625)"/>
       <path id="DejaVuSans-65" d="M 3597 1894 
L 3597 1613 
L 953 1613 
Q 991 1019 1311 708 
Q 1631 397 2203 397 
Q 2534 397 2845 478 
Q 3156 559 3463 722 
L 3463 178 
Q 3153 47 2828 -22 
Q 2503 -91 2169 -91 
Q 1331 -91 842 396 
Q 353 884 353 1716 
Q 353 2575 817 3079 
Q 1281 3584 2069 3584 
Q 2775 3584 3186 3129 
Q 3597 2675 3597 1894 
z
M 3022 2063 
Q 3016 2534 2758 2815 
Q 2500 3097 2075 3097 
Q 1594 3097 1305 2825 
Q 1016 2553 972 2059 
L 3022 2063 
z
" transform="scale(0.015625)"/>
      </defs>
      <use xlink:href="#DejaVuSans-50"/>
      <use xlink:href="#DejaVuSans-72" transform="translate(58.552734 0)"/>
      <use xlink:href="#DejaVuSans-69" transform="translate(99.666016 0)"/>
      <use xlink:href="#DejaVuSans-63" transform="translate(127.449219 0)"/>
      <use xlink:href="#DejaVuSans-65" transform="translate(182.429688 0)"/>
     </g>
    </g>
   </g>
   <g id="PolyCollection_1">
    <path d="M 92.401063 175.798209 
L 92.401063 190.842985 
L 116.737063 190.842985 
L 116.737063 175.798209 
z
" clip-path="url(#pe63dbf1533)" style="fill: #ef5350; fill-opacity: 0.9; stroke: #ef5350"/>
    <path d="M 129.841063 190.842985 
L 129.841063 228.454925 
L 154.177063 228.454925 
L 154.177063 190.842985 
z
" clip-path="url(#pe63dbf1533)" style="fill: #ef5350; fill-opacity: 0.9; stroke: #ef5350"/>
    <path d="M 167.281063 228.454925 
L 167.281063 273.589254 
L 191.617063 273.589254 
L 191.617063 228.454925 
z
" clip-path="url(#pe63dbf1533)" style="fill: #ef5350; fill-opacity: 0.9; stroke: #ef5350"/>
    <path d="M 204.721063 273.589254 
L 204.721063 303.678806 
L 229.057063 303.678806 
L 229.057063 273.589254 
z
" clip-path="url(#pe63dbf1533)" style="fill: #ef5350; fill-opacity: 0.9; stroke: #ef5350"/>
    <path d="M 242.161063 303.678806 
L 242.161063 299.917612 
L 266.497063 299.917612 
L 266.497063 303.678806 
z
" clip-path="url(#pe63dbf1533)" style="fill: #26a69a; fill-opacity: 0.9; stroke: #26a69a"/>
    <path d="M 279.601063 303.678806 
L 279.601063 273.589254 
L 303.937063 273.589254 
L 303.937063 303.678806 
z
" clip-path="url(#pe63dbf1533)" style="fill: #26a69a; fill-opacity: 0.9; stroke: #26a69a"/>
    <path d="M 317.041063 273.589254 
L 317.041063 235.977313 
L 341.377063 235.977313 
L 341.377063 273.589254 
z
" clip-path="url(#pe63dbf1533)" style="fill: #26a69a; fill-opacity: 0.9; stroke: #26a69a"/>
    <path d="M 354.481063 235.977313 
L 354.481063 198.365373 
L 378.817063 198.365373 
L 378.817063 235.977313 
z
" clip-path="url(#pe63dbf1533)" style="fill: #26a69a; fill-opacity: 0.9; stroke: #26a69a"/>
    <path d="M 391.921063 198.365373 
L 391.921063 183.320597 
L 416.257063 183.320597 
L 416.257063 198.365373 
z
" clip-path="url(#pe63dbf1533)" style="fill: #26a69a; fill-opacity: 0.9; stroke: #26a69a"/>
    <path d="M 429.361063 183.320597 
L 429.361063 205.887761 
L 453.697063 205.887761 
L 453.697063 183.320597 
z
" clip-path="url(#pe63dbf1533)" style="fill: #ef5350; fill-opacity: 0.9; stroke: #ef5350"/>
    <path d="M 466.801063 205.887761 
L 466.801063 198.365373 
L 491.137063 198.365373 
L 491.137063 205.887761 
z
" clip-path="url(#pe63dbf1533)" style="fill: #26a69a; fill-opacity: 0.9; stroke: #26a69a"/>
    <path d="M 504.241063 198.365373 
L 504.241063 160.753433 
L 528.577063 160.753433 
L 528.577063 198.365373 
z
" clip-path="url(#pe63dbf1533)" style="fill: #26a69a; fill-opacity: 0.9; stroke: #26a69a"/>
    <path d="M 541.681063 160.753433 
L 541.681063 123.141493 
L 566.017063 123.141493 
L 566.017063 160.753433 
z
" clip-path="url(#pe63dbf1533)" style="fill: #26a69a; fill-opacity: 0.9; stroke: #26a69a"/>
   </g>
   <g id="LineCollection_1">
    <path d="M 104.569063 194.604179 
L 104.569063 190.842985 
" clip-path="url(#pe63dbf1533)" style="fill: none; stroke: #ef5350"/>
    <path d="M 142.009063 232.216119 
L 142.009063 228.454925 
" clip-path="url(#pe63dbf1533)" style="fill: none; stroke: #ef5350"/>
    <path d="M 179.449063 277.350448 
L 179.449063 273.589254 
" clip-path="url(#pe63dbf1533)" style="fill: none; stroke: #ef5350"/>
    <path d="M 216.889063 307.44 
L 216.889063 303.678806 
" clip-path="url(#pe63dbf1533)" style="fill: none; stroke: #ef5350"/>
    <path d="M 254.329063 307.44 
L 254.329063 303.678806 
" clip-path="url(#pe63dbf1533)" style="fill: none; stroke: #26a69a"/>
    <path d="M 291.769063 307.44 
L 291.769063 303.678806 
" clip-path="url(#pe63dbf1533)" style="fill: none; stroke: #26a69a"/>
    <path d="M 329.209063 277.350448 
L 329.209063 273.589254 
" clip-path="url(#pe63dbf1533)" style="fill: none; stroke: #26a69a"/>
    <path d="M 366.649063 239.738507 
L 366.649063 235.977313 
" clip-path="url(#pe63dbf1533)" style="fill: none; stroke: #26a69a"/>
    <path d="M 404.089063 202.126567 
L 404.089063 198.365373 
" clip-path="url(#pe63dbf1533)" style="fill: none; stroke: #26a69a"/>
    <path d="M 441.529063 209.648955 
L 441.529063 205.887761 
" clip-path="url(#pe63dbf1533)" style="fill: none; stroke: #ef5350"/>
    <path d="M 478.969063 213.410149 
L 478.969063 205.887761 
" clip-path="url(#pe63dbf1533)" style="fill: none; stroke: #26a69a"/>
    <path d="M 516.409063 202.126567 
L 516.409063 198.365373 
" clip-path="url(#pe63dbf1533)" style="fill: none; stroke: #26a69a"/>
    <path d="M 553.849063 164.514627 
L 553.849063 160.753433 
" clip-path="url(#pe63dbf1533)" style="fill: none; stroke: #26a69a"/>
    <path d="M 104.569063 172.037015 
L 104.569063 175.798209 
" clip-path="url(#pe63dbf1533)" style="fill: none; stroke: #ef5350"/>
    <path d="M 142.009063 187.081791 
L 142.009063 190.842985 
" clip-path="url(#pe63dbf1533)" style="fill: none; stroke: #ef5350"/>
    <path d="M 179.449063 224.693731 
L 179.449063 228.454925 
" clip-path="url(#pe63dbf1533)" style="fill: none; stroke: #ef5350"/>
    <path d="M 216.889063 269.82806 
L 216.889063 273.589254 
" clip-path="url(#pe63dbf1533)" style="fill: none; stroke: #ef5350"/>
    <path d="M 254.329063 296.156418 
L 254.329063 299.917612 
" clip-path="url(#pe63dbf1533)" style="fill: none; stroke: #26a69a"/>
    <path d="M 291.769063 269.82806 
L 291.769063 273.589254 
" clip-path="url(#pe63dbf1533)" style="fill: none; stroke: #26a69a"/>
    <path d="M 329.209063 232.216119 
L 329.209063 235.977313 
" clip-path="url(#pe63dbf1533)" style="fill: none; stroke: #26a69a"/>
    <path d="M 366.649063 194.604179 
L 366.649063 198.365373 
" clip-path="url(#pe63dbf1533)" style="fill: none; stroke: #26a69a"/>
    <path d="M 404.089063 179.559403 
L 404.089063 183.320597 
" clip-path="url(#pe63dbf1533)" style="fill: none; stroke: #26a69a"/>
    <path d="M 441.529063 179.559403 
L 441.529063 183.320597 
" clip-path="url(#pe63dbf1533)" style="fill: none; stroke: #ef5350"/>
    <path d="M 478.969063 194.604179 
L 478.969063 198.365373 
" clip-path="url(#pe63dbf1533)" style="fill: none; stroke: #26a69a"/>
    <path d="M 516.409063 156.992239 
L 516.409063 160.753433 
" clip-path="url(#pe63dbf1533)" style="fill: none; stroke: #26a69a"/>
    <path d="M 553.849063 119.380299 
L 553.849063 123.141493 
" clip-path="url(#pe63dbf1533)" style="fill: none; stroke: #26a69a"/>
   </g>
   <g id="line2d_29">
    <path d="M 44.089063 179.559403 
L 614.329063 179.559403 
" clip-path="url(#pe63dbf1533)" style="fill: none; stroke-dasharray: 4.44,1.92; stroke-dashoffset: 0; stroke: #ff0000; stroke-opacity: 0.8; stroke-width: 1.2"/>
   </g>
   <g id="line2d_30">
    <path d="M 44.089063 307.44 
L 614.329063 307.44 
" clip-path="url(#pe63dbf1533)" style="fill: none; stroke-dasharray: 4.44,1.92; stroke-dashoffset: 0; stroke: #0000ff; stroke-opacity: 0.8; stroke-width: 1.2"/>
   </g>
   <g id="line2d_31">
    <path d="M 44.089063 55.44 
L 614.329063 55.44 
" clip-path="url(#pe63dbf1533)" style="fill: none; stroke-dasharray: 4.44,1.92; stroke-dashoffset: 0; stroke: #008000; stroke-opacity: 0.8; stroke-width: 1.2"/>
   </g>
   <g id="patch_3">
    <path d="M 44.089063 320.04 
L 44.089063 42.84 
" style="fill: none; stroke: #000000; stroke-width: 0.8; stroke-linejoin: miter; stroke-linecap: square"/>
   </g>
   <g id="patch_4">
    <path d="M 614.329063 320.04 
L 614.329063 42.84 
" style="fill: none; stroke: #000000; stroke-width: 0.8; stroke-linejoin: miter; stroke-linecap: square"/>
   </g>
   <g id="patch_5">
    <path d="M 44.089063 320.04 
L 614.329063 320.04 
" style="fill: none; stroke: #000000; stroke-width: 0.8; stroke-linejoin: miter; stroke-linecap: square"/>
   </g>
   <g id="patch_6">
    <path d="M 44.089063 42.84 
L 614.329063 42.84 
" style="fill: none; stroke: #000000; stroke-width: 0.8; stroke-linejoin: miter; stroke-linecap: square"/>
   </g>
   <g id="legend_1">
    <g id="patch_7">
     <path d="M 49.689063 85.1075 
L 136.515313 85.1075 
Q 138.115313 85.1075 138.115313 83.5075 
L 138.115313 48.44 
Q 138.115313 46.84 136.515313 46.84 
L 49.689063 46.84 
Q 48.089063 46.84 48.089063 48.44 
L 48.089063 83.5075 
Q 48.089063 85.1075 49.689063 85.1075 
z
" style="fill: #ffffff; opacity: 0.9; stroke: #cccccc; stroke-linejoin: miter"/>
    </g>
    <g id="line2d_32">
     <path d="M 51.289063 53.63875 
L 59.289063 53.63875 
L 67.289063 53.63875 
" style="fill: none; stroke-dasharray: 4.44,1.92; stroke-dashoffset: 0; stroke: #ff0000; stroke-opacity: 0.8; stroke-width: 1.2"/>
    </g>
    <g id="text_16">
     <!-- Rim (vành cup) -->
     <g transform="translate(73.689063 56.43875) scale(0.08 -0.08)">
      <defs>
       <path id="DejaVuSans-52" d="M 2841 2188 
Q 3044 2119 3236 1894 
Q 3428 1669 3622 1275 
L 4263 0 
L 3584 0 
L 2988 1197 
Q 2756 1666 2539 1819 
Q 2322 1972 1947 1972 
L 1259 1972 
L 1259 0 
L 628 0 
L 628 4666 
L 2053 4666 
Q 2853 4666 3247 4331 
Q 3641 3997 3641 3322 
Q 3641 2881 3436 2590 
Q 3231 2300 2841 2188 
z
M 1259 4147 
L 1259 2491 
L 2053 2491 
Q 2509 2491 2742 2702 
Q 2975 2913 2975 3322 
Q 2975 3731 2742 3939 
Q 2509 4147 2053 4147 
L 1259 4147 
z
" transform="scale(0.015625)"/>
       <path id="DejaVuSans-6d" d="M 3328 2828 
Q 3544 3216 3844 3400 
Q 4144 3584 4550 3584 
Q 5097 3584 5394 3201 
Q 5691 2819 5691 2113 
L 5691 0 
L 5113 0 
L 5113 2094 
Q 5113 2597 4934 2840 
Q 4756 3084 4391 3084 
Q 3944 3084 3684 2787 
Q 3425 2491 3425 1978 
L 3425 0 
L 2847 0 
L 2847 2094 
Q 2847 2600 2669 2842 
Q 2491 3084 2119 3084 
Q 1678 3084 1418 2786 
Q 1159 2488 1159 1978 
L 1159 0 
L 581 0 
L 581 3500 
L 1159 3500 
L 1159 2956 
Q 1356 3278 1631 3431 
Q 1906 3584 2284 3584 
Q 2666 3584 2933 3390 
Q 3200 3197 3328 2828 
z
" transform="scale(0.015625)"/>
       <path id="DejaVuSans-28" d="M 1984 4856 
Q 1566 4138 1362 3434 
Q 1159 2731 1159 2009 
Q 1159 1288 1364 580 
Q 1569 -128 1984 -844 
L 1484 -844 
Q 1016 -109 783 600 
Q 550 1309 550 2009 
Q 550 2706 781 3412 
Q 1013 4119 1484 4856 
L 1984 4856 
z
" transform="scale(0.015625)"/>
       <path id="DejaVuSans-76" d="M 191 3500 
L 800 3500 
L 1894 563 
L 2988 3500 
L 3597 3500 
L 2284 0 
L 1503 0 
L 191 3500 
z
" transform="scale(0.015625)"/>
       <path id="DejaVuSans-e0" d="M 2194 1759 
Q 1497 1759 1228 1600 
Q 959 1441 959 1056 
Q 959 750 1161 570 
Q 1363 391 1709 391 
Q 2188 391 2477 730 
Q 2766 1069 2766 1631 
L 2766 1759 
L 2194 1759 
z
M 3341 1997 
L 3341 0 
L 2766 0 
L 2766 531 
Q 2569 213 2275 61 
Q 1981 -91 1556 -91 
Q 1019 -91 701 211 
Q 384 513 384 1019 
Q 384 1609 779 1909 
Q 1175 2209 1959 2209 
L 2766 2209 
L 2766 2266 
Q 2766 2663 2505 2880 
Q 2244 3097 1772 3097 
Q 1472 3097 1187 3025 
Q 903 2953 641 2809 
L 641 3341 
Q 956 3463 1253 3523 
Q 1550 3584 1831 3584 
Q 2591 3584 2966 3190 
Q 3341 2797 3341 1997 
z
M 1403 5119 
L 2284 3950 
L 1806 3950 
L 787 5119 
L 1403 5119 
z
" transform="scale(0.015625)"/>
       <path id="DejaVuSans-68" d="M 3513 2113 
L 3513 0 
L 2938 0 
L 2938 2094 
Q 2938 2591 2744 2837 
Q 2550 3084 2163 3084 
Q 1697 3084 1428 2787 
Q 1159 2491 1159 1978 
L 1159 0 
L 581 0 
L 581 4863 
L 1159 4863 
L 1159 2956 
Q 1366 3272 1645 3428 
Q 1925 3584 2291 3584 
Q 2894 3584 3203 3211 
Q 3513 2838 3513 2113 
z
" transform="scale(0.015625)"/>
       <path id="DejaVuSans-75" d="M 544 1381 
L 544 3500 
L 1119 3500 
L 1119 1403 
Q 1119 906 1312 657 
Q 1506 409 1894 409 
Q 2359 409 2629 706 
Q 2900 1003 2900 1516 
L 2900 3500 
L 3475 3500 
L 3475 0 
L 2900 0 
L 2900 538 
Q 2691 219 2414 64 
Q 2138 -91 1772 -91 
Q 1169 -91 856 284 
Q 544 659 544 1381 
z
M 1991 3584 
L 1991 3584 
z
" transform="scale(0.015625)"/>
       <path id="DejaVuSans-70" d="M 1159 525 
L 1159 -1331 
L 581 -1331 
L 581 3500 
L 1159 3500 
L 1159 2969 
Q 1341 3281 1617 3432 
Q 1894 3584 2278 3584 
Q 2916 3584 3314 3078 
Q 3713 2572 3713 1747 
Q 3713 922 3314 415 
Q 2916 -91 2278 -91 
Q 1894 -91 1617 61 
Q 1341 213 1159 525 
z
M 3116 1747 
Q 3116 2381 2855 2742 
Q 2594 3103 2138 3103 
Q 1681 3103 1420 2742 
Q 1159 2381 1159 1747 
Q 1159 1113 1420 752 
Q 1681 391 2138 391 
Q 2594 391 2855 752 
Q 3116 1113 3116 1747 
z
" transform="scale(0.015625)"/>
       <path id="DejaVuSans-29" d="M 513 4856 
L 1013 4856 
Q 1481 4119 1714 3412 
Q 1947 2706 1947 2009 
Q 1947 1309 1714 600 
Q 1481 -109 1013 -844 
L 513 -844 
Q 928 -128 1133 580 
Q 1338 1288 1338 2009 
Q 1338 2731 1133 3434 
Q 928 4138 513 4856 
z
" transform="scale(0.015625)"/>
      </defs>
      <use xlink:href="#DejaVuSans-52"/>
      <use xlink:href="#DejaVuSans-69" transform="translate(69.482422 0)"/>
      <use xlink:href="#DejaVuSans-6d" transform="translate(97.265625 0)"/>
      <use xlink:href="#DejaVuSans-20" transform="translate(194.677734 0)"/>
      <use xlink:href="#DejaVuSans-28" transform="translate(226.464844 0)"/>
      <use xlink:href="#DejaVuSans-76" transform="translate(265.478516 0)"/>
      <use xlink:href="#DejaVuSans-e0" transform="translate(324.658203 0)"/>
      <use xlink:href="#DejaVuSans-6e" transform="translate(385.9375 0)"/>
      <use xlink:href="#DejaVuSans-68" transform="translate(449.316406 0)"/>
      <use xlink:href="#DejaVuSans-20" transform="translate(512.695312 0)"/>
      <use xlink:href="#DejaVuSans-63" transform="translate(544.482422 0)"/>
      <use xlink:href="#DejaVuSans-75" transform="translate(599.462891 0)"/>
      <use xlink:href="#DejaVuSans-70" transform="translate(662.841797 0)"/>
      <use xlink:href="#DejaVuSans-29" transform="translate(726.318359 0)"/>
     </g>
    </g>
    <g id="line2d_33">
     <path d="M 51.289063 65.70125 
L 59.289063 65.70125 
L 67.289063 65.70125 
" style="fill: none; stroke-dasharray: 4.44,1.92; stroke-dashoffset: 0; stroke: #0000ff; stroke-opacity: 0.8; stroke-width: 1.2"/>
    </g>
    <g id="text_17">
     <!-- Đáy cup -->
     <g transform="translate(73.689063 68.50125) scale(0.08 -0.08)">
      <defs>
       <path id="DejaVuSans-110" d="M 659 4666 
L 1959 4666 
Q 3313 4666 3947 4102 
Q 4581 3538 4581 2338 
Q 4581 1131 3945 565 
Q 3309 0 1959 0 
L 659 0 
L 659 2188 
L 31 2188 
L 31 2638 
L 659 2638 
L 659 4666 
z
M 1294 4147 
L 1294 2638 
L 2344 2638 
L 2344 2188 
L 1294 2188 
L 1294 519 
L 2053 519 
Q 3019 519 3467 956 
Q 3916 1394 3916 2338 
Q 3916 3275 3467 3711 
Q 3019 4147 2053 4147 
L 1294 4147 
z
" transform="scale(0.015625)"/>
       <path id="DejaVuSans-e1" d="M 2194 1759 
Q 1497 1759 1228 1600 
Q 959 1441 959 1056 
Q 959 750 1161 570 
Q 1363 391 1709 391 
Q 2188 391 2477 730 
Q 2766 1069 2766 1631 
L 2766 1759 
L 2194 1759 
z
M 3341 1997 
L 3341 0 
L 2766 0 
L 2766 531 
Q 2569 213 2275 61 
Q 1981 -91 1556 -91 
Q 1019 -91 701 211 
Q 384 513 384 1019 
Q 384 1609 779 1909 
Q 1175 2209 1959 2209 
L 2766 2209 
L 2766 2266 
Q 2766 2663 2505 2880 
Q 2244 3097 1772 3097 
Q 1472 3097 1187 3025 
Q 903 2953 641 2809 
L 641 3341 
Q 956 3463 1253 3523 
Q 1550 3584 1831 3584 
Q 2591 3584 2966 3190 
Q 3341 2797 3341 1997 
z
M 2290 5119 
L 2912 5119 
L 1894 3944 
L 1415 3944 
L 2290 5119 
z
" transform="scale(0.015625)"/>
       <path id="DejaVuSans-79" d="M 2059 -325 
Q 1816 -950 1584 -1140 
Q 1353 -1331 966 -1331 
L 506 -1331 
L 506 -850 
L 844 -850 
Q 1081 -850 1212 -737 
Q 1344 -625 1503 -206 
L 1606 56 
L 191 3500 
L 800 3500 
L 1894 763 
L 2988 3500 
L 3597 3500 
L 2059 -325 
z
" transform="scale(0.015625)"/>
      </defs>
      <use xlink:href="#DejaVuSans-110"/>
      <use xlink:href="#DejaVuSans-e1" transform="translate(77.490234 0)"/>
      <use xlink:href="#DejaVuSans-79" transform="translate(138.769531 0)"/>
      <use xlink:href="#DejaVuSans-20" transform="translate(197.949219 0)"/>
      <use xlink:href="#DejaVuSans-63" transform="translate(229.736328 0)"/>
      <use xlink:href="#DejaVuSans-75" transform="translate(284.716797 0)"/>
      <use xlink:href="#DejaVuSans-70" transform="translate(348.095703 0)"/>
     </g>
    </g>
    <g id="line2d_34">
     <path d="M 51.289063 77.44375 
L 59.289063 77.44375 
L 67.289063 77.44375 
" style="fill: none; stroke-dasharray: 4.44,1.92; stroke-dashoffset: 0; stroke: #008000; stroke-opacity: 0.8; stroke-width: 1.2"/>
    </g>
    <g id="text_18">
     <!-- Target -->
     <g transform="translate(73.689063 80.24375) scale(0.08 -0.08)">
      <defs>
       <path id="DejaVuSans-54" d="M -19 4666 
L 3928 4666 
L 3928 4134 
L 2272 4134 
L 2272 0 
L 1638 0 
L 1638 4134 
L -19 4134 
L -19 4666 
z
" transform="scale(0.015625)"/>
       <path id="DejaVuSans-67" d="M 2906 1791 
Q 2906 2416 2648 2759 
Q 2391 3103 1925 3103 
Q 1463 3103 1205 2759 
Q 947 2416 947 1791 
Q 947 1169 1205 825 
Q 1463 481 1925 481 
Q 2391 481 2648 825 
Q 2906 1169 2906 1791 
z
M 3481 434 
Q 3481 -459 3084 -895 
Q 2688 -1331 1869 -1331 
Q 1566 -1331 1297 -1286 
Q 1028 -1241 775 -1147 
L 775 -588 
Q 1028 -725 1275 -790 
Q 1522 -856 1778 -856 
Q 2344 -856 2625 -561 
Q 2906 -266 2906 331 
L 2906 616 
Q 2728 306 2450 153 
Q 2172 0 1784 0 
Q 1141 0 747 490 
Q 353 981 353 1791 
Q 353 2603 747 3093 
Q 1141 3584 1784 3584 
Q 2172 3584 2450 3431 
Q 2728 3278 2906 2969 
L 2906 3500 
L 3481 3500 
L 3481 434 
z
" transform="scale(0.015625)"/>
       <path id="DejaVuSans-74" d="M 1172 4494 
L 1172 3500 
L 2356 3500 
L 2356 3053 
L 1172 3053 
L 1172 1153 
Q 1172 725 1289 603 
Q 1406 481 1766 481 
L 2356 481 
L 2356 0 
L 1766 0 
Q 1100 0 847 248 
Q 594 497 594 1153 
L 594 3053 
L 172 3053 
L 172 3500 
L 594 3500 
L 594 4494 
L 1172 4494 
z
" transform="scale(0.015625)"/>
      </defs>
      <use xlink:href="#DejaVuSans-54"/>
      <use xlink:href="#DejaVuSans-61" transform="translate(44.583984 0)"/>
      <use xlink:href="#DejaVuSans-72" transform="translate(105.863281 0)"/>
      <use xlink:href="#DejaVuSans-67" transform="translate(145.226562 0)"/>
      <use xlink:href="#DejaVuSans-65" transform="translate(208.703125 0)"/>
      <use xlink:href="#DejaVuSans-74" transform="translate(270.226562 0)"/>
     </g>
    </g>
   </g>
  </g>
  <g id="text_19">
   <!-- Cup and Handle (Tăng) -->
   <g transform="translate(213.239297 17.394844) scale(0.13 -0.13)">
    <defs>
     <path id="DejaVuSans-Bold-43" d="M 4288 256 
Q 3956 84 3597 -3 
Q 3238 -91 2847 -91 
Q 1681 -91 1000 561 
Q 319 1213 319 2328 
Q 319 3447 1000 4098 
Q 1681 4750 2847 4750 
Q 3238 4750 3597 4662 
Q 3956 4575 4288 4403 
L 4288 3438 
Q 3953 3666 3628 3772 
Q 3303 3878 2944 3878 
Q 2300 3878 1931 3465 
Q 1563 3053 1563 2328 
Q 1563 1606 1931 1193 
Q 2300 781 2944 781 
Q 3303 781 3628 887 
Q 3953 994 4288 1222 
L 4288 256 
z
" transform="scale(0.015625)"/>
     <path id="DejaVuSans-Bold-75" d="M 500 1363 
L 500 3500 
L 1625 3500 
L 1625 3150 
Q 1625 2866 1622 2436 
Q 1619 2006 1619 1863 
Q 1619 1441 1641 1255 
Q 1663 1069 1716 984 
Q 1784 875 1895 815 
Q 2006 756 2150 756 
Q 2500 756 2700 1025 
Q 2900 1294 2900 1772 
L 2900 3500 
L 4019 3500 
L 4019 0 
L 2900 0 
L 2900 506 
Q 2647 200 2364 54 
Q 2081 -91 1741 -91 
Q 1134 -91 817 281 
Q 500 653 500 1363 
z
" transform="scale(0.015625)"/>
     <path id="DejaVuSans-Bold-70" d="M 1656 506 
L 1656 -1331 
L 538 -1331 
L 538 3500 
L 1656 3500 
L 1656 2988 
Q 1888 3294 2169 3439 
Q 2450 3584 2816 3584 
Q 3463 3584 3878 3070 
Q 4294 2556 4294 1747 
Q 4294 938 3878 423 
Q 3463 -91 2816 -91 
Q 2450 -91 2169 54 
Q 1888 200 1656 506 
z
M 2400 2772 
Q 2041 2772 1848 2508 
Q 1656 2244 1656 1747 
Q 1656 1250 1848 986 
Q 2041 722 2400 722 
Q 2759 722 2948 984 
Q 3138 1247 3138 1747 
Q 3138 2247 2948 2509 
Q 2759 2772 2400 2772 
z
" transform="scale(0.015625)"/>
     <path id="DejaVuSans-Bold-20" transform="scale(0.015625)"/>
     <path id="DejaVuSans-Bold-61" d="M 2106 1575 
Q 1756 1575 1579 1456 
Q 1403 1338 1403 1106 
Q 1403 894 1545 773 
Q 1688 653 1941 653 
Q 2256 653 2472 879 
Q 2688 1106 2688 1447 
L 2688 1575 
L 2106 1575 
z
M 3816 1997 
L 3816 0 
L 2688 0 
L 2688 519 
Q 2463 200 2181 54 
Q 1900 -91 1497 -91 
Q 953 -91 614 226 
Q 275 544 275 1050 
Q 275 1666 698 1953 
Q 1122 2241 2028 2241 
L 2688 2241 
L 2688 2328 
Q 2688 2594 2478 2717 
Q 2269 2841 1825 2841 
Q 1466 2841 1156 2769 
Q 847 2697 581 2553 
L 581 3406 
Q 941 3494 1303 3539 
Q 1666 3584 2028 3584 
Q 2975 3584 3395 3211 
Q 3816 2838 3816 1997 
z
" transform="scale(0.015625)"/>
     <path id="DejaVuSans-Bold-6e" d="M 4056 2131 
L 4056 0 
L 2931 0 
L 2931 347 
L 2931 1631 
Q 2931 2084 2911 2256 
Q 2891 2428 2841 2509 
Q 2775 2619 2662 2680 
Q 2550 2741 2406 2741 
Q 2056 2741 1856 2470 
Q 1656 2200 1656 1722 
L 1656 0 
L 538 0 
L 538 3500 
L 1656 3500 
L 1656 2988 
Q 1909 3294 2193 3439 
Q 2478 3584 2822 3584 
Q 3428 3584 3742 3212 
Q 4056 2841 4056 2131 
z
" transform="scale(0.015625)"/>
     <path id="DejaVuSans-Bold-64" d="M 2919 2988 
L 2919 4863 
L 4044 4863 
L 4044 0 
L 2919 0 
L 2919 506 
Q 2688 197 2409 53 
Q 2131 -91 1766 -91 
Q 1119 -91 703 423 
Q 288 938 288 1747 
Q 288 2556 703 3070 
Q 1119 3584 1766 3584 
Q 2128 3584 2408 3439 
Q 2688 3294 2919 2988 
z
M 2181 722 
Q 2541 722 2730 984 
Q 2919 1247 2919 1747 
Q 2919 2247 2730 2509 
Q 2541 2772 2181 2772 
Q 1825 2772 1636 2509 
Q 1447 2247 1447 1747 
Q 1447 1247 1636 984 
Q 1825 722 2181 722 
z
" transform="scale(0.015625)"/>
     <path id="DejaVuSans-Bold-48" d="M 588 4666 
L 1791 4666 
L 1791 2888 
L 3566 2888 
L 3566 4666 
L 4769 4666 
L 4769 0 
L 3566 0 
L 3566 1978 
L 1791 1978 
L 1791 0 
L 588 0 
L 588 4666 
z
" transform="scale(0.015625)"/>
     <path id="DejaVuSans-Bold-6c" d="M 538 4863 
L 1656 4863 
L 1656 0 
L 538 0 
L 538 4863 
z
" transform="scale(0.015625)"/>
     <path id="DejaVuSans-Bold-65" d="M 4031 1759 
L 4031 1441 
L 1416 1441 
Q 1456 1047 1700 850 
Q 1944 653 2381 653 
Q 2734 653 3104 758 
Q 3475 863 3866 1075 
L 3866 213 
Q 3469 63 3072 -14 
Q 2675 -91 2278 -91 
Q 1328 -91 801 392 
Q 275 875 275 1747 
Q 275 2603 792 3093 
Q 1309 3584 2216 3584 
Q 3041 3584 3536 3087 
Q 4031 2591 4031 1759 
z
M 2881 2131 
Q 2881 2450 2695 2645 
Q 2509 2841 2209 2841 
Q 1884 2841 1681 2658 
Q 1478 2475 1428 2131 
L 2881 2131 
z
" transform="scale(0.015625)"/>
     <path id="DejaVuSans-Bold-28" d="M 2413 -844 
L 1484 -844 
Q 1006 -72 778 623 
Q 550 1319 550 2003 
Q 550 2688 779 3389 
Q 1009 4091 1484 4856 
L 2413 4856 
Q 2013 4116 1813 3408 
Q 1613 2700 1613 2009 
Q 1613 1319 1811 609 
Q 2009 -100 2413 -844 
z
" transform="scale(0.015625)"/>
     <path id="DejaVuSans-Bold-54" d="M 31 4666 
L 4331 4666 
L 4331 3756 
L 2784 3756 
L 2784 0 
L 1581 0 
L 1581 3756 
L 31 3756 
L 31 4666 
z
" transform="scale(0.015625)"/>
     <path id="DejaVuSans-Bold-103" d="M 1230 5019 
L 1677 5019 
Q 1711 4800 1866 4684 
Q 2021 4569 2280 4569 
Q 2539 4569 2694 4684 
Q 2849 4800 2883 5019 
L 3330 5019 
Q 3311 4569 3039 4330 
Q 2768 4091 2280 4091 
Q 1793 4091 1521 4330 
Q 1249 4569 1230 5019 
z
M 2106 1575 
Q 1756 1575 1579 1456 
Q 1403 1338 1403 1106 
Q 1403 894 1545 773 
Q 1688 653 1941 653 
Q 2256 653 2472 879 
Q 2688 1106 2688 1447 
L 2688 1575 
L 2106 1575 
z
M 3816 1997 
L 3816 0 
L 2688 0 
L 2688 519 
Q 2463 200 2181 54 
Q 1900 -91 1497 -91 
Q 953 -91 614 226 
Q 275 544 275 1050 
Q 275 1666 698 1953 
Q 1122 2241 2028 2241 
L 2688 2241 
L 2688 2328 
Q 2688 2594 2478 2717 
Q 2269 2841 1825 2841 
Q 1466 2841 1156 2769 
Q 847 2697 581 2553 
L 581 3406 
Q 941 3494 1303 3539 
Q 1666 3584 2028 3584 
Q 2975 3584 3395 3211 
Q 3816 2838 3816 1997 
z
" transform="scale(0.015625)"/>
     <path id="DejaVuSans-Bold-67" d="M 2919 594 
Q 2688 288 2409 144 
Q 2131 0 1766 0 
Q 1125 0 706 504 
Q 288 1009 288 1791 
Q 288 2575 706 3076 
Q 1125 3578 1766 3578 
Q 2131 3578 2409 3434 
Q 2688 3291 2919 2981 
L 2919 3500 
L 4044 3500 
L 4044 353 
Q 4044 -491 3511 -936 
Q 2978 -1381 1966 -1381 
Q 1638 -1381 1331 -1331 
Q 1025 -1281 716 -1178 
L 716 -306 
Q 1009 -475 1290 -558 
Q 1572 -641 1856 -641 
Q 2406 -641 2662 -400 
Q 2919 -159 2919 353 
L 2919 594 
z
M 2181 2772 
Q 1834 2772 1640 2515 
Q 1447 2259 1447 1791 
Q 1447 1309 1634 1061 
Q 1822 813 2181 813 
Q 2531 813 2725 1069 
Q 2919 1325 2919 1791 
Q 2919 2259 2725 2515 
Q 2531 2772 2181 2772 
z
" transform="scale(0.015625)"/>
     <path id="DejaVuSans-Bold-29" d="M 513 -844 
Q 913 -100 1113 609 
Q 1313 1319 1313 2009 
Q 1313 2700 1113 3408 
Q 913 4116 513 4856 
L 1441 4856 
Q 1916 4091 2145 3389 
Q 2375 2688 2375 2003 
Q 2375 1319 2147 623 
Q 1919 -72 1441 -844 
L 513 -844 
z
" transform="scale(0.015625)"/>
    </defs>
    <use xlink:href="#DejaVuSans-Bold-43"/>
    <use xlink:href="#DejaVuSans-Bold-75" transform="translate(73.388672 0)"/>
    <use xlink:href="#DejaVuSans-Bold-70" transform="translate(144.580078 0)"/>
    <use xlink:href="#DejaVuSans-Bold-20" transform="translate(216.162109 0)"/>
    <use xlink:href="#DejaVuSans-Bold-61" transform="translate(250.976562 0)"/>
    <use xlink:href="#DejaVuSans-Bold-6e" transform="translate(318.457031 0)"/>
    <use xlink:href="#DejaVuSans-Bold-64" transform="translate(389.648438 0)"/>
    <use xlink:href="#DejaVuSans-Bold-20" transform="translate(461.230469 0)"/>
    <use xlink:href="#DejaVuSans-Bold-48" transform="translate(496.044922 0)"/>
    <use xlink:href="#DejaVuSans-Bold-61" transform="translate(579.736328 0)"/>
    <use xlink:href="#DejaVuSans-Bold-6e" transform="translate(647.216797 0)"/>
    <use xlink:href="#DejaVuSans-Bold-64" transform="translate(718.408203 0)"/>
    <use xlink:href="#DejaVuSans-Bold-6c" transform="translate(789.990234 0)"/>
    <use xlink:href="#DejaVuSans-Bold-65" transform="translate(824.267578 0)"/>
    <use xlink:href="#DejaVuSans-Bold-20" transform="translate(892.089844 0)"/>
    <use xlink:href="#DejaVuSans-Bold-28" transform="translate(926.904297 0)"/>
    <use xlink:href="#DejaVuSans-Bold-54" transform="translate(972.607422 0)"/>
    <use xlink:href="#DejaVuSans-Bold-103" transform="translate(1040.820312 0)"/>
    <use xlink:href="#DejaVuSans-Bold-6e" transform="translate(1108.300781 0)"/>
    <use xlink:href="#DejaVuSans-Bold-67" transform="translate(1179.492188 0)"/>
    <use xlink:href="#DejaVuSans-Bold-29" transform="translate(1251.074219 0)"/>
   </g>
  </g>
  <g id="text_20">
   <!-- Đáy hình chữ U (cup) + điều chỉnh nhỏ tạo handle bên phải -->
   <g style="fill: #555555" transform="translate(178.343437 375.48) scale(0.08 -0.08)">
    <defs>
     <path id="DejaVuSans-Oblique-110" d="M 1113 4666 
L 2472 4666 
Q 3550 4666 4101 4208 
Q 4653 3750 4653 2847 
Q 4653 2253 4442 1701 
Q 4231 1150 3859 769 
Q 3488 381 2919 190 
Q 2350 0 1569 0 
L 206 0 
L 628 2188 
L 0 2188 
L 91 2638 
L 716 2638 
L 1113 4666 
z
M 1644 4147 
L 1350 2638 
L 2400 2638 
L 2309 2188 
L 1259 2188 
L 941 519 
L 1766 519 
Q 2828 519 3408 1128 
Q 3988 1738 3988 2847 
Q 3988 3519 3613 3833 
Q 3238 4147 2438 4147 
L 1644 4147 
z
" transform="scale(0.015625)"/>
     <path id="DejaVuSans-Oblique-e1" d="M 3438 1997 
L 3047 0 
L 2472 0 
L 2578 531 
Q 2325 219 2001 64 
Q 1678 -91 1281 -91 
Q 834 -91 548 182 
Q 263 456 263 884 
Q 263 1497 752 1853 
Q 1241 2209 2100 2209 
L 2900 2209 
L 2931 2363 
Q 2938 2388 2941 2417 
Q 2944 2447 2944 2509 
Q 2944 2788 2717 2942 
Q 2491 3097 2081 3097 
Q 1800 3097 1504 3025 
Q 1209 2953 897 2809 
L 997 3341 
Q 1322 3463 1633 3523 
Q 1944 3584 2234 3584 
Q 2853 3584 3176 3315 
Q 3500 3047 3500 2534 
Q 3500 2431 3484 2292 
Q 3469 2153 3438 1997 
z
M 2816 1759 
L 2241 1759 
Q 1534 1759 1195 1570 
Q 856 1381 856 984 
Q 856 709 1029 553 
Q 1203 397 1509 397 
Q 1978 397 2328 733 
Q 2678 1069 2791 1631 
L 2816 1759 
z
M 3031 5119 
L 3653 5119 
L 2406 3944 
L 1925 3944 
L 3031 5119 
z
" transform="scale(0.015625)"/>
     <path id="DejaVuSans-Oblique-79" d="M 1588 -325 
Q 1188 -997 936 -1164 
Q 684 -1331 294 -1331 
L -159 -1331 
L -63 -850 
L 269 -850 
Q 509 -850 678 -719 
Q 847 -588 1056 -206 
L 1234 128 
L 459 3500 
L 1069 3500 
L 1650 819 
L 3256 3500 
L 3859 3500 
L 1588 -325 
z
" transform="scale(0.015625)"/>
     <path id="DejaVuSans-Oblique-20" transform="scale(0.015625)"/>
     <path id="DejaVuSans-Oblique-68" d="M 3566 2113 
L 3156 0 
L 2578 0 
L 2988 2091 
Q 3016 2238 3031 2350 
Q 3047 2463 3047 2528 
Q 3047 2791 2881 2937 
Q 2716 3084 2419 3084 
Q 1956 3084 1617 2771 
Q 1278 2459 1178 1941 
L 800 0 
L 225 0 
L 1172 4863 
L 1747 4863 
L 1375 2950 
Q 1594 3244 1934 3414 
Q 2275 3584 2650 3584 
Q 3113 3584 3367 3334 
Q 3622 3084 3622 2631 
Q 3622 2519 3608 2391 
Q 3594 2263 3566 2113 
z
" transform="scale(0.015625)"/>
     <path id="DejaVuSans-Oblique-ec" d="M 909 3500 
L 1484 3500 
L 800 0 
L 225 0 
L 909 3500 
z
M 1023 5119 
L 1676 3950 
L 1195 3950 
L 408 5119 
L 1023 5119 
z
" transform="scale(0.015625)"/>
     <path id="DejaVuSans-Oblique-6e" d="M 3566 2113 
L 3156 0 
L 2578 0 
L 2988 2091 
Q 3016 2238 3031 2350 
Q 3047 2463 3047 2528 
Q 3047 2791 2881 2937 
Q 2716 3084 2419 3084 
Q 1956 3084 1622 2776 
Q 1288 2469 1184 1941 
L 800 0 
L 225 0 
L 903 3500 
L 1478 3500 
L 1363 2950 
Q 1603 3253 1940 3418 
Q 2278 3584 2650 3584 
Q 3113 3584 3367 3334 
Q 3622 3084 3622 2631 
Q 3622 2519 3608 2391 
Q 3594 2263 3566 2113 
z
" transform="scale(0.015625)"/>
     <path id="DejaVuSans-Oblique-63" d="M 3431 3366 
L 3316 2797 
Q 3109 2947 2876 3022 
Q 2644 3097 2394 3097 
Q 2119 3097 1870 3000 
Q 1622 2903 1453 2725 
Q 1184 2453 1037 2087 
Q 891 1722 891 1331 
Q 891 859 1127 628 
Q 1363 397 1844 397 
Q 2081 397 2348 469 
Q 2616 541 2906 684 
L 2797 116 
Q 2547 13 2283 -39 
Q 2019 -91 1741 -91 
Q 1044 -91 669 257 
Q 294 606 294 1253 
Q 294 1797 489 2255 
Q 684 2713 1069 3078 
Q 1331 3328 1684 3456 
Q 2038 3584 2456 3584 
Q 2700 3584 2940 3529 
Q 3181 3475 3431 3366 
z
" transform="scale(0.015625)"/>
     <path id="DejaVuSans-Oblique-1eef" d="M 2178 4281 
L 2038 4453 
Q 1997 4503 1947 4534 
Q 1897 4566 1847 4575 
Q 1725 4575 1645 4461 
Q 1566 4347 1513 4091 
L 1122 4091 
Q 1216 4519 1417 4745 
Q 1619 4972 1903 4972 
Q 2019 4972 2119 4923 
Q 2219 4875 2300 4781 
L 2447 4609 
Q 2485 4559 2528 4531 
Q 2572 4503 2631 4488 
Q 2750 4488 2826 4598 
Q 2903 4709 2966 4972 
L 3356 4972 
Q 3266 4544 3064 4317 
Q 2863 4091 2575 4091 
Q 2456 4091 2353 4139 
Q 2250 4188 2178 4281 
z
M 436 1388 
L 846 3500 
L 1424 3500 
L 1014 1409 
Q 983 1256 969 1147 
Q 955 1038 955 966 
Q 955 700 1117 554 
Q 1280 409 1577 409 
Q 2039 409 2376 721 
Q 2714 1034 2817 1563 
L 3202 3500 
L 3777 3500 
L 3099 0 
L 2524 0 
L 2639 550 
Q 2396 244 2060 76 
Q 1724 -91 1346 -91 
Q 886 -91 630 161 
Q 374 413 374 863 
Q 374 956 389 1097 
Q 405 1238 436 1388 
z
M 3271 3136 
L 3343 3508 
Q 3506 3367 3631 3300 
Q 3756 3233 3852 3233 
Q 3996 3233 4083 3319 
Q 4171 3405 4206 3573 
Q 4224 3673 4219 3770 
Q 4215 3867 4187 3964 
L 4602 3964 
Q 4612 3845 4607 3739 
Q 4602 3633 4584 3539 
Q 4509 3158 4338 2978 
Q 4168 2798 3877 2798 
Q 3727 2798 3579 2881 
Q 3431 2964 3271 3136 
z
" transform="scale(0.015625)"/>
     <path id="DejaVuSans-Oblique-55" d="M 991 4666 
L 1625 4666 
L 1075 1831 
Q 1041 1641 1027 1517 
Q 1013 1394 1013 1300 
Q 1013 869 1253 645 
Q 1494 422 1959 422 
Q 2563 422 2898 753 
Q 3234 1084 3378 1831 
L 3928 4666 
L 4563 4666 
L 4000 1753 
Q 3816 809 3300 359 
Q 2784 -91 1888 -91 
Q 1188 -91 780 261 
Q 372 613 372 1216 
Q 372 1325 387 1461 
Q 403 1597 434 1753 
L 991 4666 
z
" transform="scale(0.015625)"/>
     <path id="DejaVuSans-Oblique-28" d="M 2731 4856 
Q 1903 3822 1495 2892 
Q 1088 1963 1088 1100 
Q 1088 606 1206 120 
Q 1325 -366 1563 -844 
L 1063 -844 
Q 775 -306 634 201 
Q 494 709 494 1197 
Q 494 2125 923 3036 
Q 1353 3947 2222 4856 
L 2731 4856 
z
" transform="scale(0.015625)"/>
     <path id="DejaVuSans-Oblique-75" d="M 428 1388 
L 838 3500 
L 1416 3500 
L 1006 1409 
Q 975 1256 961 1147 
Q 947 1038 947 966 
Q 947 700 1109 554 
Q 1272 409 1569 409 
Q 2031 409 2368 721 
Q 2706 1034 2809 1563 
L 3194 3500 
L 3769 3500 
L 3091 0 
L 2516 0 
L 2631 550 
Q 2388 244 2052 76 
Q 1716 -91 1338 -91 
Q 878 -91 622 161 
Q 366 413 366 863 
Q 366 956 381 1097 
Q 397 1238 428 1388 
z
" transform="scale(0.015625)"/>
     <path id="DejaVuSans-Oblique-70" d="M 3175 2156 
Q 3175 2616 2975 2859 
Q 2775 3103 2400 3103 
Q 2144 3103 1911 2972 
Q 1678 2841 1497 2591 
Q 1319 2344 1212 1994 
Q 1106 1644 1106 1300 
Q 1106 863 1306 627 
Q 1506 391 1875 391 
Q 2147 391 2380 519 
Q 2613 647 2778 891 
Q 2956 1147 3065 1494 
Q 3175 1841 3175 2156 
z
M 1394 2969 
Q 1625 3272 1939 3428 
Q 2253 3584 2638 3584 
Q 3175 3584 3472 3232 
Q 3769 2881 3769 2247 
Q 3769 1728 3584 1258 
Q 3400 788 3053 416 
Q 2822 169 2531 39 
Q 2241 -91 1919 -91 
Q 1547 -91 1294 64 
Q 1041 219 916 525 
L 556 -1331 
L -19 -1331 
L 922 3500 
L 1497 3500 
L 1394 2969 
z
" transform="scale(0.015625)"/>
     <path id="DejaVuSans-Oblique-29" d="M -397 -844 
Q 434 191 840 1120 
Q 1247 2050 1247 2913 
Q 1247 3406 1130 3892 
Q 1013 4378 775 4856 
L 1275 4856 
Q 1563 4316 1703 3812 
Q 1844 3309 1844 2822 
Q 1844 1891 1411 973 
Q 978 56 116 -844 
L -397 -844 
z
" transform="scale(0.015625)"/>
     <path id="DejaVuSans-Oblique-2b" d="M 2944 4013 
L 2944 2272 
L 4684 2272 
L 4684 1741 
L 2944 1741 
L 2944 0 
L 2419 0 
L 2419 1741 
L 678 1741 
L 678 2272 
L 2419 2272 
L 2419 4013 
L 2944 4013 
z
" transform="scale(0.015625)"/>
     <path id="DejaVuSans-Oblique-111" d="M 2675 525 
Q 2444 222 2128 65 
Q 1813 -91 1428 -91 
Q 903 -91 598 267 
Q 294 625 294 1247 
Q 294 1766 478 2236 
Q 663 2706 1013 3078 
Q 1244 3325 1534 3454 
Q 1825 3584 2144 3584 
Q 2481 3584 2739 3421 
Q 2997 3259 3138 2956 
L 3347 4013 
L 2328 4013 
L 2413 4397 
L 3431 4397 
L 3513 4863 
L 4091 4863 
L 4006 4397 
L 4488 4397 
L 4403 4013 
L 3922 4013 
L 3144 0 
L 2566 0 
L 2675 525 
z
M 891 1350 
Q 891 897 1095 644 
Q 1300 391 1663 391 
Q 1931 391 2161 520 
Q 2391 650 2566 903 
Q 2750 1166 2856 1509 
Q 2963 1853 2963 2188 
Q 2963 2622 2758 2865 
Q 2553 3109 2194 3109 
Q 1922 3109 1687 2981 
Q 1453 2853 1288 2613 
Q 1106 2353 998 2009 
Q 891 1666 891 1350 
z
" transform="scale(0.015625)"/>
     <path id="DejaVuSans-Oblique-69" d="M 1172 4863 
L 1747 4863 
L 1606 4134 
L 1031 4134 
L 1172 4863 
z
M 909 3500 
L 1484 3500 
L 800 0 
L 225 0 
L 909 3500 
z
" transform="scale(0.015625)"/>
     <path id="DejaVuSans-Oblique-1ec1" d="M 3078 2063 
Q 3088 2113 3092 2166 
Q 3097 2219 3097 2272 
Q 3097 2653 2873 2875 
Q 2650 3097 2266 3097 
Q 1838 3097 1509 2826 
Q 1181 2556 1013 2059 
L 3078 2063 
z
M 3578 1613 
L 903 1613 
Q 884 1494 878 1425 
Q 872 1356 872 1306 
Q 872 872 1139 634 
Q 1406 397 1894 397 
Q 2269 397 2603 481 
Q 2938 566 3225 728 
L 3116 159 
Q 2806 34 2476 -28 
Q 2147 -91 1806 -91 
Q 1078 -91 686 257 
Q 294 606 294 1247 
Q 294 1794 489 2264 
Q 684 2734 1063 3103 
Q 1306 3334 1642 3459 
Q 1978 3584 2356 3584 
Q 2950 3584 3301 3228 
Q 3653 2872 3653 2272 
Q 3653 2128 3634 1964 
Q 3616 1800 3578 1613 
z
M 2379 4775 
L 3051 4775 
L 3545 3944 
L 3123 3944 
L 2685 4500 
L 2032 3944 
L 1560 3944 
L 2379 4775 
z
M 1542 5409 
L 2004 4584 
L 1567 4584 
L 973 5409 
L 1542 5409 
z
" transform="scale(0.015625)"/>
     <path id="DejaVuSans-Oblique-1ec9" d="M 814 5025 
Q 1195 5184 1520 5184 
Q 1845 5184 2018 5051 
Q 2192 4919 2152 4709 
Q 2114 4519 1798 4316 
L 1642 4216 
Q 1517 4134 1498 4106 
Q 1467 4056 1448 3956 
L 1077 3956 
L 1083 3994 
Q 1108 4119 1172 4203 
Q 1236 4288 1417 4403 
L 1577 4509 
Q 1742 4616 1767 4741 
Q 1780 4806 1694 4862 
Q 1608 4919 1386 4919 
Q 1105 4919 761 4756 
L 814 5025 
z
M 909 3500 
L 1484 3500 
L 800 0 
L 225 0 
L 909 3500 
z
" transform="scale(0.015625)"/>
     <path id="DejaVuSans-Oblique-1ecf" d="M 2342 5025 
Q 2723 5184 3048 5184 
Q 3373 5184 3546 5051 
Q 3720 4919 3680 4709 
Q 3642 4519 3326 4316 
L 3170 4216 
Q 3045 4134 3026 4106 
Q 2995 4056 2976 3956 
L 2605 3956 
L 2611 3994 
Q 2636 4119 2700 4203 
Q 2764 4288 2945 4403 
L 3105 4509 
Q 3270 4616 3295 4741 
Q 3308 4806 3222 4862 
Q 3136 4919 2914 4919 
Q 2633 4919 2289 4756 
L 2342 5025 
z
M 1625 -91 
Q 1009 -91 651 289 
Q 294 669 294 1325 
Q 294 1706 417 2101 
Q 541 2497 738 2766 
Q 1047 3184 1428 3384 
Q 1809 3584 2291 3584 
Q 2888 3584 3255 3212 
Q 3622 2841 3622 2241 
Q 3622 1825 3500 1412 
Q 3378 1000 3181 728 
Q 2875 309 2494 109 
Q 2113 -91 1625 -91 
z
M 891 1344 
Q 891 869 1089 633 
Q 1288 397 1691 397 
Q 2269 397 2648 901 
Q 3028 1406 3028 2181 
Q 3028 2634 2825 2865 
Q 2622 3097 2228 3097 
Q 1903 3097 1650 2945 
Q 1397 2794 1197 2484 
Q 1050 2253 970 1956 
Q 891 1659 891 1344 
z
" transform="scale(0.015625)"/>
     <path id="DejaVuSans-Oblique-74" d="M 2706 3500 
L 2619 3053 
L 1472 3053 
L 1100 1153 
Q 1081 1047 1072 975 
Q 1063 903 1063 863 
Q 1063 663 1183 572 
Q 1303 481 1569 481 
L 2150 481 
L 2053 0 
L 1503 0 
Q 991 0 739 200 
Q 488 400 488 806 
Q 488 878 497 964 
Q 506 1050 525 1153 
L 897 3053 
L 409 3053 
L 500 3500 
L 978 3500 
L 1172 4494 
L 1747 4494 
L 1556 3500 
L 2706 3500 
z
" transform="scale(0.015625)"/>
     <path id="DejaVuSans-Oblique-1ea1" d="M 3438 1997 
L 3047 0 
L 2472 0 
L 2578 531 
Q 2325 219 2001 64 
Q 1678 -91 1281 -91 
Q 834 -91 548 182 
Q 263 456 263 884 
Q 263 1497 752 1853 
Q 1241 2209 2100 2209 
L 2900 2209 
L 2931 2363 
Q 2938 2388 2941 2417 
Q 2944 2447 2944 2509 
Q 2944 2788 2717 2942 
Q 2491 3097 2081 3097 
Q 1800 3097 1504 3025 
Q 1209 2953 897 2809 
L 997 3341 
Q 1322 3463 1633 3523 
Q 1944 3584 2234 3584 
Q 2853 3584 3176 3315 
Q 3500 3047 3500 2534 
Q 3500 2431 3484 2292 
Q 3469 2153 3438 1997 
z
M 2816 1759 
L 2241 1759 
Q 1534 1759 1195 1570 
Q 856 1381 856 984 
Q 856 709 1029 553 
Q 1203 397 1509 397 
Q 1978 397 2328 733 
Q 2678 1069 2791 1631 
L 2816 1759 
z
M 1099 -450 
L 1674 -450 
L 1533 -1178 
L 958 -1178 
L 1099 -450 
z
" transform="scale(0.015625)"/>
     <path id="DejaVuSans-Oblique-6f" d="M 1625 -91 
Q 1009 -91 651 289 
Q 294 669 294 1325 
Q 294 1706 417 2101 
Q 541 2497 738 2766 
Q 1047 3184 1428 3384 
Q 1809 3584 2291 3584 
Q 2888 3584 3255 3212 
Q 3622 2841 3622 2241 
Q 3622 1825 3500 1412 
Q 3378 1000 3181 728 
Q 2875 309 2494 109 
Q 2113 -91 1625 -91 
z
M 891 1344 
Q 891 869 1089 633 
Q 1288 397 1691 397 
Q 2269 397 2648 901 
Q 3028 1406 3028 2181 
Q 3028 2634 2825 2865 
Q 2622 3097 2228 3097 
Q 1903 3097 1650 2945 
Q 1397 2794 1197 2484 
Q 1050 2253 970 1956 
Q 891 1659 891 1344 
z
" transform="scale(0.015625)"/>
     <path id="DejaVuSans-Oblique-61" d="M 3438 1997 
L 3047 0 
L 2472 0 
L 2578 531 
Q 2325 219 2001 64 
Q 1678 -91 1281 -91 
Q 834 -91 548 182 
Q 263 456 263 884 
Q 263 1497 752 1853 
Q 1241 2209 2100 2209 
L 2900 2209 
L 2931 2363 
Q 2938 2388 2941 2417 
Q 2944 2447 2944 2509 
Q 2944 2788 2717 2942 
Q 2491 3097 2081 3097 
Q 1800 3097 1504 3025 
Q 1209 2953 897 2809 
L 997 3341 
Q 1322 3463 1633 3523 
Q 1944 3584 2234 3584 
Q 2853 3584 3176 3315 
Q 3500 3047 3500 2534 
Q 3500 2431 3484 2292 
Q 3469 2153 3438 1997 
z
M 2816 1759 
L 2241 1759 
Q 1534 1759 1195 1570 
Q 856 1381 856 984 
Q 856 709 1029 553 
Q 1203 397 1509 397 
Q 1978 397 2328 733 
Q 2678 1069 2791 1631 
L 2816 1759 
z
" transform="scale(0.015625)"/>
     <path id="DejaVuSans-Oblique-64" d="M 2675 525 
Q 2444 222 2128 65 
Q 1813 -91 1428 -91 
Q 903 -91 598 267 
Q 294 625 294 1247 
Q 294 1766 478 2236 
Q 663 2706 1013 3078 
Q 1244 3325 1534 3454 
Q 1825 3584 2144 3584 
Q 2481 3584 2739 3421 
Q 2997 3259 3138 2956 
L 3513 4863 
L 4091 4863 
L 3144 0 
L 2566 0 
L 2675 525 
z
M 891 1350 
Q 891 897 1095 644 
Q 1300 391 1663 391 
Q 1931 391 2161 520 
Q 2391 650 2566 903 
Q 2750 1166 2856 1509 
Q 2963 1853 2963 2188 
Q 2963 2622 2758 2865 
Q 2553 3109 2194 3109 
Q 1922 3109 1687 2981 
Q 1453 2853 1288 2613 
Q 1106 2353 998 2009 
Q 891 1666 891 1350 
z
" transform="scale(0.015625)"/>
     <path id="DejaVuSans-Oblique-6c" d="M 1172 4863 
L 1747 4863 
L 800 0 
L 225 0 
L 1172 4863 
z
" transform="scale(0.015625)"/>
     <path id="DejaVuSans-Oblique-65" d="M 3078 2063 
Q 3088 2113 3092 2166 
Q 3097 2219 3097 2272 
Q 3097 2653 2873 2875 
Q 2650 3097 2266 3097 
Q 1838 3097 1509 2826 
Q 1181 2556 1013 2059 
L 3078 2063 
z
M 3578 1613 
L 903 1613 
Q 884 1494 878 1425 
Q 872 1356 872 1306 
Q 872 872 1139 634 
Q 1406 397 1894 397 
Q 2269 397 2603 481 
Q 2938 566 3225 728 
L 3116 159 
Q 2806 34 2476 -28 
Q 2147 -91 1806 -91 
Q 1078 -91 686 257 
Q 294 606 294 1247 
Q 294 1794 489 2264 
Q 684 2734 1063 3103 
Q 1306 3334 1642 3459 
Q 1978 3584 2356 3584 
Q 2950 3584 3301 3228 
Q 3653 2872 3653 2272 
Q 3653 2128 3634 1964 
Q 3616 1800 3578 1613 
z
" transform="scale(0.015625)"/>
     <path id="DejaVuSans-Oblique-62" d="M 3169 2138 
Q 3169 2591 2961 2847 
Q 2753 3103 2388 3103 
Q 2122 3103 1889 2973 
Q 1656 2844 1484 2597 
Q 1303 2338 1198 1995 
Q 1094 1653 1094 1313 
Q 1094 881 1298 636 
Q 1503 391 1863 391 
Q 2134 391 2365 517 
Q 2597 644 2772 891 
Q 2950 1147 3059 1487 
Q 3169 1828 3169 2138 
z
M 1381 2969 
Q 1594 3256 1914 3420 
Q 2234 3584 2584 3584 
Q 3122 3584 3439 3221 
Q 3756 2859 3756 2241 
Q 3756 1734 3570 1259 
Q 3384 784 3041 416 
Q 2816 172 2522 40 
Q 2228 -91 1906 -91 
Q 1566 -91 1316 65 
Q 1066 222 909 531 
L 806 0 
L 231 0 
L 1178 4863 
L 1753 4863 
L 1381 2969 
z
" transform="scale(0.015625)"/>
     <path id="DejaVuSans-Oblique-ea" d="M 3078 2063 
Q 3088 2113 3092 2166 
Q 3097 2219 3097 2272 
Q 3097 2653 2873 2875 
Q 2650 3097 2266 3097 
Q 1838 3097 1509 2826 
Q 1181 2556 1013 2059 
L 3078 2063 
z
M 3578 1613 
L 903 1613 
Q 884 1494 878 1425 
Q 872 1356 872 1306 
Q 872 872 1139 634 
Q 1406 397 1894 397 
Q 2269 397 2603 481 
Q 2938 566 3225 728 
L 3116 159 
Q 2806 34 2476 -28 
Q 2147 -91 1806 -91 
Q 1078 -91 686 257 
Q 294 606 294 1247 
Q 294 1794 489 2264 
Q 684 2734 1063 3103 
Q 1306 3334 1642 3459 
Q 1978 3584 2356 3584 
Q 2950 3584 3301 3228 
Q 3653 2872 3653 2272 
Q 3653 2128 3634 1964 
Q 3616 1800 3578 1613 
z
M 2397 5119 
L 2860 5119 
L 3397 3944 
L 2963 3944 
L 2566 4684 
L 1835 3944 
L 1400 3944 
L 2397 5119 
z
" transform="scale(0.015625)"/>
     <path id="DejaVuSans-Oblique-1ea3" d="M 2214 5025 
Q 2595 5184 2920 5184 
Q 3245 5184 3418 5051 
Q 3592 4919 3552 4709 
Q 3514 4519 3198 4316 
L 3042 4216 
Q 2917 4134 2898 4106 
Q 2867 4056 2848 3956 
L 2477 3956 
L 2483 3994 
Q 2508 4119 2572 4203 
Q 2636 4288 2817 4403 
L 2977 4509 
Q 3142 4616 3167 4741 
Q 3180 4806 3094 4862 
Q 3008 4919 2786 4919 
Q 2505 4919 2161 4756 
L 2214 5025 
z
M 3438 1997 
L 3047 0 
L 2472 0 
L 2578 531 
Q 2325 219 2001 64 
Q 1678 -91 1281 -91 
Q 834 -91 548 182 
Q 263 456 263 884 
Q 263 1497 752 1853 
Q 1241 2209 2100 2209 
L 2900 2209 
L 2931 2363 
Q 2938 2388 2941 2417 
Q 2944 2447 2944 2509 
Q 2944 2788 2717 2942 
Q 2491 3097 2081 3097 
Q 1800 3097 1504 3025 
Q 1209 2953 897 2809 
L 997 3341 
Q 1322 3463 1633 3523 
Q 1944 3584 2234 3584 
Q 2853 3584 3176 3315 
Q 3500 3047 3500 2534 
Q 3500 2431 3484 2292 
Q 3469 2153 3438 1997 
z
M 2816 1759 
L 2241 1759 
Q 1534 1759 1195 1570 
Q 856 1381 856 984 
Q 856 709 1029 553 
Q 1203 397 1509 397 
Q 1978 397 2328 733 
Q 2678 1069 2791 1631 
L 2816 1759 
z
" transform="scale(0.015625)"/>
    </defs>
    <use xlink:href="#DejaVuSans-Oblique-110"/>
    <use xlink:href="#DejaVuSans-Oblique-e1" transform="translate(77.490234 0)"/>
    <use xlink:href="#DejaVuSans-Oblique-79" transform="translate(138.769531 0)"/>
    <use xlink:href="#DejaVuSans-Oblique-20" transform="translate(197.949219 0)"/>
    <use xlink:href="#DejaVuSans-Oblique-68" transform="translate(229.736328 0)"/>
    <use xlink:href="#DejaVuSans-Oblique-ec" transform="translate(293.115234 0)"/>
    <use xlink:href="#DejaVuSans-Oblique-6e" transform="translate(320.898438 0)"/>
    <use xlink:href="#DejaVuSans-Oblique-68" transform="translate(384.277344 0)"/>
    <use xlink:href="#DejaVuSans-Oblique-20" transform="translate(447.65625 0)"/>
    <use xlink:href="#DejaVuSans-Oblique-63" transform="translate(479.443359 0)"/>
    <use xlink:href="#DejaVuSans-Oblique-68" transform="translate(534.423828 0)"/>
    <use xlink:href="#DejaVuSans-Oblique-1eef" transform="translate(597.802734 0)"/>
    <use xlink:href="#DejaVuSans-Oblique-20" transform="translate(661.181641 0)"/>
    <use xlink:href="#DejaVuSans-Oblique-55" transform="translate(692.96875 0)"/>
    <use xlink:href="#DejaVuSans-Oblique-20" transform="translate(766.162109 0)"/>
    <use xlink:href="#DejaVuSans-Oblique-28" transform="translate(797.949219 0)"/>
    <use xlink:href="#DejaVuSans-Oblique-63" transform="translate(836.962891 0)"/>
    <use xlink:href="#DejaVuSans-Oblique-75" transform="translate(891.943359 0)"/>
    <use xlink:href="#DejaVuSans-Oblique-70" transform="translate(955.322266 0)"/>
    <use xlink:href="#DejaVuSans-Oblique-29" transform="translate(1018.798828 0)"/>
    <use xlink:href="#DejaVuSans-Oblique-20" transform="translate(1057.8125 0)"/>
    <use xlink:href="#DejaVuSans-Oblique-2b" transform="translate(1089.599609 0)"/>
    <use xlink:href="#DejaVuSans-Oblique-20" transform="translate(1173.388672 0)"/>
    <use xlink:href="#DejaVuSans-Oblique-111" transform="translate(1205.175781 0)"/>
    <use xlink:href="#DejaVuSans-Oblique-69" transform="translate(1268.652344 0)"/>
    <use xlink:href="#DejaVuSans-Oblique-1ec1" transform="translate(1296.435547 0)"/>
    <use xlink:href="#DejaVuSans-Oblique-75" transform="translate(1357.958984 0)"/>
    <use xlink:href="#DejaVuSans-Oblique-20" transform="translate(1421.337891 0)"/>
    <use xlink:href="#DejaVuSans-Oblique-63" transform="translate(1453.125 0)"/>
    <use xlink:href="#DejaVuSans-Oblique-68" transform="translate(1508.105469 0)"/>
    <use xlink:href="#DejaVuSans-Oblique-1ec9" transform="translate(1571.484375 0)"/>
    <use xlink:href="#DejaVuSans-Oblique-6e" transform="translate(1599.267578 0)"/>
    <use xlink:href="#DejaVuSans-Oblique-68" transform="translate(1662.646484 0)"/>
    <use xlink:href="#DejaVuSans-Oblique-20" transform="translate(1726.025391 0)"/>
    <use xlink:href="#DejaVuSans-Oblique-6e" transform="translate(1757.8125 0)"/>
    <use xlink:href="#DejaVuSans-Oblique-68" transform="translate(1821.191406 0)"/>
    <use xlink:href="#DejaVuSans-Oblique-1ecf" transform="translate(1884.570312 0)"/>
    <use xlink:href="#DejaVuSans-Oblique-20" transform="translate(1945.751953 0)"/>
    <use xlink:href="#DejaVuSans-Oblique-74" transform="translate(1977.539062 0)"/>
    <use xlink:href="#DejaVuSans-Oblique-1ea1" transform="translate(2016.748047 0)"/>
    <use xlink:href="#DejaVuSans-Oblique-6f" transform="translate(2078.027344 0)"/>
    <use xlink:href="#DejaVuSans-Oblique-20" transform="translate(2139.208984 0)"/>
    <use xlink:href="#DejaVuSans-Oblique-68" transform="translate(2170.996094 0)"/>
    <use xlink:href="#DejaVuSans-Oblique-61" transform="translate(2234.375 0)"/>
    <use xlink:href="#DejaVuSans-Oblique-6e" transform="translate(2295.654297 0)"/>
    <use xlink:href="#DejaVuSans-Oblique-64" transform="translate(2359.033203 0)"/>
    <use xlink:href="#DejaVuSans-Oblique-6c" transform="translate(2422.509766 0)"/>
    <use xlink:href="#DejaVuSans-Oblique-65" transform="translate(2450.292969 0)"/>
    <use xlink:href="#DejaVuSans-Oblique-20" transform="translate(2511.816406 0)"/>
    <use xlink:href="#DejaVuSans-Oblique-62" transform="translate(2543.603516 0)"/>
    <use xlink:href="#DejaVuSans-Oblique-ea" transform="translate(2607.080078 0)"/>
    <use xlink:href="#DejaVuSans-Oblique-6e" transform="translate(2668.603516 0)"/>
    <use xlink:href="#DejaVuSans-Oblique-20" transform="translate(2731.982422 0)"/>
    <use xlink:href="#DejaVuSans-Oblique-70" transform="translate(2763.769531 0)"/>
    <use xlink:href="#DejaVuSans-Oblique-68" transform="translate(2827.246094 0)"/>
    <use xlink:href="#DejaVuSans-Oblique-1ea3" transform="translate(2890.625 0)"/>
    <use xlink:href="#DejaVuSans-Oblique-69" transform="translate(2951.904297 0)"/>
   </g>
  </g>
 </g>
 <defs>
  <clipPath id="pe63dbf1533">
   <rect x="44.089063" y="42.84" width="570.24" height="277.2"/>
  </clipPath>
 </defs>
</svg>
