<?xml version="1.0" encoding="utf-8" standalone="no"?>
<!DOCTYPE svg PUBLIC "-//W3C//DTD SVG 1.1//EN"
  "http://www.w3.org/Graphics/SVG/1.1/DTD/svg11.dtd">
<svg xmlns:xlink="http://www.w3.org/1999/xlink" width="621.529063pt" height="384.34375pt" viewBox="0 0 621.529063 384.34375" xmlns="http://www.w3.org/2000/svg" version="1.1">
 <metadata>
  <rdf:RDF xmlns:dc="http://purl.org/dc/elements/1.1/" xmlns:cc="http://creativecommons.org/ns#" xmlns:rdf="http://www.w3.org/1999/02/22-rdf-syntax-ns#">
   <cc:Work>
    <dc:type rdf:resource="http://purl.org/dc/dcmitype/StillImage"/>
    <dc:date>2026-05-13T06:50:48.054792</dc:date>
    <dc:format>image/svg+xml</dc:format>
    <dc:creator>
     <cc:Agent>
      <dc:title>Matplotlib v3.10.8, https://matplotlib.org/</dc:title>
     </cc:Agent>
    </dc:creator>
   </cc:Work>
  </rdf:RDF>
 </metadata>
 <defs>
  <style type="text/css">*{stroke-linejoin: round; stroke-linecap: butt}</style>
 </defs>
 <g id="figure_1">
  <g id="patch_1">
   <path d="M 0 384.34375 
L 621.529063 384.34375 
L 621.529063 0 
L 0 0 
z
" style="fill: #ffffff"/>
  </g>
  <g id="axes_1">
   <g id="patch_2">
    <path d="M 44.089063 320.04 
L 614.329063 320.04 
L 614.329063 42.84 
L 44.089063 42.84 
z
" style="fill: #ffffff"/>
   </g>
   <g id="matplotlib.axis_1">
    <g id="xtick_1">
     <g id="line2d_1">
      <path d="M 100.50318 320.04 
L 100.50318 42.84 
" clip-path="url(#p4831bff19e)" style="fill: none; stroke-dasharray: 2.96,1.28; stroke-dashoffset: 0; stroke: #e0e0e0; stroke-width: 0.8"/>
     </g>
     <g id="line2d_2">
      <defs>
       <path id="m13f0f5f0f0" d="M 0 0 
L 0 3.5 
" style="stroke: #000000; stroke-width: 0.8"/>
      </defs>
      <g>
       <use xlink:href="#m13f0f5f0f0" x="100.50318" y="320.04" style="stroke: #000000; stroke-width: 0.8"/>
      </g>
     </g>
     <g id="text_1">
      <!-- Jan 01 -->
      <g transform="translate(92.29367 351.806746) rotate(-45) scale(0.09 -0.09)">
       <defs>
        <path id="DejaVuSans-4a" d="M 628 4666 
L 1259 4666 
L 1259 325 
Q 1259 -519 939 -900 
Q 619 -1281 -91 -1281 
L -331 -1281 
L -331 -750 
L -134 -750 
Q 284 -750 456 -515 
Q 628 -281 628 325 
L 628 4666 
z
" transform="scale(0.015625)"/>
        <path id="DejaVuSans-61" d="M 2194 1759 
Q 1497 1759 1228 1600 
Q 959 1441 959 1056 
Q 959 750 1161 570 
Q 1363 391 1709 391 
Q 2188 391 2477 730 
Q 2766 1069 2766 1631 
L 2766 1759 
L 2194 1759 
z
M 3341 1997 
L 3341 0 
L 2766 0 
L 2766 531 
Q 2569 213 2275 61 
Q 1981 -91 1556 -91 
Q 1019 -91 701 211 
Q 384 513 384 1019 
Q 384 1609 779 1909 
Q 1175 2209 1959 2209 
L 2766 2209 
L 2766 2266 
Q 2766 2663 2505 2880 
Q 2244 3097 1772 3097 
Q 1472 3097 1187 3025 
Q 903 2953 641 2809 
L 641 3341 
Q 956 3463 1253 3523 
Q 1550 3584 1831 3584 
Q 2591 3584 2966 3190 
Q 3341 2797 3341 1997 
z
" transform="scale(0.015625)"/>
        <path id="DejaVuSans-6e" d="M 3513 2113 
L 3513 0 
L 2938 0 
L 2938 2094 
Q 2938 2591 2744 2837 
Q 2550 3084 2163 3084 
Q 1697 3084 1428 2787 
Q 1159 2491 1159 1978 
L 1159 0 
L 581 0 
L 581 3500 
L 1159 3500 
L 1159 2956 
Q 1366 3272 1645 3428 
Q 1925 3584 2291 3584 
Q 2894 3584 3203 3211 
Q 3513 2838 3513 2113 
z
" transform="scale(0.015625)"/>
        <path id="DejaVuSans-20" transform="scale(0.015625)"/>
        <path id="DejaVuSans-30" d="M 2034 4250 
Q 1547 4250 1301 3770 
Q 1056 3291 1056 2328 
Q 1056 1369 1301 889 
Q 1547 409 2034 409 
Q 2525 409 2770 889 
Q 3016 1369 3016 2328 
Q 3016 3291 2770 3770 
Q 2525 4250 2034 4250 
z
M 2034 4750 
Q 2819 4750 3233 4129 
Q 3647 3509 3647 2328 
Q 3647 1150 3233 529 
Q 2819 -91 2034 -91 
Q 1250 -91 836 529 
Q 422 1150 422 2328 
Q 422 3509 836 4129 
Q 1250 4750 2034 4750 
z
" transform="scale(0.015625)"/>
        <path id="DejaVuSans-31" d="M 794 531 
L 1825 531 
L 1825 4091 
L 703 3866 
L 703 4441 
L 1819 4666 
L 2450 4666 
L 2450 531 
L 3481 531 
L 3481 0 
L 794 0 
L 794 531 
z
" transform="scale(0.015625)"/>
       </defs>
       <use xlink:href="#DejaVuSans-4a"/>
       <use xlink:href="#DejaVuSans-61" transform="translate(29.492188 0)"/>
       <use xlink:href="#DejaVuSans-6e" transform="translate(90.771484 0)"/>
       <use xlink:href="#DejaVuSans-20" transform="translate(154.150391 0)"/>
       <use xlink:href="#DejaVuSans-30" transform="translate(185.9375 0)"/>
       <use xlink:href="#DejaVuSans-31" transform="translate(249.560547 0)"/>
      </g>
     </g>
    </g>
    <g id="xtick_2">
     <g id="line2d_3">
      <path d="M 165.847718 320.04 
L 165.847718 42.84 
" clip-path="url(#p4831bff19e)" style="fill: none; stroke-dasharray: 2.96,1.28; stroke-dashoffset: 0; stroke: #e0e0e0; stroke-width: 0.8"/>
     </g>
     <g id="line2d_4">
      <g>
       <use xlink:href="#m13f0f5f0f0" x="165.847718" y="320.04" style="stroke: #000000; stroke-width: 0.8"/>
      </g>
     </g>
     <g id="text_2">
      <!-- Jan 03 -->
      <g transform="translate(157.638208 351.806746) rotate(-45) scale(0.09 -0.09)">
       <defs>
        <path id="DejaVuSans-33" d="M 2597 2516 
Q 3050 2419 3304 2112 
Q 3559 1806 3559 1356 
Q 3559 666 3084 287 
Q 2609 -91 1734 -91 
Q 1441 -91 1130 -33 
Q 819 25 488 141 
L 488 750 
Q 750 597 1062 519 
Q 1375 441 1716 441 
Q 2309 441 2620 675 
Q 2931 909 2931 1356 
Q 2931 1769 2642 2001 
Q 2353 2234 1838 2234 
L 1294 2234 
L 1294 2753 
L 1863 2753 
Q 2328 2753 2575 2939 
Q 2822 3125 2822 3475 
Q 2822 3834 2567 4026 
Q 2313 4219 1838 4219 
Q 1578 4219 1281 4162 
Q 984 4106 628 3988 
L 628 4550 
Q 988 4650 1302 4700 
Q 1616 4750 1894 4750 
Q 2613 4750 3031 4423 
Q 3450 4097 3450 3541 
Q 3450 3153 3228 2886 
Q 3006 2619 2597 2516 
z
" transform="scale(0.015625)"/>
       </defs>
       <use xlink:href="#DejaVuSans-4a"/>
       <use xlink:href="#DejaVuSans-61" transform="translate(29.492188 0)"/>
       <use xlink:href="#DejaVuSans-6e" transform="translate(90.771484 0)"/>
       <use xlink:href="#DejaVuSans-20" transform="translate(154.150391 0)"/>
       <use xlink:href="#DejaVuSans-30" transform="translate(185.9375 0)"/>
       <use xlink:href="#DejaVuSans-33" transform="translate(249.560547 0)"/>
      </g>
     </g>
    </g>
    <g id="xtick_3">
     <g id="line2d_5">
      <path d="M 231.192256 320.04 
L 231.192256 42.84 
" clip-path="url(#p4831bff19e)" style="fill: none; stroke-dasharray: 2.96,1.28; stroke-dashoffset: 0; stroke: #e0e0e0; stroke-width: 0.8"/>
     </g>
     <g id="line2d_6">
      <g>
       <use xlink:href="#m13f0f5f0f0" x="231.192256" y="320.04" style="stroke: #000000; stroke-width: 0.8"/>
      </g>
     </g>
     <g id="text_3">
      <!-- Jan 05 -->
      <g transform="translate(222.982746 351.806746) rotate(-45) scale(0.09 -0.09)">
       <defs>
        <path id="DejaVuSans-35" d="M 691 4666 
L 3169 4666 
L 3169 4134 
L 1269 4134 
L 1269 2991 
Q 1406 3038 1543 3061 
Q 1681 3084 1819 3084 
Q 2600 3084 3056 2656 
Q 3513 2228 3513 1497 
Q 3513 744 3044 326 
Q 2575 -91 1722 -91 
Q 1428 -91 1123 -41 
Q 819 9 494 109 
L 494 744 
Q 775 591 1075 516 
Q 1375 441 1709 441 
Q 2250 441 2565 725 
Q 2881 1009 2881 1497 
Q 2881 1984 2565 2268 
Q 2250 2553 1709 2553 
Q 1456 2553 1204 2497 
Q 953 2441 691 2322 
L 691 4666 
z
" transform="scale(0.015625)"/>
       </defs>
       <use xlink:href="#DejaVuSans-4a"/>
       <use xlink:href="#DejaVuSans-61" transform="translate(29.492188 0)"/>
       <use xlink:href="#DejaVuSans-6e" transform="translate(90.771484 0)"/>
       <use xlink:href="#DejaVuSans-20" transform="translate(154.150391 0)"/>
       <use xlink:href="#DejaVuSans-30" transform="translate(185.9375 0)"/>
       <use xlink:href="#DejaVuSans-35" transform="translate(249.560547 0)"/>
      </g>
     </g>
    </g>
    <g id="xtick_4">
     <g id="line2d_7">
      <path d="M 296.536794 320.04 
L 296.536794 42.84 
" clip-path="url(#p4831bff19e)" style="fill: none; stroke-dasharray: 2.96,1.28; stroke-dashoffset: 0; stroke: #e0e0e0; stroke-width: 0.8"/>
     </g>
     <g id="line2d_8">
      <g>
       <use xlink:href="#m13f0f5f0f0" x="296.536794" y="320.04" style="stroke: #000000; stroke-width: 0.8"/>
      </g>
     </g>
     <g id="text_4">
      <!-- Jan 07 -->
      <g transform="translate(288.327284 351.806746) rotate(-45) scale(0.09 -0.09)">
       <defs>
        <path id="DejaVuSans-37" d="M 525 4666 
L 3525 4666 
L 3525 4397 
L 1831 0 
L 1172 0 
L 2766 4134 
L 525 4134 
L 525 4666 
z
" transform="scale(0.015625)"/>
       </defs>
       <use xlink:href="#DejaVuSans-4a"/>
       <use xlink:href="#DejaVuSans-61" transform="translate(29.492188 0)"/>
       <use xlink:href="#DejaVuSans-6e" transform="translate(90.771484 0)"/>
       <use xlink:href="#DejaVuSans-20" transform="translate(154.150391 0)"/>
       <use xlink:href="#DejaVuSans-30" transform="translate(185.9375 0)"/>
       <use xlink:href="#DejaVuSans-37" transform="translate(249.560547 0)"/>
      </g>
     </g>
    </g>
    <g id="xtick_5">
     <g id="line2d_9">
      <path d="M 361.881331 320.04 
L 361.881331 42.84 
" clip-path="url(#p4831bff19e)" style="fill: none; stroke-dasharray: 2.96,1.28; stroke-dashoffset: 0; stroke: #e0e0e0; stroke-width: 0.8"/>
     </g>
     <g id="line2d_10">
      <g>
       <use xlink:href="#m13f0f5f0f0" x="361.881331" y="320.04" style="stroke: #000000; stroke-width: 0.8"/>
      </g>
     </g>
     <g id="text_5">
      <!-- Jan 09 -->
      <g transform="translate(353.671822 351.806746) rotate(-45) scale(0.09 -0.09)">
       <defs>
        <path id="DejaVuSans-39" d="M 703 97 
L 703 672 
Q 941 559 1184 500 
Q 1428 441 1663 441 
Q 2288 441 2617 861 
Q 2947 1281 2994 2138 
Q 2813 1869 2534 1725 
Q 2256 1581 1919 1581 
Q 1219 1581 811 2004 
Q 403 2428 403 3163 
Q 403 3881 828 4315 
Q 1253 4750 1959 4750 
Q 2769 4750 3195 4129 
Q 3622 3509 3622 2328 
Q 3622 1225 3098 567 
Q 2575 -91 1691 -91 
Q 1453 -91 1209 -44 
Q 966 3 703 97 
z
M 1959 2075 
Q 2384 2075 2632 2365 
Q 2881 2656 2881 3163 
Q 2881 3666 2632 3958 
Q 2384 4250 1959 4250 
Q 1534 4250 1286 3958 
Q 1038 3666 1038 3163 
Q 1038 2656 1286 2365 
Q 1534 2075 1959 2075 
z
" transform="scale(0.015625)"/>
       </defs>
       <use xlink:href="#DejaVuSans-4a"/>
       <use xlink:href="#DejaVuSans-61" transform="translate(29.492188 0)"/>
       <use xlink:href="#DejaVuSans-6e" transform="translate(90.771484 0)"/>
       <use xlink:href="#DejaVuSans-20" transform="translate(154.150391 0)"/>
       <use xlink:href="#DejaVuSans-30" transform="translate(185.9375 0)"/>
       <use xlink:href="#DejaVuSans-39" transform="translate(249.560547 0)"/>
      </g>
     </g>
    </g>
    <g id="xtick_6">
     <g id="line2d_11">
      <path d="M 427.225869 320.04 
L 427.225869 42.84 
" clip-path="url(#p4831bff19e)" style="fill: none; stroke-dasharray: 2.96,1.28; stroke-dashoffset: 0; stroke: #e0e0e0; stroke-width: 0.8"/>
     </g>
     <g id="line2d_12">
      <g>
       <use xlink:href="#m13f0f5f0f0" x="427.225869" y="320.04" style="stroke: #000000; stroke-width: 0.8"/>
      </g>
     </g>
     <g id="text_6">
      <!-- Jan 11 -->
      <g transform="translate(419.016359 351.806746) rotate(-45) scale(0.09 -0.09)">
       <use xlink:href="#DejaVuSans-4a"/>
       <use xlink:href="#DejaVuSans-61" transform="translate(29.492188 0)"/>
       <use xlink:href="#DejaVuSans-6e" transform="translate(90.771484 0)"/>
       <use xlink:href="#DejaVuSans-20" transform="translate(154.150391 0)"/>
       <use xlink:href="#DejaVuSans-31" transform="translate(185.9375 0)"/>
       <use xlink:href="#DejaVuSans-31" transform="translate(249.560547 0)"/>
      </g>
     </g>
    </g>
    <g id="xtick_7">
     <g id="line2d_13">
      <path d="M 492.570407 320.04 
L 492.570407 42.84 
" clip-path="url(#p4831bff19e)" style="fill: none; stroke-dasharray: 2.96,1.28; stroke-dashoffset: 0; stroke: #e0e0e0; stroke-width: 0.8"/>
     </g>
     <g id="line2d_14">
      <g>
       <use xlink:href="#m13f0f5f0f0" x="492.570407" y="320.04" style="stroke: #000000; stroke-width: 0.8"/>
      </g>
     </g>
     <g id="text_7">
      <!-- Jan 13 -->
      <g transform="translate(484.360897 351.806746) rotate(-45) scale(0.09 -0.09)">
       <use xlink:href="#DejaVuSans-4a"/>
       <use xlink:href="#DejaVuSans-61" transform="translate(29.492188 0)"/>
       <use xlink:href="#DejaVuSans-6e" transform="translate(90.771484 0)"/>
       <use xlink:href="#DejaVuSans-20" transform="translate(154.150391 0)"/>
       <use xlink:href="#DejaVuSans-31" transform="translate(185.9375 0)"/>
       <use xlink:href="#DejaVuSans-33" transform="translate(249.560547 0)"/>
      </g>
     </g>
    </g>
    <g id="xtick_8">
     <g id="line2d_15">
      <path d="M 557.914945 320.04 
L 557.914945 42.84 
" clip-path="url(#p4831bff19e)" style="fill: none; stroke-dasharray: 2.96,1.28; stroke-dashoffset: 0; stroke: #e0e0e0; stroke-width: 0.8"/>
     </g>
     <g id="line2d_16">
      <g>
       <use xlink:href="#m13f0f5f0f0" x="557.914945" y="320.04" style="stroke: #000000; stroke-width: 0.8"/>
      </g>
     </g>
     <g id="text_8">
      <!-- Jan 15 -->
      <g transform="translate(549.705435 351.806746) rotate(-45) scale(0.09 -0.09)">
       <use xlink:href="#DejaVuSans-4a"/>
       <use xlink:href="#DejaVuSans-61" transform="translate(29.492188 0)"/>
       <use xlink:href="#DejaVuSans-6e" transform="translate(90.771484 0)"/>
       <use xlink:href="#DejaVuSans-20" transform="translate(154.150391 0)"/>
       <use xlink:href="#DejaVuSans-31" transform="translate(185.9375 0)"/>
       <use xlink:href="#DejaVuSans-35" transform="translate(249.560547 0)"/>
      </g>
     </g>
    </g>
   </g>
   <g id="matplotlib.axis_2">
    <g id="ytick_1">
     <g id="line2d_17">
      <path d="M 44.089063 319.833443 
L 614.329063 319.833443 
" clip-path="url(#p4831bff19e)" style="fill: none; stroke-dasharray: 2.96,1.28; stroke-dashoffset: 0; stroke: #e0e0e0; stroke-width: 0.8"/>
     </g>
     <g id="line2d_18">
      <defs>
       <path id="m9081b1cb25" d="M 0 0 
L -3.5 0 
" style="stroke: #000000; stroke-width: 0.8"/>
      </defs>
      <g>
       <use xlink:href="#m9081b1cb25" x="44.089063" y="319.833443" style="stroke: #000000; stroke-width: 0.8"/>
      </g>
     </g>
     <g id="text_9">
      <!-- 70 -->
      <g transform="translate(25.636563 323.252739) scale(0.09 -0.09)">
       <use xlink:href="#DejaVuSans-37"/>
       <use xlink:href="#DejaVuSans-30" transform="translate(63.623047 0)"/>
      </g>
     </g>
    </g>
    <g id="ytick_2">
     <g id="line2d_19">
      <path d="M 44.089063 278.521967 
L 614.329063 278.521967 
" clip-path="url(#p4831bff19e)" style="fill: none; stroke-dasharray: 2.96,1.28; stroke-dashoffset: 0; stroke: #e0e0e0; stroke-width: 0.8"/>
     </g>
     <g id="line2d_20">
      <g>
       <use xlink:href="#m9081b1cb25" x="44.089063" y="278.521967" style="stroke: #000000; stroke-width: 0.8"/>
      </g>
     </g>
     <g id="text_10">
      <!-- 75 -->
      <g transform="translate(25.636563 281.941264) scale(0.09 -0.09)">
       <use xlink:href="#DejaVuSans-37"/>
       <use xlink:href="#DejaVuSans-35" transform="translate(63.623047 0)"/>
      </g>
     </g>
    </g>
    <g id="ytick_3">
     <g id="line2d_21">
      <path d="M 44.089063 237.210492 
L 614.329063 237.210492 
" clip-path="url(#p4831bff19e)" style="fill: none; stroke-dasharray: 2.96,1.28; stroke-dashoffset: 0; stroke: #e0e0e0; stroke-width: 0.8"/>
     </g>
     <g id="line2d_22">
      <g>
       <use xlink:href="#m9081b1cb25" x="44.089063" y="237.210492" style="stroke: #000000; stroke-width: 0.8"/>
      </g>
     </g>
     <g id="text_11">
      <!-- 80 -->
      <g transform="translate(25.636563 240.629789) scale(0.09 -0.09)">
       <defs>
        <path id="DejaVuSans-38" d="M 2034 2216 
Q 1584 2216 1326 1975 
Q 1069 1734 1069 1313 
Q 1069 891 1326 650 
Q 1584 409 2034 409 
Q 2484 409 2743 651 
Q 3003 894 3003 1313 
Q 3003 1734 2745 1975 
Q 2488 2216 2034 2216 
z
M 1403 2484 
Q 997 2584 770 2862 
Q 544 3141 544 3541 
Q 544 4100 942 4425 
Q 1341 4750 2034 4750 
Q 2731 4750 3128 4425 
Q 3525 4100 3525 3541 
Q 3525 3141 3298 2862 
Q 3072 2584 2669 2484 
Q 3125 2378 3379 2068 
Q 3634 1759 3634 1313 
Q 3634 634 3220 271 
Q 2806 -91 2034 -91 
Q 1263 -91 848 271 
Q 434 634 434 1313 
Q 434 1759 690 2068 
Q 947 2378 1403 2484 
z
M 1172 3481 
Q 1172 3119 1398 2916 
Q 1625 2713 2034 2713 
Q 2441 2713 2670 2916 
Q 2900 3119 2900 3481 
Q 2900 3844 2670 4047 
Q 2441 4250 2034 4250 
Q 1625 4250 1398 4047 
Q 1172 3844 1172 3481 
z
" transform="scale(0.015625)"/>
       </defs>
       <use xlink:href="#DejaVuSans-38"/>
       <use xlink:href="#DejaVuSans-30" transform="translate(63.623047 0)"/>
      </g>
     </g>
    </g>
    <g id="ytick_4">
     <g id="line2d_23">
      <path d="M 44.089063 195.899016 
L 614.329063 195.899016 
" clip-path="url(#p4831bff19e)" style="fill: none; stroke-dasharray: 2.96,1.28; stroke-dashoffset: 0; stroke: #e0e0e0; stroke-width: 0.8"/>
     </g>
     <g id="line2d_24">
      <g>
       <use xlink:href="#m9081b1cb25" x="44.089063" y="195.899016" style="stroke: #000000; stroke-width: 0.8"/>
      </g>
     </g>
     <g id="text_12">
      <!-- 85 -->
      <g transform="translate(25.636563 199.318313) scale(0.09 -0.09)">
       <use xlink:href="#DejaVuSans-38"/>
       <use xlink:href="#DejaVuSans-35" transform="translate(63.623047 0)"/>
      </g>
     </g>
    </g>
    <g id="ytick_5">
     <g id="line2d_25">
      <path d="M 44.089063 154.587541 
L 614.329063 154.587541 
" clip-path="url(#p4831bff19e)" style="fill: none; stroke-dasharray: 2.96,1.28; stroke-dashoffset: 0; stroke: #e0e0e0; stroke-width: 0.8"/>
     </g>
     <g id="line2d_26">
      <g>
       <use xlink:href="#m9081b1cb25" x="44.089063" y="154.587541" style="stroke: #000000; stroke-width: 0.8"/>
      </g>
     </g>
     <g id="text_13">
      <!-- 90 -->
      <g transform="translate(25.636563 158.006838) scale(0.09 -0.09)">
       <use xlink:href="#DejaVuSans-39"/>
       <use xlink:href="#DejaVuSans-30" transform="translate(63.623047 0)"/>
      </g>
     </g>
    </g>
    <g id="ytick_6">
     <g id="line2d_27">
      <path d="M 44.089063 113.276066 
L 614.329063 113.276066 
" clip-path="url(#p4831bff19e)" style="fill: none; stroke-dasharray: 2.96,1.28; stroke-dashoffset: 0; stroke: #e0e0e0; stroke-width: 0.8"/>
     </g>
     <g id="line2d_28">
      <g>
       <use xlink:href="#m9081b1cb25" x="44.089063" y="113.276066" style="stroke: #000000; stroke-width: 0.8"/>
      </g>
     </g>
     <g id="text_14">
      <!-- 95 -->
      <g transform="translate(25.636563 116.695362) scale(0.09 -0.09)">
       <use xlink:href="#DejaVuSans-39"/>
       <use xlink:href="#DejaVuSans-35" transform="translate(63.623047 0)"/>
      </g>
     </g>
    </g>
    <g id="ytick_7">
     <g id="line2d_29">
      <path d="M 44.089063 71.96459 
L 614.329063 71.96459 
" clip-path="url(#p4831bff19e)" style="fill: none; stroke-dasharray: 2.96,1.28; stroke-dashoffset: 0; stroke: #e0e0e0; stroke-width: 0.8"/>
     </g>
     <g id="line2d_30">
      <g>
       <use xlink:href="#m9081b1cb25" x="44.089063" y="71.96459" style="stroke: #000000; stroke-width: 0.8"/>
      </g>
     </g>
     <g id="text_15">
      <!-- 100 -->
      <g transform="translate(19.910313 75.383887) scale(0.09 -0.09)">
       <use xlink:href="#DejaVuSans-31"/>
       <use xlink:href="#DejaVuSans-30" transform="translate(63.623047 0)"/>
       <use xlink:href="#DejaVuSans-30" transform="translate(127.246094 0)"/>
      </g>
     </g>
    </g>
    <g id="text_16">
     <!-- Price -->
     <g transform="translate(14.038594 192.417891) rotate(-90) scale(0.09 -0.09)">
      <defs>
       <path id="DejaVuSans-50" d="M 1259 4147 
L 1259 2394 
L 2053 2394 
Q 2494 2394 2734 2622 
Q 2975 2850 2975 3272 
Q 2975 3691 2734 3919 
Q 2494 4147 2053 4147 
L 1259 4147 
z
M 628 4666 
L 2053 4666 
Q 2838 4666 3239 4311 
Q 3641 3956 3641 3272 
Q 3641 2581 3239 2228 
Q 2838 1875 2053 1875 
L 1259 1875 
L 1259 0 
L 628 0 
L 628 4666 
z
" transform="scale(0.015625)"/>
       <path id="DejaVuSans-72" d="M 2631 2963 
Q 2534 3019 2420 3045 
Q 2306 3072 2169 3072 
Q 1681 3072 1420 2755 
Q 1159 2438 1159 1844 
L 1159 0 
L 581 0 
L 581 3500 
L 1159 3500 
L 1159 2956 
Q 1341 3275 1631 3429 
Q 1922 3584 2338 3584 
Q 2397 3584 2469 3576 
Q 2541 3569 2628 3553 
L 2631 2963 
z
" transform="scale(0.015625)"/>
       <path id="DejaVuSans-69" d="M 603 3500 
L 1178 3500 
L 1178 0 
L 603 0 
L 603 3500 
z
M 603 4863 
L 1178 4863 
L 1178 4134 
L 603 4134 
L 603 4863 
z
" transform="scale(0.015625)"/>
       <path id="DejaVuSans-63" d="M 3122 3366 
L 3122 2828 
Q 2878 2963 2633 3030 
Q 2388 3097 2138 3097 
Q 1578 3097 1268 2742 
Q 959 2388 959 1747 
Q 959 1106 1268 751 
Q 1578 397 2138 397 
Q 2388 397 2633 464 
Q 2878 531 3122 666 
L 3122 134 
Q 2881 22 2623 -34 
Q 2366 -91 2075 -91 
Q 1284 -91 818 406 
Q 353 903 353 1747 
Q 353 2603 823 3093 
Q 1294 3584 2113 3584 
Q 2378 3584 2631 3529 
Q 2884 3475 3122 3366 
z
" transform="scale(0.015625)"/>
       <path id="DejaVuSans-65" d="M 3597 1894 
L 3597 1613 
L 953 1613 
Q 991 1019 1311 708 
Q 1631 397 2203 397 
Q 2534 397 2845 478 
Q 3156 559 3463 722 
L 3463 178 
Q 3153 47 2828 -22 
Q 2503 -91 2169 -91 
Q 1331 -91 842 396 
Q 353 884 353 1716 
Q 353 2575 817 3079 
Q 1281 3584 2069 3584 
Q 2775 3584 3186 3129 
Q 3597 2675 3597 1894 
z
M 3022 2063 
Q 3016 2534 2758 2815 
Q 2500 3097 2075 3097 
Q 1594 3097 1305 2825 
Q 1016 2553 972 2059 
L 3022 2063 
z
" transform="scale(0.015625)"/>
      </defs>
      <use xlink:href="#DejaVuSans-50"/>
      <use xlink:href="#DejaVuSans-72" transform="translate(58.552734 0)"/>
      <use xlink:href="#DejaVuSans-69" transform="translate(99.666016 0)"/>
      <use xlink:href="#DejaVuSans-63" transform="translate(127.449219 0)"/>
      <use xlink:href="#DejaVuSans-65" transform="translate(182.429688 0)"/>
     </g>
    </g>
   </g>
   <g id="PolyCollection_1">
    <path d="M 89.884693 71.96459 
L 89.884693 85.184262 
L 111.121668 85.184262 
L 111.121668 71.96459 
z
" clip-path="url(#p4831bff19e)" style="fill: #ef5350; fill-opacity: 0.9; stroke: #ef5350"/>
    <path d="M 122.556962 88.48918 
L 122.556962 101.708852 
L 143.793936 101.708852 
L 143.793936 88.48918 
z
" clip-path="url(#p4831bff19e)" style="fill: #ef5350; fill-opacity: 0.9; stroke: #ef5350"/>
    <path d="M 155.229231 105.01377 
L 155.229231 118.233443 
L 176.466205 118.233443 
L 176.466205 105.01377 
z
" clip-path="url(#p4831bff19e)" style="fill: #ef5350; fill-opacity: 0.9; stroke: #ef5350"/>
    <path d="M 187.901499 121.538361 
L 187.901499 134.758033 
L 209.138474 134.758033 
L 209.138474 121.538361 
z
" clip-path="url(#p4831bff19e)" style="fill: #ef5350; fill-opacity: 0.9; stroke: #ef5350"/>
    <path d="M 220.573768 179.374426 
L 220.573768 228.948197 
L 241.810743 228.948197 
L 241.810743 179.374426 
z
" clip-path="url(#p4831bff19e)" style="fill: #ef5350; fill-opacity: 0.9; stroke: #ef5350"/>
    <path d="M 253.246037 228.948197 
L 253.246037 212.423607 
L 274.483012 212.423607 
L 274.483012 228.948197 
z
" clip-path="url(#p4831bff19e)" style="fill: #26a69a; fill-opacity: 0.9; stroke: #26a69a"/>
    <path d="M 285.918306 212.423607 
L 285.918306 179.374426 
L 307.155281 179.374426 
L 307.155281 212.423607 
z
" clip-path="url(#p4831bff19e)" style="fill: #26a69a; fill-opacity: 0.9; stroke: #26a69a"/>
    <path d="M 318.590575 179.374426 
L 318.590575 245.472787 
L 339.82755 245.472787 
L 339.82755 179.374426 
z
" clip-path="url(#p4831bff19e)" style="fill: #ef5350; fill-opacity: 0.9; stroke: #ef5350"/>
    <path d="M 351.262844 245.472787 
L 351.262844 295.046557 
L 372.499819 295.046557 
L 372.499819 245.472787 
z
" clip-path="url(#p4831bff19e)" style="fill: #ef5350; fill-opacity: 0.9; stroke: #ef5350"/>
    <path d="M 383.935113 295.046557 
L 383.935113 237.210492 
L 405.172088 237.210492 
L 405.172088 295.046557 
z
" clip-path="url(#p4831bff19e)" style="fill: #26a69a; fill-opacity: 0.9; stroke: #26a69a"/>
    <path d="M 416.607382 237.210492 
L 416.607382 187.636721 
L 437.844357 187.636721 
L 437.844357 237.210492 
z
" clip-path="url(#p4831bff19e)" style="fill: #26a69a; fill-opacity: 0.9; stroke: #26a69a"/>
    <path d="M 449.279651 187.636721 
L 449.279651 220.685902 
L 470.516626 220.685902 
L 470.516626 187.636721 
z
" clip-path="url(#p4831bff19e)" style="fill: #ef5350; fill-opacity: 0.9; stroke: #ef5350"/>
    <path d="M 481.95192 220.685902 
L 481.95192 204.161311 
L 503.188894 204.161311 
L 503.188894 220.685902 
z
" clip-path="url(#p4831bff19e)" style="fill: #26a69a; fill-opacity: 0.9; stroke: #26a69a"/>
    <path d="M 514.624189 204.161311 
L 514.624189 162.849836 
L 535.861163 162.849836 
L 535.861163 204.161311 
z
" clip-path="url(#p4831bff19e)" style="fill: #26a69a; fill-opacity: 0.9; stroke: #26a69a"/>
    <path d="M 547.296457 162.849836 
L 547.296457 121.538361 
L 568.533432 121.538361 
L 568.533432 162.849836 
z
" clip-path="url(#p4831bff19e)" style="fill: #26a69a; fill-opacity: 0.9; stroke: #26a69a"/>
   </g>
   <g id="LineCollection_1">
    <path d="M 100.50318 87.662951 
L 100.50318 85.184262 
" clip-path="url(#p4831bff19e)" style="fill: none; stroke: #ef5350"/>
    <path d="M 133.175449 104.187541 
L 133.175449 101.708852 
" clip-path="url(#p4831bff19e)" style="fill: none; stroke: #ef5350"/>
    <path d="M 165.847718 120.712131 
L 165.847718 118.233443 
" clip-path="url(#p4831bff19e)" style="fill: none; stroke: #ef5350"/>
    <path d="M 198.519987 137.236721 
L 198.519987 134.758033 
" clip-path="url(#p4831bff19e)" style="fill: none; stroke: #ef5350"/>
    <path d="M 231.192256 237.210492 
L 231.192256 228.948197 
" clip-path="url(#p4831bff19e)" style="fill: none; stroke: #ef5350"/>
    <path d="M 263.864525 233.079344 
L 263.864525 228.948197 
" clip-path="url(#p4831bff19e)" style="fill: none; stroke: #26a69a"/>
    <path d="M 296.536794 216.554754 
L 296.536794 212.423607 
" clip-path="url(#p4831bff19e)" style="fill: none; stroke: #26a69a"/>
    <path d="M 329.209063 249.603934 
L 329.209063 245.472787 
" clip-path="url(#p4831bff19e)" style="fill: none; stroke: #ef5350"/>
    <path d="M 361.881331 307.44 
L 361.881331 295.046557 
" clip-path="url(#p4831bff19e)" style="fill: none; stroke: #ef5350"/>
    <path d="M 394.5536 299.177705 
L 394.5536 295.046557 
" clip-path="url(#p4831bff19e)" style="fill: none; stroke: #26a69a"/>
    <path d="M 427.225869 241.341639 
L 427.225869 237.210492 
" clip-path="url(#p4831bff19e)" style="fill: none; stroke: #26a69a"/>
    <path d="M 459.898138 237.210492 
L 459.898138 220.685902 
" clip-path="url(#p4831bff19e)" style="fill: none; stroke: #ef5350"/>
    <path d="M 492.570407 233.079344 
L 492.570407 220.685902 
" clip-path="url(#p4831bff19e)" style="fill: none; stroke: #26a69a"/>
    <path d="M 525.242676 208.292459 
L 525.242676 204.161311 
" clip-path="url(#p4831bff19e)" style="fill: none; stroke: #26a69a"/>
    <path d="M 557.914945 166.980984 
L 557.914945 162.849836 
" clip-path="url(#p4831bff19e)" style="fill: none; stroke: #26a69a"/>
    <path d="M 100.50318 69.485902 
L 100.50318 71.96459 
" clip-path="url(#p4831bff19e)" style="fill: none; stroke: #ef5350"/>
    <path d="M 133.175449 86.010492 
L 133.175449 88.48918 
" clip-path="url(#p4831bff19e)" style="fill: none; stroke: #ef5350"/>
    <path d="M 165.847718 102.535082 
L 165.847718 105.01377 
" clip-path="url(#p4831bff19e)" style="fill: none; stroke: #ef5350"/>
    <path d="M 198.519987 119.059672 
L 198.519987 121.538361 
" clip-path="url(#p4831bff19e)" style="fill: none; stroke: #ef5350"/>
    <path d="M 231.192256 175.243279 
L 231.192256 179.374426 
" clip-path="url(#p4831bff19e)" style="fill: none; stroke: #ef5350"/>
    <path d="M 263.864525 208.292459 
L 263.864525 212.423607 
" clip-path="url(#p4831bff19e)" style="fill: none; stroke: #26a69a"/>
    <path d="M 296.536794 175.243279 
L 296.536794 179.374426 
" clip-path="url(#p4831bff19e)" style="fill: none; stroke: #26a69a"/>
    <path d="M 329.209063 175.243279 
L 329.209063 179.374426 
" clip-path="url(#p4831bff19e)" style="fill: none; stroke: #ef5350"/>
    <path d="M 361.881331 237.210492 
L 361.881331 245.472787 
" clip-path="url(#p4831bff19e)" style="fill: none; stroke: #ef5350"/>
    <path d="M 394.5536 233.079344 
L 394.5536 237.210492 
" clip-path="url(#p4831bff19e)" style="fill: none; stroke: #26a69a"/>
    <path d="M 427.225869 183.505574 
L 427.225869 187.636721 
" clip-path="url(#p4831bff19e)" style="fill: none; stroke: #26a69a"/>
    <path d="M 459.898138 183.505574 
L 459.898138 187.636721 
" clip-path="url(#p4831bff19e)" style="fill: none; stroke: #ef5350"/>
    <path d="M 492.570407 200.030164 
L 492.570407 204.161311 
" clip-path="url(#p4831bff19e)" style="fill: none; stroke: #26a69a"/>
    <path d="M 525.242676 158.718689 
L 525.242676 162.849836 
" clip-path="url(#p4831bff19e)" style="fill: none; stroke: #26a69a"/>
    <path d="M 557.914945 117.407213 
L 557.914945 121.538361 
" clip-path="url(#p4831bff19e)" style="fill: none; stroke: #26a69a"/>
   </g>
   <g id="line2d_31">
    <path d="M 44.089063 307.44 
L 614.329063 307.44 
" clip-path="url(#p4831bff19e)" style="fill: none; stroke-dasharray: 4.44,1.92; stroke-dashoffset: 0; stroke: #0000ff; stroke-opacity: 0.8; stroke-width: 1.2"/>
   </g>
   <g id="line2d_32">
    <path d="M 44.089063 237.210492 
L 614.329063 237.210492 
" clip-path="url(#p4831bff19e)" style="fill: none; stroke-dasharray: 4.44,1.92; stroke-dashoffset: 0; stroke: #ffa500; stroke-opacity: 0.8; stroke-width: 1.2"/>
   </g>
   <g id="line2d_33">
    <path d="M 44.089063 179.374426 
L 614.329063 179.374426 
" clip-path="url(#p4831bff19e)" style="fill: none; stroke-dasharray: 4.44,1.92; stroke-dashoffset: 0; stroke: #ff0000; stroke-opacity: 0.8; stroke-width: 1.2"/>
   </g>
   <g id="line2d_34">
    <path d="M 44.089063 55.44 
L 614.329063 55.44 
" clip-path="url(#p4831bff19e)" style="fill: none; stroke-dasharray: 4.44,1.92; stroke-dashoffset: 0; stroke: #008000; stroke-opacity: 0.8; stroke-width: 1.2"/>
   </g>
   <g id="patch_3">
    <path d="M 44.089063 320.04 
L 44.089063 42.84 
" style="fill: none; stroke: #000000; stroke-width: 0.8; stroke-linejoin: miter; stroke-linecap: square"/>
   </g>
   <g id="patch_4">
    <path d="M 614.329063 320.04 
L 614.329063 42.84 
" style="fill: none; stroke: #000000; stroke-width: 0.8; stroke-linejoin: miter; stroke-linecap: square"/>
   </g>
   <g id="patch_5">
    <path d="M 44.089063 320.04 
L 614.329063 320.04 
" style="fill: none; stroke: #000000; stroke-width: 0.8; stroke-linejoin: miter; stroke-linecap: square"/>
   </g>
   <g id="patch_6">
    <path d="M 44.089063 42.84 
L 614.329063 42.84 
" style="fill: none; stroke: #000000; stroke-width: 0.8; stroke-linejoin: miter; stroke-linecap: square"/>
   </g>
   <g id="legend_1">
    <g id="patch_7">
     <path d="M 49.689063 96.21 
L 134.509063 96.21 
Q 136.109063 96.21 136.109063 94.61 
L 136.109063 48.44 
Q 136.109063 46.84 134.509063 46.84 
L 49.689063 46.84 
Q 48.089063 46.84 48.089063 48.44 
L 48.089063 94.61 
Q 48.089063 96.21 49.689063 96.21 
z
" style="fill: #ffffff; opacity: 0.9; stroke: #cccccc; stroke-linejoin: miter"/>
    </g>
    <g id="line2d_35">
     <path d="M 51.289063 53.31875 
L 59.289063 53.31875 
L 67.289063 53.31875 
" style="fill: none; stroke-dasharray: 4.44,1.92; stroke-dashoffset: 0; stroke: #0000ff; stroke-opacity: 0.8; stroke-width: 1.2"/>
    </g>
    <g id="text_17">
     <!-- Head ~72 -->
     <g transform="translate(73.689063 56.11875) scale(0.08 -0.08)">
      <defs>
       <path id="DejaVuSans-48" d="M 628 4666 
L 1259 4666 
L 1259 2753 
L 3553 2753 
L 3553 4666 
L 4184 4666 
L 4184 0 
L 3553 0 
L 3553 2222 
L 1259 2222 
L 1259 0 
L 628 0 
L 628 4666 
z
" transform="scale(0.015625)"/>
       <path id="DejaVuSans-64" d="M 2906 2969 
L 2906 4863 
L 3481 4863 
L 3481 0 
L 2906 0 
L 2906 525 
Q 2725 213 2448 61 
Q 2172 -91 1784 -91 
Q 1150 -91 751 415 
Q 353 922 353 1747 
Q 353 2572 751 3078 
Q 1150 3584 1784 3584 
Q 2172 3584 2448 3432 
Q 2725 3281 2906 2969 
z
M 947 1747 
Q 947 1113 1208 752 
Q 1469 391 1925 391 
Q 2381 391 2643 752 
Q 2906 1113 2906 1747 
Q 2906 2381 2643 2742 
Q 2381 3103 1925 3103 
Q 1469 3103 1208 2742 
Q 947 2381 947 1747 
z
" transform="scale(0.015625)"/>
       <path id="DejaVuSans-7e" d="M 4684 2553 
L 4684 1997 
Q 4356 1750 4076 1644 
Q 3797 1538 3494 1538 
Q 3150 1538 2694 1722 
Q 2659 1734 2644 1741 
Q 2622 1750 2575 1766 
Q 2091 1959 1797 1959 
Q 1522 1959 1253 1839 
Q 984 1719 678 1459 
L 678 2016 
Q 1006 2263 1286 2370 
Q 1566 2478 1869 2478 
Q 2213 2478 2672 2291 
Q 2703 2278 2719 2272 
Q 2744 2263 2788 2247 
Q 3272 2053 3566 2053 
Q 3834 2053 4098 2172 
Q 4363 2291 4684 2553 
z
" transform="scale(0.015625)"/>
       <path id="DejaVuSans-32" d="M 1228 531 
L 3431 531 
L 3431 0 
L 469 0 
L 469 531 
Q 828 903 1448 1529 
Q 2069 2156 2228 2338 
Q 2531 2678 2651 2914 
Q 2772 3150 2772 3378 
Q 2772 3750 2511 3984 
Q 2250 4219 1831 4219 
Q 1534 4219 1204 4116 
Q 875 4013 500 3803 
L 500 4441 
Q 881 4594 1212 4672 
Q 1544 4750 1819 4750 
Q 2544 4750 2975 4387 
Q 3406 4025 3406 3419 
Q 3406 3131 3298 2873 
Q 3191 2616 2906 2266 
Q 2828 2175 2409 1742 
Q 1991 1309 1228 531 
z
" transform="scale(0.015625)"/>
      </defs>
      <use xlink:href="#DejaVuSans-48"/>
      <use xlink:href="#DejaVuSans-65" transform="translate(75.195312 0)"/>
      <use xlink:href="#DejaVuSans-61" transform="translate(136.71875 0)"/>
      <use xlink:href="#DejaVuSans-64" transform="translate(197.998047 0)"/>
      <use xlink:href="#DejaVuSans-20" transform="translate(261.474609 0)"/>
      <use xlink:href="#DejaVuSans-7e" transform="translate(293.261719 0)"/>
      <use xlink:href="#DejaVuSans-37" transform="translate(377.050781 0)"/>
      <use xlink:href="#DejaVuSans-32" transform="translate(440.673828 0)"/>
     </g>
    </g>
    <g id="line2d_36">
     <path d="M 51.289063 65.06125 
L 59.289063 65.06125 
L 67.289063 65.06125 
" style="fill: none; stroke-dasharray: 4.44,1.92; stroke-dashoffset: 0; stroke: #ffa500; stroke-opacity: 0.8; stroke-width: 1.2"/>
    </g>
    <g id="text_18">
     <!-- Shoulders ~80 -->
     <g transform="translate(73.689063 67.86125) scale(0.08 -0.08)">
      <defs>
       <path id="DejaVuSans-53" d="M 3425 4513 
L 3425 3897 
Q 3066 4069 2747 4153 
Q 2428 4238 2131 4238 
Q 1616 4238 1336 4038 
Q 1056 3838 1056 3469 
Q 1056 3159 1242 3001 
Q 1428 2844 1947 2747 
L 2328 2669 
Q 3034 2534 3370 2195 
Q 3706 1856 3706 1288 
Q 3706 609 3251 259 
Q 2797 -91 1919 -91 
Q 1588 -91 1214 -16 
Q 841 59 441 206 
L 441 856 
Q 825 641 1194 531 
Q 1563 422 1919 422 
Q 2459 422 2753 634 
Q 3047 847 3047 1241 
Q 3047 1584 2836 1778 
Q 2625 1972 2144 2069 
L 1759 2144 
Q 1053 2284 737 2584 
Q 422 2884 422 3419 
Q 422 4038 858 4394 
Q 1294 4750 2059 4750 
Q 2388 4750 2728 4690 
Q 3069 4631 3425 4513 
z
" transform="scale(0.015625)"/>
       <path id="DejaVuSans-68" d="M 3513 2113 
L 3513 0 
L 2938 0 
L 2938 2094 
Q 2938 2591 2744 2837 
Q 2550 3084 2163 3084 
Q 1697 3084 1428 2787 
Q 1159 2491 1159 1978 
L 1159 0 
L 581 0 
L 581 4863 
L 1159 4863 
L 1159 2956 
Q 1366 3272 1645 3428 
Q 1925 3584 2291 3584 
Q 2894 3584 3203 3211 
Q 3513 2838 3513 2113 
z
" transform="scale(0.015625)"/>
       <path id="DejaVuSans-6f" d="M 1959 3097 
Q 1497 3097 1228 2736 
Q 959 2375 959 1747 
Q 959 1119 1226 758 
Q 1494 397 1959 397 
Q 2419 397 2687 759 
Q 2956 1122 2956 1747 
Q 2956 2369 2687 2733 
Q 2419 3097 1959 3097 
z
M 1959 3584 
Q 2709 3584 3137 3096 
Q 3566 2609 3566 1747 
Q 3566 888 3137 398 
Q 2709 -91 1959 -91 
Q 1206 -91 779 398 
Q 353 888 353 1747 
Q 353 2609 779 3096 
Q 1206 3584 1959 3584 
z
" transform="scale(0.015625)"/>
       <path id="DejaVuSans-75" d="M 544 1381 
L 544 3500 
L 1119 3500 
L 1119 1403 
Q 1119 906 1312 657 
Q 1506 409 1894 409 
Q 2359 409 2629 706 
Q 2900 1003 2900 1516 
L 2900 3500 
L 3475 3500 
L 3475 0 
L 2900 0 
L 2900 538 
Q 2691 219 2414 64 
Q 2138 -91 1772 -91 
Q 1169 -91 856 284 
Q 544 659 544 1381 
z
M 1991 3584 
L 1991 3584 
z
" transform="scale(0.015625)"/>
       <path id="DejaVuSans-6c" d="M 603 4863 
L 1178 4863 
L 1178 0 
L 603 0 
L 603 4863 
z
" transform="scale(0.015625)"/>
       <path id="DejaVuSans-73" d="M 2834 3397 
L 2834 2853 
Q 2591 2978 2328 3040 
Q 2066 3103 1784 3103 
Q 1356 3103 1142 2972 
Q 928 2841 928 2578 
Q 928 2378 1081 2264 
Q 1234 2150 1697 2047 
L 1894 2003 
Q 2506 1872 2764 1633 
Q 3022 1394 3022 966 
Q 3022 478 2636 193 
Q 2250 -91 1575 -91 
Q 1294 -91 989 -36 
Q 684 19 347 128 
L 347 722 
Q 666 556 975 473 
Q 1284 391 1588 391 
Q 1994 391 2212 530 
Q 2431 669 2431 922 
Q 2431 1156 2273 1281 
Q 2116 1406 1581 1522 
L 1381 1569 
Q 847 1681 609 1914 
Q 372 2147 372 2553 
Q 372 3047 722 3315 
Q 1072 3584 1716 3584 
Q 2034 3584 2315 3537 
Q 2597 3491 2834 3397 
z
" transform="scale(0.015625)"/>
      </defs>
      <use xlink:href="#DejaVuSans-53"/>
      <use xlink:href="#DejaVuSans-68" transform="translate(63.476562 0)"/>
      <use xlink:href="#DejaVuSans-6f" transform="translate(126.855469 0)"/>
      <use xlink:href="#DejaVuSans-75" transform="translate(188.037109 0)"/>
      <use xlink:href="#DejaVuSans-6c" transform="translate(251.416016 0)"/>
      <use xlink:href="#DejaVuSans-64" transform="translate(279.199219 0)"/>
      <use xlink:href="#DejaVuSans-65" transform="translate(342.675781 0)"/>
      <use xlink:href="#DejaVuSans-72" transform="translate(404.199219 0)"/>
      <use xlink:href="#DejaVuSans-73" transform="translate(445.3125 0)"/>
      <use xlink:href="#DejaVuSans-20" transform="translate(497.412109 0)"/>
      <use xlink:href="#DejaVuSans-7e" transform="translate(529.199219 0)"/>
      <use xlink:href="#DejaVuSans-38" transform="translate(612.988281 0)"/>
      <use xlink:href="#DejaVuSans-30" transform="translate(676.611328 0)"/>
     </g>
    </g>
    <g id="line2d_37">
     <path d="M 51.289063 76.80375 
L 59.289063 76.80375 
L 67.289063 76.80375 
" style="fill: none; stroke-dasharray: 4.44,1.92; stroke-dashoffset: 0; stroke: #ff0000; stroke-opacity: 0.8; stroke-width: 1.2"/>
    </g>
    <g id="text_19">
     <!-- Neckline ~87 -->
     <g transform="translate(73.689063 79.60375) scale(0.08 -0.08)">
      <defs>
       <path id="DejaVuSans-4e" d="M 628 4666 
L 1478 4666 
L 3547 763 
L 3547 4666 
L 4159 4666 
L 4159 0 
L 3309 0 
L 1241 3903 
L 1241 0 
L 628 0 
L 628 4666 
z
" transform="scale(0.015625)"/>
       <path id="DejaVuSans-6b" d="M 581 4863 
L 1159 4863 
L 1159 1991 
L 2875 3500 
L 3609 3500 
L 1753 1863 
L 3688 0 
L 2938 0 
L 1159 1709 
L 1159 0 
L 581 0 
L 581 4863 
z
" transform="scale(0.015625)"/>
      </defs>
      <use xlink:href="#DejaVuSans-4e"/>
      <use xlink:href="#DejaVuSans-65" transform="translate(74.804688 0)"/>
      <use xlink:href="#DejaVuSans-63" transform="translate(136.328125 0)"/>
      <use xlink:href="#DejaVuSans-6b" transform="translate(191.308594 0)"/>
      <use xlink:href="#DejaVuSans-6c" transform="translate(249.21875 0)"/>
      <use xlink:href="#DejaVuSans-69" transform="translate(277.001953 0)"/>
      <use xlink:href="#DejaVuSans-6e" transform="translate(304.785156 0)"/>
      <use xlink:href="#DejaVuSans-65" transform="translate(368.164062 0)"/>
      <use xlink:href="#DejaVuSans-20" transform="translate(429.6875 0)"/>
      <use xlink:href="#DejaVuSans-7e" transform="translate(461.474609 0)"/>
      <use xlink:href="#DejaVuSans-38" transform="translate(545.263672 0)"/>
      <use xlink:href="#DejaVuSans-37" transform="translate(608.886719 0)"/>
     </g>
    </g>
    <g id="line2d_38">
     <path d="M 51.289063 88.54625 
L 59.289063 88.54625 
L 67.289063 88.54625 
" style="fill: none; stroke-dasharray: 4.44,1.92; stroke-dashoffset: 0; stroke: #008000; stroke-opacity: 0.8; stroke-width: 1.2"/>
    </g>
    <g id="text_20">
     <!-- Target -->
     <g transform="translate(73.689063 91.34625) scale(0.08 -0.08)">
      <defs>
       <path id="DejaVuSans-54" d="M -19 4666 
L 3928 4666 
L 3928 4134 
L 2272 4134 
L 2272 0 
L 1638 0 
L 1638 4134 
L -19 4134 
L -19 4666 
z
" transform="scale(0.015625)"/>
       <path id="DejaVuSans-67" d="M 2906 1791 
Q 2906 2416 2648 2759 
Q 2391 3103 1925 3103 
Q 1463 3103 1205 2759 
Q 947 2416 947 1791 
Q 947 1169 1205 825 
Q 1463 481 1925 481 
Q 2391 481 2648 825 
Q 2906 1169 2906 1791 
z
M 3481 434 
Q 3481 -459 3084 -895 
Q 2688 -1331 1869 -1331 
Q 1566 -1331 1297 -1286 
Q 1028 -1241 775 -1147 
L 775 -588 
Q 1028 -725 1275 -790 
Q 1522 -856 1778 -856 
Q 2344 -856 2625 -561 
Q 2906 -266 2906 331 
L 2906 616 
Q 2728 306 2450 153 
Q 2172 0 1784 0 
Q 1141 0 747 490 
Q 353 981 353 1791 
Q 353 2603 747 3093 
Q 1141 3584 1784 3584 
Q 2172 3584 2450 3431 
Q 2728 3278 2906 2969 
L 2906 3500 
L 3481 3500 
L 3481 434 
z
" transform="scale(0.015625)"/>
       <path id="DejaVuSans-74" d="M 1172 4494 
L 1172 3500 
L 2356 3500 
L 2356 3053 
L 1172 3053 
L 1172 1153 
Q 1172 725 1289 603 
Q 1406 481 1766 481 
L 2356 481 
L 2356 0 
L 1766 0 
Q 1100 0 847 248 
Q 594 497 594 1153 
L 594 3053 
L 172 3053 
L 172 3500 
L 594 3500 
L 594 4494 
L 1172 4494 
z
" transform="scale(0.015625)"/>
      </defs>
      <use xlink:href="#DejaVuSans-54"/>
      <use xlink:href="#DejaVuSans-61" transform="translate(44.583984 0)"/>
      <use xlink:href="#DejaVuSans-72" transform="translate(105.863281 0)"/>
      <use xlink:href="#DejaVuSans-67" transform="translate(145.226562 0)"/>
      <use xlink:href="#DejaVuSans-65" transform="translate(208.703125 0)"/>
      <use xlink:href="#DejaVuSans-74" transform="translate(270.226562 0)"/>
     </g>
    </g>
   </g>
  </g>
  <g id="text_21">
   <!-- Inverse Head and Shoulders (Tăng) -->
   <g transform="translate(167.943438 17.394844) scale(0.13 -0.13)">
    <defs>
     <path id="DejaVuSans-Bold-49" d="M 588 4666 
L 1791 4666 
L 1791 0 
L 588 0 
L 588 4666 
z
" transform="scale(0.015625)"/>
     <path id="DejaVuSans-Bold-6e" d="M 4056 2131 
L 4056 0 
L 2931 0 
L 2931 347 
L 2931 1631 
Q 2931 2084 2911 2256 
Q 2891 2428 2841 2509 
Q 2775 2619 2662 2680 
Q 2550 2741 2406 2741 
Q 2056 2741 1856 2470 
Q 1656 2200 1656 1722 
L 1656 0 
L 538 0 
L 538 3500 
L 1656 3500 
L 1656 2988 
Q 1909 3294 2193 3439 
Q 2478 3584 2822 3584 
Q 3428 3584 3742 3212 
Q 4056 2841 4056 2131 
z
" transform="scale(0.015625)"/>
     <path id="DejaVuSans-Bold-76" d="M 97 3500 
L 1216 3500 
L 2088 1081 
L 2956 3500 
L 4078 3500 
L 2700 0 
L 1472 0 
L 97 3500 
z
" transform="scale(0.015625)"/>
     <path id="DejaVuSans-Bold-65" d="M 4031 1759 
L 4031 1441 
L 1416 1441 
Q 1456 1047 1700 850 
Q 1944 653 2381 653 
Q 2734 653 3104 758 
Q 3475 863 3866 1075 
L 3866 213 
Q 3469 63 3072 -14 
Q 2675 -91 2278 -91 
Q 1328 -91 801 392 
Q 275 875 275 1747 
Q 275 2603 792 3093 
Q 1309 3584 2216 3584 
Q 3041 3584 3536 3087 
Q 4031 2591 4031 1759 
z
M 2881 2131 
Q 2881 2450 2695 2645 
Q 2509 2841 2209 2841 
Q 1884 2841 1681 2658 
Q 1478 2475 1428 2131 
L 2881 2131 
z
" transform="scale(0.015625)"/>
     <path id="DejaVuSans-Bold-72" d="M 3138 2547 
Q 2991 2616 2845 2648 
Q 2700 2681 2553 2681 
Q 2122 2681 1889 2404 
Q 1656 2128 1656 1613 
L 1656 0 
L 538 0 
L 538 3500 
L 1656 3500 
L 1656 2925 
Q 1872 3269 2151 3426 
Q 2431 3584 2822 3584 
Q 2878 3584 2943 3579 
Q 3009 3575 3134 3559 
L 3138 2547 
z
" transform="scale(0.015625)"/>
     <path id="DejaVuSans-Bold-73" d="M 3272 3391 
L 3272 2541 
Q 2913 2691 2578 2766 
Q 2244 2841 1947 2841 
Q 1628 2841 1473 2761 
Q 1319 2681 1319 2516 
Q 1319 2381 1436 2309 
Q 1553 2238 1856 2203 
L 2053 2175 
Q 2913 2066 3209 1816 
Q 3506 1566 3506 1031 
Q 3506 472 3093 190 
Q 2681 -91 1863 -91 
Q 1516 -91 1145 -36 
Q 775 19 384 128 
L 384 978 
Q 719 816 1070 734 
Q 1422 653 1784 653 
Q 2113 653 2278 743 
Q 2444 834 2444 1013 
Q 2444 1163 2330 1236 
Q 2216 1309 1875 1350 
L 1678 1375 
Q 931 1469 631 1722 
Q 331 1975 331 2491 
Q 331 3047 712 3315 
Q 1094 3584 1881 3584 
Q 2191 3584 2531 3537 
Q 2872 3491 3272 3391 
z
" transform="scale(0.015625)"/>
     <path id="DejaVuSans-Bold-20" transform="scale(0.015625)"/>
     <path id="DejaVuSans-Bold-48" d="M 588 4666 
L 1791 4666 
L 1791 2888 
L 3566 2888 
L 3566 4666 
L 4769 4666 
L 4769 0 
L 3566 0 
L 3566 1978 
L 1791 1978 
L 1791 0 
L 588 0 
L 588 4666 
z
" transform="scale(0.015625)"/>
     <path id="DejaVuSans-Bold-61" d="M 2106 1575 
Q 1756 1575 1579 1456 
Q 1403 1338 1403 1106 
Q 1403 894 1545 773 
Q 1688 653 1941 653 
Q 2256 653 2472 879 
Q 2688 1106 2688 1447 
L 2688 1575 
L 2106 1575 
z
M 3816 1997 
L 3816 0 
L 2688 0 
L 2688 519 
Q 2463 200 2181 54 
Q 1900 -91 1497 -91 
Q 953 -91 614 226 
Q 275 544 275 1050 
Q 275 1666 698 1953 
Q 1122 2241 2028 2241 
L 2688 2241 
L 2688 2328 
Q 2688 2594 2478 2717 
Q 2269 2841 1825 2841 
Q 1466 2841 1156 2769 
Q 847 2697 581 2553 
L 581 3406 
Q 941 3494 1303 3539 
Q 1666 3584 2028 3584 
Q 2975 3584 3395 3211 
Q 3816 2838 3816 1997 
z
" transform="scale(0.015625)"/>
     <path id="DejaVuSans-Bold-64" d="M 2919 2988 
L 2919 4863 
L 4044 4863 
L 4044 0 
L 2919 0 
L 2919 506 
Q 2688 197 2409 53 
Q 2131 -91 1766 -91 
Q 1119 -91 703 423 
Q 288 938 288 1747 
Q 288 2556 703 3070 
Q 1119 3584 1766 3584 
Q 2128 3584 2408 3439 
Q 2688 3294 2919 2988 
z
M 2181 722 
Q 2541 722 2730 984 
Q 2919 1247 2919 1747 
Q 2919 2247 2730 2509 
Q 2541 2772 2181 2772 
Q 1825 2772 1636 2509 
Q 1447 2247 1447 1747 
Q 1447 1247 1636 984 
Q 1825 722 2181 722 
z
" transform="scale(0.015625)"/>
     <path id="DejaVuSans-Bold-53" d="M 3834 4519 
L 3834 3531 
Q 3450 3703 3084 3790 
Q 2719 3878 2394 3878 
Q 1963 3878 1756 3759 
Q 1550 3641 1550 3391 
Q 1550 3203 1689 3098 
Q 1828 2994 2194 2919 
L 2706 2816 
Q 3484 2659 3812 2340 
Q 4141 2022 4141 1434 
Q 4141 663 3683 286 
Q 3225 -91 2284 -91 
Q 1841 -91 1394 -6 
Q 947 78 500 244 
L 500 1259 
Q 947 1022 1364 901 
Q 1781 781 2169 781 
Q 2563 781 2772 912 
Q 2981 1044 2981 1288 
Q 2981 1506 2839 1625 
Q 2697 1744 2272 1838 
L 1806 1941 
Q 1106 2091 782 2419 
Q 459 2747 459 3303 
Q 459 4000 909 4375 
Q 1359 4750 2203 4750 
Q 2588 4750 2994 4692 
Q 3400 4634 3834 4519 
z
" transform="scale(0.015625)"/>
     <path id="DejaVuSans-Bold-68" d="M 4056 2131 
L 4056 0 
L 2931 0 
L 2931 347 
L 2931 1625 
Q 2931 2084 2911 2256 
Q 2891 2428 2841 2509 
Q 2775 2619 2662 2680 
Q 2550 2741 2406 2741 
Q 2056 2741 1856 2470 
Q 1656 2200 1656 1722 
L 1656 0 
L 538 0 
L 538 4863 
L 1656 4863 
L 1656 2988 
Q 1909 3294 2193 3439 
Q 2478 3584 2822 3584 
Q 3428 3584 3742 3212 
Q 4056 2841 4056 2131 
z
" transform="scale(0.015625)"/>
     <path id="DejaVuSans-Bold-6f" d="M 2203 2784 
Q 1831 2784 1636 2517 
Q 1441 2250 1441 1747 
Q 1441 1244 1636 976 
Q 1831 709 2203 709 
Q 2569 709 2762 976 
Q 2956 1244 2956 1747 
Q 2956 2250 2762 2517 
Q 2569 2784 2203 2784 
z
M 2203 3584 
Q 3106 3584 3614 3096 
Q 4122 2609 4122 1747 
Q 4122 884 3614 396 
Q 3106 -91 2203 -91 
Q 1297 -91 786 396 
Q 275 884 275 1747 
Q 275 2609 786 3096 
Q 1297 3584 2203 3584 
z
" transform="scale(0.015625)"/>
     <path id="DejaVuSans-Bold-75" d="M 500 1363 
L 500 3500 
L 1625 3500 
L 1625 3150 
Q 1625 2866 1622 2436 
Q 1619 2006 1619 1863 
Q 1619 1441 1641 1255 
Q 1663 1069 1716 984 
Q 1784 875 1895 815 
Q 2006 756 2150 756 
Q 2500 756 2700 1025 
Q 2900 1294 2900 1772 
L 2900 3500 
L 4019 3500 
L 4019 0 
L 2900 0 
L 2900 506 
Q 2647 200 2364 54 
Q 2081 -91 1741 -91 
Q 1134 -91 817 281 
Q 500 653 500 1363 
z
" transform="scale(0.015625)"/>
     <path id="DejaVuSans-Bold-6c" d="M 538 4863 
L 1656 4863 
L 1656 0 
L 538 0 
L 538 4863 
z
" transform="scale(0.015625)"/>
     <path id="DejaVuSans-Bold-28" d="M 2413 -844 
L 1484 -844 
Q 1006 -72 778 623 
Q 550 1319 550 2003 
Q 550 2688 779 3389 
Q 1009 4091 1484 4856 
L 2413 4856 
Q 2013 4116 1813 3408 
Q 1613 2700 1613 2009 
Q 1613 1319 1811 609 
Q 2009 -100 2413 -844 
z
" transform="scale(0.015625)"/>
     <path id="DejaVuSans-Bold-54" d="M 31 4666 
L 4331 4666 
L 4331 3756 
L 2784 3756 
L 2784 0 
L 1581 0 
L 1581 3756 
L 31 3756 
L 31 4666 
z
" transform="scale(0.015625)"/>
     <path id="DejaVuSans-Bold-103" d="M 1230 5019 
L 1677 5019 
Q 1711 4800 1866 4684 
Q 2021 4569 2280 4569 
Q 2539 4569 2694 4684 
Q 2849 4800 2883 5019 
L 3330 5019 
Q 3311 4569 3039 4330 
Q 2768 4091 2280 4091 
Q 1793 4091 1521 4330 
Q 1249 4569 1230 5019 
z
M 2106 1575 
Q 1756 1575 1579 1456 
Q 1403 1338 1403 1106 
Q 1403 894 1545 773 
Q 1688 653 1941 653 
Q 2256 653 2472 879 
Q 2688 1106 2688 1447 
L 2688 1575 
L 2106 1575 
z
M 3816 1997 
L 3816 0 
L 2688 0 
L 2688 519 
Q 2463 200 2181 54 
Q 1900 -91 1497 -91 
Q 953 -91 614 226 
Q 275 544 275 1050 
Q 275 1666 698 1953 
Q 1122 2241 2028 2241 
L 2688 2241 
L 2688 2328 
Q 2688 2594 2478 2717 
Q 2269 2841 1825 2841 
Q 1466 2841 1156 2769 
Q 847 2697 581 2553 
L 581 3406 
Q 941 3494 1303 3539 
Q 1666 3584 2028 3584 
Q 2975 3584 3395 3211 
Q 3816 2838 3816 1997 
z
" transform="scale(0.015625)"/>
     <path id="DejaVuSans-Bold-67" d="M 2919 594 
Q 2688 288 2409 144 
Q 2131 0 1766 0 
Q 1125 0 706 504 
Q 288 1009 288 1791 
Q 288 2575 706 3076 
Q 1125 3578 1766 3578 
Q 2131 3578 2409 3434 
Q 2688 3291 2919 2981 
L 2919 3500 
L 4044 3500 
L 4044 353 
Q 4044 -491 3511 -936 
Q 2978 -1381 1966 -1381 
Q 1638 -1381 1331 -1331 
Q 1025 -1281 716 -1178 
L 716 -306 
Q 1009 -475 1290 -558 
Q 1572 -641 1856 -641 
Q 2406 -641 2662 -400 
Q 2919 -159 2919 353 
L 2919 594 
z
M 2181 2772 
Q 1834 2772 1640 2515 
Q 1447 2259 1447 1791 
Q 1447 1309 1634 1061 
Q 1822 813 2181 813 
Q 2531 813 2725 1069 
Q 2919 1325 2919 1791 
Q 2919 2259 2725 2515 
Q 2531 2772 2181 2772 
z
" transform="scale(0.015625)"/>
     <path id="DejaVuSans-Bold-29" d="M 513 -844 
Q 913 -100 1113 609 
Q 1313 1319 1313 2009 
Q 1313 2700 1113 3408 
Q 913 4116 513 4856 
L 1441 4856 
Q 1916 4091 2145 3389 
Q 2375 2688 2375 2003 
Q 2375 1319 2147 623 
Q 1919 -72 1441 -844 
L 513 -844 
z
" transform="scale(0.015625)"/>
    </defs>
    <use xlink:href="#DejaVuSans-Bold-49"/>
    <use xlink:href="#DejaVuSans-Bold-6e" transform="translate(37.207031 0)"/>
    <use xlink:href="#DejaVuSans-Bold-76" transform="translate(108.398438 0)"/>
    <use xlink:href="#DejaVuSans-Bold-65" transform="translate(173.583984 0)"/>
    <use xlink:href="#DejaVuSans-Bold-72" transform="translate(241.40625 0)"/>
    <use xlink:href="#DejaVuSans-Bold-73" transform="translate(290.722656 0)"/>
    <use xlink:href="#DejaVuSans-Bold-65" transform="translate(350.244141 0)"/>
    <use xlink:href="#DejaVuSans-Bold-20" transform="translate(418.066406 0)"/>
    <use xlink:href="#DejaVuSans-Bold-48" transform="translate(452.880859 0)"/>
    <use xlink:href="#DejaVuSans-Bold-65" transform="translate(536.572266 0)"/>
    <use xlink:href="#DejaVuSans-Bold-61" transform="translate(604.394531 0)"/>
    <use xlink:href="#DejaVuSans-Bold-64" transform="translate(671.875 0)"/>
    <use xlink:href="#DejaVuSans-Bold-20" transform="translate(743.457031 0)"/>
    <use xlink:href="#DejaVuSans-Bold-61" transform="translate(778.271484 0)"/>
    <use xlink:href="#DejaVuSans-Bold-6e" transform="translate(845.751953 0)"/>
    <use xlink:href="#DejaVuSans-Bold-64" transform="translate(916.943359 0)"/>
    <use xlink:href="#DejaVuSans-Bold-20" transform="translate(988.525391 0)"/>
    <use xlink:href="#DejaVuSans-Bold-53" transform="translate(1023.339844 0)"/>
    <use xlink:href="#DejaVuSans-Bold-68" transform="translate(1095.361328 0)"/>
    <use xlink:href="#DejaVuSans-Bold-6f" transform="translate(1166.552734 0)"/>
    <use xlink:href="#DejaVuSans-Bold-75" transform="translate(1235.253906 0)"/>
    <use xlink:href="#DejaVuSans-Bold-6c" transform="translate(1306.445312 0)"/>
    <use xlink:href="#DejaVuSans-Bold-64" transform="translate(1340.722656 0)"/>
    <use xlink:href="#DejaVuSans-Bold-65" transform="translate(1412.304688 0)"/>
    <use xlink:href="#DejaVuSans-Bold-72" transform="translate(1480.126953 0)"/>
    <use xlink:href="#DejaVuSans-Bold-73" transform="translate(1529.443359 0)"/>
    <use xlink:href="#DejaVuSans-Bold-20" transform="translate(1588.964844 0)"/>
    <use xlink:href="#DejaVuSans-Bold-28" transform="translate(1623.779297 0)"/>
    <use xlink:href="#DejaVuSans-Bold-54" transform="translate(1669.482422 0)"/>
    <use xlink:href="#DejaVuSans-Bold-103" transform="translate(1737.695312 0)"/>
    <use xlink:href="#DejaVuSans-Bold-6e" transform="translate(1805.175781 0)"/>
    <use xlink:href="#DejaVuSans-Bold-67" transform="translate(1876.367188 0)"/>
    <use xlink:href="#DejaVuSans-Bold-29" transform="translate(1947.949219 0)"/>
   </g>
  </g>
  <g id="text_22">
   <!-- 3 đáy: đáy giữa thấp nhất, 2 đáy hai bên cao và xấp xỉ nhau. Neckline nối 2 đỉnh. -->
   <g style="fill: #555555" transform="translate(134.510312 375.48) scale(0.08 -0.08)">
    <defs>
     <path id="DejaVuSans-Oblique-33" d="M 1013 4550 
Q 1356 4650 1679 4700 
Q 2003 4750 2316 4750 
Q 2934 4750 3296 4475 
Q 3659 4200 3659 3738 
Q 3659 3284 3373 2959 
Q 3088 2634 2584 2516 
Q 2978 2403 3162 2165 
Q 3347 1928 3347 1538 
Q 3347 1163 3167 834 
Q 2988 506 2650 269 
Q 2394 88 2037 -1 
Q 1681 -91 1216 -91 
Q 922 -91 622 -33 
Q 322 25 13 141 
L 128 738 
Q 422 575 720 495 
Q 1019 416 1331 416 
Q 1947 416 2330 733 
Q 2713 1050 2713 1556 
Q 2713 1881 2469 2057 
Q 2225 2234 1772 2234 
L 1228 2234 
L 1325 2747 
L 1900 2747 
Q 2419 2747 2717 2984 
Q 3016 3222 3016 3628 
Q 3016 3922 2797 4083 
Q 2578 4244 2181 4244 
Q 1881 4244 1567 4180 
Q 1253 4116 916 3988 
L 1013 4550 
z
" transform="scale(0.015625)"/>
     <path id="DejaVuSans-Oblique-20" transform="scale(0.015625)"/>
     <path id="DejaVuSans-Oblique-111" d="M 2675 525 
Q 2444 222 2128 65 
Q 1813 -91 1428 -91 
Q 903 -91 598 267 
Q 294 625 294 1247 
Q 294 1766 478 2236 
Q 663 2706 1013 3078 
Q 1244 3325 1534 3454 
Q 1825 3584 2144 3584 
Q 2481 3584 2739 3421 
Q 2997 3259 3138 2956 
L 3347 4013 
L 2328 4013 
L 2413 4397 
L 3431 4397 
L 3513 4863 
L 4091 4863 
L 4006 4397 
L 4488 4397 
L 4403 4013 
L 3922 4013 
L 3144 0 
L 2566 0 
L 2675 525 
z
M 891 1350 
Q 891 897 1095 644 
Q 1300 391 1663 391 
Q 1931 391 2161 520 
Q 2391 650 2566 903 
Q 2750 1166 2856 1509 
Q 2963 1853 2963 2188 
Q 2963 2622 2758 2865 
Q 2553 3109 2194 3109 
Q 1922 3109 1687 2981 
Q 1453 2853 1288 2613 
Q 1106 2353 998 2009 
Q 891 1666 891 1350 
z
" transform="scale(0.015625)"/>
     <path id="DejaVuSans-Oblique-e1" d="M 3438 1997 
L 3047 0 
L 2472 0 
L 2578 531 
Q 2325 219 2001 64 
Q 1678 -91 1281 -91 
Q 834 -91 548 182 
Q 263 456 263 884 
Q 263 1497 752 1853 
Q 1241 2209 2100 2209 
L 2900 2209 
L 2931 2363 
Q 2938 2388 2941 2417 
Q 2944 2447 2944 2509 
Q 2944 2788 2717 2942 
Q 2491 3097 2081 3097 
Q 1800 3097 1504 3025 
Q 1209 2953 897 2809 
L 997 3341 
Q 1322 3463 1633 3523 
Q 1944 3584 2234 3584 
Q 2853 3584 3176 3315 
Q 3500 3047 3500 2534 
Q 3500 2431 3484 2292 
Q 3469 2153 3438 1997 
z
M 2816 1759 
L 2241 1759 
Q 1534 1759 1195 1570 
Q 856 1381 856 984 
Q 856 709 1029 553 
Q 1203 397 1509 397 
Q 1978 397 2328 733 
Q 2678 1069 2791 1631 
L 2816 1759 
z
M 3031 5119 
L 3653 5119 
L 2406 3944 
L 1925 3944 
L 3031 5119 
z
" transform="scale(0.015625)"/>
     <path id="DejaVuSans-Oblique-79" d="M 1588 -325 
Q 1188 -997 936 -1164 
Q 684 -1331 294 -1331 
L -159 -1331 
L -63 -850 
L 269 -850 
Q 509 -850 678 -719 
Q 847 -588 1056 -206 
L 1234 128 
L 459 3500 
L 1069 3500 
L 1650 819 
L 3256 3500 
L 3859 3500 
L 1588 -325 
z
" transform="scale(0.015625)"/>
     <path id="DejaVuSans-Oblique-3a" d="M 978 3309 
L 1638 3309 
L 1484 2516 
L 825 2516 
L 978 3309 
z
M 488 794 
L 1147 794 
L 991 0 
L 331 0 
L 488 794 
z
" transform="scale(0.015625)"/>
     <path id="DejaVuSans-Oblique-67" d="M 3816 3500 
L 3219 434 
Q 3047 -456 2561 -893 
Q 2075 -1331 1253 -1331 
Q 950 -1331 690 -1286 
Q 431 -1241 206 -1147 
L 313 -588 
Q 525 -725 762 -790 
Q 1000 -856 1269 -856 
Q 1816 -856 2167 -557 
Q 2519 -259 2631 300 
L 2681 563 
Q 2441 288 2122 144 
Q 1803 0 1434 0 
Q 903 0 598 351 
Q 294 703 294 1319 
Q 294 1803 478 2267 
Q 663 2731 997 3091 
Q 1219 3328 1514 3456 
Q 1809 3584 2131 3584 
Q 2484 3584 2746 3420 
Q 3009 3256 3138 2956 
L 3238 3500 
L 3816 3500 
z
M 2950 2216 
Q 2950 2641 2750 2872 
Q 2550 3103 2181 3103 
Q 1953 3103 1747 3012 
Q 1541 2922 1394 2759 
Q 1156 2491 1023 2127 
Q 891 1763 891 1375 
Q 891 944 1092 712 
Q 1294 481 1672 481 
Q 2219 481 2584 976 
Q 2950 1472 2950 2216 
z
" transform="scale(0.015625)"/>
     <path id="DejaVuSans-Oblique-69" d="M 1172 4863 
L 1747 4863 
L 1606 4134 
L 1031 4134 
L 1172 4863 
z
M 909 3500 
L 1484 3500 
L 800 0 
L 225 0 
L 909 3500 
z
" transform="scale(0.015625)"/>
     <path id="DejaVuSans-Oblique-1eef" d="M 2178 4281 
L 2038 4453 
Q 1997 4503 1947 4534 
Q 1897 4566 1847 4575 
Q 1725 4575 1645 4461 
Q 1566 4347 1513 4091 
L 1122 4091 
Q 1216 4519 1417 4745 
Q 1619 4972 1903 4972 
Q 2019 4972 2119 4923 
Q 2219 4875 2300 4781 
L 2447 4609 
Q 2485 4559 2528 4531 
Q 2572 4503 2631 4488 
Q 2750 4488 2826 4598 
Q 2903 4709 2966 4972 
L 3356 4972 
Q 3266 4544 3064 4317 
Q 2863 4091 2575 4091 
Q 2456 4091 2353 4139 
Q 2250 4188 2178 4281 
z
M 436 1388 
L 846 3500 
L 1424 3500 
L 1014 1409 
Q 983 1256 969 1147 
Q 955 1038 955 966 
Q 955 700 1117 554 
Q 1280 409 1577 409 
Q 2039 409 2376 721 
Q 2714 1034 2817 1563 
L 3202 3500 
L 3777 3500 
L 3099 0 
L 2524 0 
L 2639 550 
Q 2396 244 2060 76 
Q 1724 -91 1346 -91 
Q 886 -91 630 161 
Q 374 413 374 863 
Q 374 956 389 1097 
Q 405 1238 436 1388 
z
M 3271 3136 
L 3343 3508 
Q 3506 3367 3631 3300 
Q 3756 3233 3852 3233 
Q 3996 3233 4083 3319 
Q 4171 3405 4206 3573 
Q 4224 3673 4219 3770 
Q 4215 3867 4187 3964 
L 4602 3964 
Q 4612 3845 4607 3739 
Q 4602 3633 4584 3539 
Q 4509 3158 4338 2978 
Q 4168 2798 3877 2798 
Q 3727 2798 3579 2881 
Q 3431 2964 3271 3136 
z
" transform="scale(0.015625)"/>
     <path id="DejaVuSans-Oblique-61" d="M 3438 1997 
L 3047 0 
L 2472 0 
L 2578 531 
Q 2325 219 2001 64 
Q 1678 -91 1281 -91 
Q 834 -91 548 182 
Q 263 456 263 884 
Q 263 1497 752 1853 
Q 1241 2209 2100 2209 
L 2900 2209 
L 2931 2363 
Q 2938 2388 2941 2417 
Q 2944 2447 2944 2509 
Q 2944 2788 2717 2942 
Q 2491 3097 2081 3097 
Q 1800 3097 1504 3025 
Q 1209 2953 897 2809 
L 997 3341 
Q 1322 3463 1633 3523 
Q 1944 3584 2234 3584 
Q 2853 3584 3176 3315 
Q 3500 3047 3500 2534 
Q 3500 2431 3484 2292 
Q 3469 2153 3438 1997 
z
M 2816 1759 
L 2241 1759 
Q 1534 1759 1195 1570 
Q 856 1381 856 984 
Q 856 709 1029 553 
Q 1203 397 1509 397 
Q 1978 397 2328 733 
Q 2678 1069 2791 1631 
L 2816 1759 
z
" transform="scale(0.015625)"/>
     <path id="DejaVuSans-Oblique-74" d="M 2706 3500 
L 2619 3053 
L 1472 3053 
L 1100 1153 
Q 1081 1047 1072 975 
Q 1063 903 1063 863 
Q 1063 663 1183 572 
Q 1303 481 1569 481 
L 2150 481 
L 2053 0 
L 1503 0 
Q 991 0 739 200 
Q 488 400 488 806 
Q 488 878 497 964 
Q 506 1050 525 1153 
L 897 3053 
L 409 3053 
L 500 3500 
L 978 3500 
L 1172 4494 
L 1747 4494 
L 1556 3500 
L 2706 3500 
z
" transform="scale(0.015625)"/>
     <path id="DejaVuSans-Oblique-68" d="M 3566 2113 
L 3156 0 
L 2578 0 
L 2988 2091 
Q 3016 2238 3031 2350 
Q 3047 2463 3047 2528 
Q 3047 2791 2881 2937 
Q 2716 3084 2419 3084 
Q 1956 3084 1617 2771 
Q 1278 2459 1178 1941 
L 800 0 
L 225 0 
L 1172 4863 
L 1747 4863 
L 1375 2950 
Q 1594 3244 1934 3414 
Q 2275 3584 2650 3584 
Q 3113 3584 3367 3334 
Q 3622 3084 3622 2631 
Q 3622 2519 3608 2391 
Q 3594 2263 3566 2113 
z
" transform="scale(0.015625)"/>
     <path id="DejaVuSans-Oblique-1ea5" d="M 3438 1997 
L 3047 0 
L 2472 0 
L 2578 531 
Q 2325 219 2001 64 
Q 1678 -91 1281 -91 
Q 834 -91 548 182 
Q 263 456 263 884 
Q 263 1497 752 1853 
Q 1241 2209 2100 2209 
L 2900 2209 
L 2931 2363 
Q 2938 2388 2941 2417 
Q 2944 2447 2944 2509 
Q 2944 2788 2717 2942 
Q 2491 3097 2081 3097 
Q 1800 3097 1504 3025 
Q 1209 2953 897 2809 
L 997 3341 
Q 1322 3463 1633 3523 
Q 1944 3584 2234 3584 
Q 2853 3584 3176 3315 
Q 3500 3047 3500 2534 
Q 3500 2431 3484 2292 
Q 3469 2153 3438 1997 
z
M 2816 1759 
L 2241 1759 
Q 1534 1759 1195 1570 
Q 856 1381 856 984 
Q 856 709 1029 553 
Q 1203 397 1509 397 
Q 1978 397 2328 733 
Q 2678 1069 2791 1631 
L 2816 1759 
z
M 2179 4775 
L 2851 4775 
L 3345 3944 
L 2923 3944 
L 2485 4500 
L 1832 3944 
L 1360 3944 
L 2179 4775 
z
M 3907 5409 
L 4554 5409 
L 3594 4584 
L 3101 4584 
L 3907 5409 
z
" transform="scale(0.015625)"/>
     <path id="DejaVuSans-Oblique-70" d="M 3175 2156 
Q 3175 2616 2975 2859 
Q 2775 3103 2400 3103 
Q 2144 3103 1911 2972 
Q 1678 2841 1497 2591 
Q 1319 2344 1212 1994 
Q 1106 1644 1106 1300 
Q 1106 863 1306 627 
Q 1506 391 1875 391 
Q 2147 391 2380 519 
Q 2613 647 2778 891 
Q 2956 1147 3065 1494 
Q 3175 1841 3175 2156 
z
M 1394 2969 
Q 1625 3272 1939 3428 
Q 2253 3584 2638 3584 
Q 3175 3584 3472 3232 
Q 3769 2881 3769 2247 
Q 3769 1728 3584 1258 
Q 3400 788 3053 416 
Q 2822 169 2531 39 
Q 2241 -91 1919 -91 
Q 1547 -91 1294 64 
Q 1041 219 916 525 
L 556 -1331 
L -19 -1331 
L 922 3500 
L 1497 3500 
L 1394 2969 
z
" transform="scale(0.015625)"/>
     <path id="DejaVuSans-Oblique-6e" d="M 3566 2113 
L 3156 0 
L 2578 0 
L 2988 2091 
Q 3016 2238 3031 2350 
Q 3047 2463 3047 2528 
Q 3047 2791 2881 2937 
Q 2716 3084 2419 3084 
Q 1956 3084 1622 2776 
Q 1288 2469 1184 1941 
L 800 0 
L 225 0 
L 903 3500 
L 1478 3500 
L 1363 2950 
Q 1603 3253 1940 3418 
Q 2278 3584 2650 3584 
Q 3113 3584 3367 3334 
Q 3622 3084 3622 2631 
Q 3622 2519 3608 2391 
Q 3594 2263 3566 2113 
z
" transform="scale(0.015625)"/>
     <path id="DejaVuSans-Oblique-2c" d="M 575 794 
L 1234 794 
L 1131 256 
L 422 -744 
L 19 -744 
L 469 256 
L 575 794 
z
" transform="scale(0.015625)"/>
     <path id="DejaVuSans-Oblique-32" d="M 2950 2253 
L 934 525 
L 3163 525 
L 3053 0 
L 25 0 
L 128 531 
L 2234 2338 
Q 2656 2703 2832 2979 
Q 3009 3256 3009 3547 
Q 3009 3850 2796 4040 
Q 2584 4231 2241 4231 
Q 1944 4231 1581 4125 
Q 1219 4019 806 3816 
L 922 4441 
Q 1309 4594 1662 4672 
Q 2016 4750 2316 4750 
Q 2928 4750 3301 4425 
Q 3675 4100 3675 3572 
Q 3675 3216 3497 2892 
Q 3319 2569 2950 2253 
z
" transform="scale(0.015625)"/>
     <path id="DejaVuSans-Oblique-62" d="M 3169 2138 
Q 3169 2591 2961 2847 
Q 2753 3103 2388 3103 
Q 2122 3103 1889 2973 
Q 1656 2844 1484 2597 
Q 1303 2338 1198 1995 
Q 1094 1653 1094 1313 
Q 1094 881 1298 636 
Q 1503 391 1863 391 
Q 2134 391 2365 517 
Q 2597 644 2772 891 
Q 2950 1147 3059 1487 
Q 3169 1828 3169 2138 
z
M 1381 2969 
Q 1594 3256 1914 3420 
Q 2234 3584 2584 3584 
Q 3122 3584 3439 3221 
Q 3756 2859 3756 2241 
Q 3756 1734 3570 1259 
Q 3384 784 3041 416 
Q 2816 172 2522 40 
Q 2228 -91 1906 -91 
Q 1566 -91 1316 65 
Q 1066 222 909 531 
L 806 0 
L 231 0 
L 1178 4863 
L 1753 4863 
L 1381 2969 
z
" transform="scale(0.015625)"/>
     <path id="DejaVuSans-Oblique-ea" d="M 3078 2063 
Q 3088 2113 3092 2166 
Q 3097 2219 3097 2272 
Q 3097 2653 2873 2875 
Q 2650 3097 2266 3097 
Q 1838 3097 1509 2826 
Q 1181 2556 1013 2059 
L 3078 2063 
z
M 3578 1613 
L 903 1613 
Q 884 1494 878 1425 
Q 872 1356 872 1306 
Q 872 872 1139 634 
Q 1406 397 1894 397 
Q 2269 397 2603 481 
Q 2938 566 3225 728 
L 3116 159 
Q 2806 34 2476 -28 
Q 2147 -91 1806 -91 
Q 1078 -91 686 257 
Q 294 606 294 1247 
Q 294 1794 489 2264 
Q 684 2734 1063 3103 
Q 1306 3334 1642 3459 
Q 1978 3584 2356 3584 
Q 2950 3584 3301 3228 
Q 3653 2872 3653 2272 
Q 3653 2128 3634 1964 
Q 3616 1800 3578 1613 
z
M 2397 5119 
L 2860 5119 
L 3397 3944 
L 2963 3944 
L 2566 4684 
L 1835 3944 
L 1400 3944 
L 2397 5119 
z
" transform="scale(0.015625)"/>
     <path id="DejaVuSans-Oblique-63" d="M 3431 3366 
L 3316 2797 
Q 3109 2947 2876 3022 
Q 2644 3097 2394 3097 
Q 2119 3097 1870 3000 
Q 1622 2903 1453 2725 
Q 1184 2453 1037 2087 
Q 891 1722 891 1331 
Q 891 859 1127 628 
Q 1363 397 1844 397 
Q 2081 397 2348 469 
Q 2616 541 2906 684 
L 2797 116 
Q 2547 13 2283 -39 
Q 2019 -91 1741 -91 
Q 1044 -91 669 257 
Q 294 606 294 1253 
Q 294 1797 489 2255 
Q 684 2713 1069 3078 
Q 1331 3328 1684 3456 
Q 2038 3584 2456 3584 
Q 2700 3584 2940 3529 
Q 3181 3475 3431 3366 
z
" transform="scale(0.015625)"/>
     <path id="DejaVuSans-Oblique-6f" d="M 1625 -91 
Q 1009 -91 651 289 
Q 294 669 294 1325 
Q 294 1706 417 2101 
Q 541 2497 738 2766 
Q 1047 3184 1428 3384 
Q 1809 3584 2291 3584 
Q 2888 3584 3255 3212 
Q 3622 2841 3622 2241 
Q 3622 1825 3500 1412 
Q 3378 1000 3181 728 
Q 2875 309 2494 109 
Q 2113 -91 1625 -91 
z
M 891 1344 
Q 891 869 1089 633 
Q 1288 397 1691 397 
Q 2269 397 2648 901 
Q 3028 1406 3028 2181 
Q 3028 2634 2825 2865 
Q 2622 3097 2228 3097 
Q 1903 3097 1650 2945 
Q 1397 2794 1197 2484 
Q 1050 2253 970 1956 
Q 891 1659 891 1344 
z
" transform="scale(0.015625)"/>
     <path id="DejaVuSans-Oblique-76" d="M 459 3500 
L 1069 3500 
L 1581 525 
L 3256 3500 
L 3866 3500 
L 1875 0 
L 1100 0 
L 459 3500 
z
" transform="scale(0.015625)"/>
     <path id="DejaVuSans-Oblique-e0" d="M 3438 1997 
L 3047 0 
L 2472 0 
L 2578 531 
Q 2325 219 2001 64 
Q 1678 -91 1281 -91 
Q 834 -91 548 182 
Q 263 456 263 884 
Q 263 1497 752 1853 
Q 1241 2209 2100 2209 
L 2900 2209 
L 2931 2363 
Q 2938 2388 2941 2417 
Q 2944 2447 2944 2509 
Q 2944 2788 2717 2942 
Q 2491 3097 2081 3097 
Q 1800 3097 1504 3025 
Q 1209 2953 897 2809 
L 997 3341 
Q 1322 3463 1633 3523 
Q 1944 3584 2234 3584 
Q 2853 3584 3176 3315 
Q 3500 3047 3500 2534 
Q 3500 2431 3484 2292 
Q 3469 2153 3438 1997 
z
M 2816 1759 
L 2241 1759 
Q 1534 1759 1195 1570 
Q 856 1381 856 984 
Q 856 709 1029 553 
Q 1203 397 1509 397 
Q 1978 397 2328 733 
Q 2678 1069 2791 1631 
L 2816 1759 
z
M 2143 5119 
L 2796 3950 
L 2315 3950 
L 1528 5119 
L 2143 5119 
z
" transform="scale(0.015625)"/>
     <path id="DejaVuSans-Oblique-78" d="M 3841 3500 
L 2234 1784 
L 3219 0 
L 2559 0 
L 1819 1388 
L 531 0 
L -166 0 
L 1556 1844 
L 641 3500 
L 1300 3500 
L 1972 2234 
L 3144 3500 
L 3841 3500 
z
" transform="scale(0.015625)"/>
     <path id="DejaVuSans-Oblique-1ec9" d="M 814 5025 
Q 1195 5184 1520 5184 
Q 1845 5184 2018 5051 
Q 2192 4919 2152 4709 
Q 2114 4519 1798 4316 
L 1642 4216 
Q 1517 4134 1498 4106 
Q 1467 4056 1448 3956 
L 1077 3956 
L 1083 3994 
Q 1108 4119 1172 4203 
Q 1236 4288 1417 4403 
L 1577 4509 
Q 1742 4616 1767 4741 
Q 1780 4806 1694 4862 
Q 1608 4919 1386 4919 
Q 1105 4919 761 4756 
L 814 5025 
z
M 909 3500 
L 1484 3500 
L 800 0 
L 225 0 
L 909 3500 
z
" transform="scale(0.015625)"/>
     <path id="DejaVuSans-Oblique-75" d="M 428 1388 
L 838 3500 
L 1416 3500 
L 1006 1409 
Q 975 1256 961 1147 
Q 947 1038 947 966 
Q 947 700 1109 554 
Q 1272 409 1569 409 
Q 2031 409 2368 721 
Q 2706 1034 2809 1563 
L 3194 3500 
L 3769 3500 
L 3091 0 
L 2516 0 
L 2631 550 
Q 2388 244 2052 76 
Q 1716 -91 1338 -91 
Q 878 -91 622 161 
Q 366 413 366 863 
Q 366 956 381 1097 
Q 397 1238 428 1388 
z
" transform="scale(0.015625)"/>
     <path id="DejaVuSans-Oblique-2e" d="M 525 794 
L 1184 794 
L 1031 0 
L 372 0 
L 525 794 
z
" transform="scale(0.015625)"/>
     <path id="DejaVuSans-Oblique-4e" d="M 1081 4666 
L 1931 4666 
L 3219 666 
L 4000 4666 
L 4616 4666 
L 3706 0 
L 2853 0 
L 1569 4025 
L 788 0 
L 172 0 
L 1081 4666 
z
" transform="scale(0.015625)"/>
     <path id="DejaVuSans-Oblique-65" d="M 3078 2063 
Q 3088 2113 3092 2166 
Q 3097 2219 3097 2272 
Q 3097 2653 2873 2875 
Q 2650 3097 2266 3097 
Q 1838 3097 1509 2826 
Q 1181 2556 1013 2059 
L 3078 2063 
z
M 3578 1613 
L 903 1613 
Q 884 1494 878 1425 
Q 872 1356 872 1306 
Q 872 872 1139 634 
Q 1406 397 1894 397 
Q 2269 397 2603 481 
Q 2938 566 3225 728 
L 3116 159 
Q 2806 34 2476 -28 
Q 2147 -91 1806 -91 
Q 1078 -91 686 257 
Q 294 606 294 1247 
Q 294 1794 489 2264 
Q 684 2734 1063 3103 
Q 1306 3334 1642 3459 
Q 1978 3584 2356 3584 
Q 2950 3584 3301 3228 
Q 3653 2872 3653 2272 
Q 3653 2128 3634 1964 
Q 3616 1800 3578 1613 
z
" transform="scale(0.015625)"/>
     <path id="DejaVuSans-Oblique-6b" d="M 1172 4863 
L 1747 4863 
L 1197 2028 
L 3169 3500 
L 3916 3500 
L 1716 1825 
L 3322 0 
L 2625 0 
L 1131 1709 
L 800 0 
L 225 0 
L 1172 4863 
z
" transform="scale(0.015625)"/>
     <path id="DejaVuSans-Oblique-6c" d="M 1172 4863 
L 1747 4863 
L 800 0 
L 225 0 
L 1172 4863 
z
" transform="scale(0.015625)"/>
     <path id="DejaVuSans-Oblique-1ed1" d="M 1625 -91 
Q 1009 -91 651 289 
Q 294 669 294 1325 
Q 294 1706 417 2101 
Q 541 2497 738 2766 
Q 1047 3184 1428 3384 
Q 1809 3584 2291 3584 
Q 2888 3584 3255 3212 
Q 3622 2841 3622 2241 
Q 3622 1825 3500 1412 
Q 3378 1000 3181 728 
Q 2875 309 2494 109 
Q 2113 -91 1625 -91 
z
M 891 1344 
Q 891 869 1089 633 
Q 1288 397 1691 397 
Q 2269 397 2648 901 
Q 3028 1406 3028 2181 
Q 3028 2634 2825 2865 
Q 2622 3097 2228 3097 
Q 1903 3097 1650 2945 
Q 1397 2794 1197 2484 
Q 1050 2253 970 1956 
Q 891 1659 891 1344 
z
M 2331 4775 
L 3003 4775 
L 3497 3944 
L 3075 3944 
L 2637 4500 
L 1984 3944 
L 1512 3944 
L 2331 4775 
z
M 4059 5409 
L 4706 5409 
L 3746 4584 
L 3253 4584 
L 4059 5409 
z
" transform="scale(0.015625)"/>
    </defs>
    <use xlink:href="#DejaVuSans-Oblique-33"/>
    <use xlink:href="#DejaVuSans-Oblique-20" transform="translate(63.623047 0)"/>
    <use xlink:href="#DejaVuSans-Oblique-111" transform="translate(95.410156 0)"/>
    <use xlink:href="#DejaVuSans-Oblique-e1" transform="translate(158.886719 0)"/>
    <use xlink:href="#DejaVuSans-Oblique-79" transform="translate(220.166016 0)"/>
    <use xlink:href="#DejaVuSans-Oblique-3a" transform="translate(279.345703 0)"/>
    <use xlink:href="#DejaVuSans-Oblique-20" transform="translate(313.037109 0)"/>
    <use xlink:href="#DejaVuSans-Oblique-111" transform="translate(344.824219 0)"/>
    <use xlink:href="#DejaVuSans-Oblique-e1" transform="translate(408.300781 0)"/>
    <use xlink:href="#DejaVuSans-Oblique-79" transform="translate(469.580078 0)"/>
    <use xlink:href="#DejaVuSans-Oblique-20" transform="translate(528.759766 0)"/>
    <use xlink:href="#DejaVuSans-Oblique-67" transform="translate(560.546875 0)"/>
    <use xlink:href="#DejaVuSans-Oblique-69" transform="translate(624.023438 0)"/>
    <use xlink:href="#DejaVuSans-Oblique-1eef" transform="translate(651.806641 0)"/>
    <use xlink:href="#DejaVuSans-Oblique-61" transform="translate(715.185547 0)"/>
    <use xlink:href="#DejaVuSans-Oblique-20" transform="translate(776.464844 0)"/>
    <use xlink:href="#DejaVuSans-Oblique-74" transform="translate(808.251953 0)"/>
    <use xlink:href="#DejaVuSans-Oblique-68" transform="translate(847.460938 0)"/>
    <use xlink:href="#DejaVuSans-Oblique-1ea5" transform="translate(910.839844 0)"/>
    <use xlink:href="#DejaVuSans-Oblique-70" transform="translate(972.119141 0)"/>
    <use xlink:href="#DejaVuSans-Oblique-20" transform="translate(1035.595703 0)"/>
    <use xlink:href="#DejaVuSans-Oblique-6e" transform="translate(1067.382812 0)"/>
    <use xlink:href="#DejaVuSans-Oblique-68" transform="translate(1130.761719 0)"/>
    <use xlink:href="#DejaVuSans-Oblique-1ea5" transform="translate(1194.140625 0)"/>
    <use xlink:href="#DejaVuSans-Oblique-74" transform="translate(1255.419922 0)"/>
    <use xlink:href="#DejaVuSans-Oblique-2c" transform="translate(1294.628906 0)"/>
    <use xlink:href="#DejaVuSans-Oblique-20" transform="translate(1326.416016 0)"/>
    <use xlink:href="#DejaVuSans-Oblique-32" transform="translate(1358.203125 0)"/>
    <use xlink:href="#DejaVuSans-Oblique-20" transform="translate(1421.826172 0)"/>
    <use xlink:href="#DejaVuSans-Oblique-111" transform="translate(1453.613281 0)"/>
    <use xlink:href="#DejaVuSans-Oblique-e1" transform="translate(1517.089844 0)"/>
    <use xlink:href="#DejaVuSans-Oblique-79" transform="translate(1578.369141 0)"/>
    <use xlink:href="#DejaVuSans-Oblique-20" transform="translate(1637.548828 0)"/>
    <use xlink:href="#DejaVuSans-Oblique-68" transform="translate(1669.335938 0)"/>
    <use xlink:href="#DejaVuSans-Oblique-61" transform="translate(1732.714844 0)"/>
    <use xlink:href="#DejaVuSans-Oblique-69" transform="translate(1793.994141 0)"/>
    <use xlink:href="#DejaVuSans-Oblique-20" transform="translate(1821.777344 0)"/>
    <use xlink:href="#DejaVuSans-Oblique-62" transform="translate(1853.564453 0)"/>
    <use xlink:href="#DejaVuSans-Oblique-ea" transform="translate(1917.041016 0)"/>
    <use xlink:href="#DejaVuSans-Oblique-6e" transform="translate(1978.564453 0)"/>
    <use xlink:href="#DejaVuSans-Oblique-20" transform="translate(2041.943359 0)"/>
    <use xlink:href="#DejaVuSans-Oblique-63" transform="translate(2073.730469 0)"/>
    <use xlink:href="#DejaVuSans-Oblique-61" transform="translate(2128.710938 0)"/>
    <use xlink:href="#DejaVuSans-Oblique-6f" transform="translate(2189.990234 0)"/>
    <use xlink:href="#DejaVuSans-Oblique-20" transform="translate(2251.171875 0)"/>
    <use xlink:href="#DejaVuSans-Oblique-76" transform="translate(2282.958984 0)"/>
    <use xlink:href="#DejaVuSans-Oblique-e0" transform="translate(2342.138672 0)"/>
    <use xlink:href="#DejaVuSans-Oblique-20" transform="translate(2403.417969 0)"/>
    <use xlink:href="#DejaVuSans-Oblique-78" transform="translate(2435.205078 0)"/>
    <use xlink:href="#DejaVuSans-Oblique-1ea5" transform="translate(2494.384766 0)"/>
    <use xlink:href="#DejaVuSans-Oblique-70" transform="translate(2555.664062 0)"/>
    <use xlink:href="#DejaVuSans-Oblique-20" transform="translate(2619.140625 0)"/>
    <use xlink:href="#DejaVuSans-Oblique-78" transform="translate(2650.927734 0)"/>
    <use xlink:href="#DejaVuSans-Oblique-1ec9" transform="translate(2710.107422 0)"/>
    <use xlink:href="#DejaVuSans-Oblique-20" transform="translate(2737.890625 0)"/>
    <use xlink:href="#DejaVuSans-Oblique-6e" transform="translate(2769.677734 0)"/>
    <use xlink:href="#DejaVuSans-Oblique-68" transform="translate(2833.056641 0)"/>
    <use xlink:href="#DejaVuSans-Oblique-61" transform="translate(2896.435547 0)"/>
    <use xlink:href="#DejaVuSans-Oblique-75" transform="translate(2957.714844 0)"/>
    <use xlink:href="#DejaVuSans-Oblique-2e" transform="translate(3021.09375 0)"/>
    <use xlink:href="#DejaVuSans-Oblique-20" transform="translate(3052.880859 0)"/>
    <use xlink:href="#DejaVuSans-Oblique-4e" transform="translate(3084.667969 0)"/>
    <use xlink:href="#DejaVuSans-Oblique-65" transform="translate(3159.472656 0)"/>
    <use xlink:href="#DejaVuSans-Oblique-63" transform="translate(3220.996094 0)"/>
    <use xlink:href="#DejaVuSans-Oblique-6b" transform="translate(3275.976562 0)"/>
    <use xlink:href="#DejaVuSans-Oblique-6c" transform="translate(3333.886719 0)"/>
    <use xlink:href="#DejaVuSans-Oblique-69" transform="translate(3361.669922 0)"/>
    <use xlink:href="#DejaVuSans-Oblique-6e" transform="translate(3389.453125 0)"/>
    <use xlink:href="#DejaVuSans-Oblique-65" transform="translate(3452.832031 0)"/>
    <use xlink:href="#DejaVuSans-Oblique-20" transform="translate(3514.355469 0)"/>
    <use xlink:href="#DejaVuSans-Oblique-6e" transform="translate(3546.142578 0)"/>
    <use xlink:href="#DejaVuSans-Oblique-1ed1" transform="translate(3609.521484 0)"/>
    <use xlink:href="#DejaVuSans-Oblique-69" transform="translate(3670.703125 0)"/>
    <use xlink:href="#DejaVuSans-Oblique-20" transform="translate(3698.486328 0)"/>
    <use xlink:href="#DejaVuSans-Oblique-32" transform="translate(3730.273438 0)"/>
    <use xlink:href="#DejaVuSans-Oblique-20" transform="translate(3793.896484 0)"/>
    <use xlink:href="#DejaVuSans-Oblique-111" transform="translate(3825.683594 0)"/>
    <use xlink:href="#DejaVuSans-Oblique-1ec9" transform="translate(3889.160156 0)"/>
    <use xlink:href="#DejaVuSans-Oblique-6e" transform="translate(3916.943359 0)"/>
    <use xlink:href="#DejaVuSans-Oblique-68" transform="translate(3980.322266 0)"/>
    <use xlink:href="#DejaVuSans-Oblique-2e" transform="translate(4043.701172 0)"/>
   </g>
  </g>
 </g>
 <defs>
  <clipPath id="p4831bff19e">
   <rect x="44.089063" y="42.84" width="570.24" height="277.2"/>
  </clipPath>
 </defs>
</svg>
